SplineFontDB: 3.2
FontName: BertiogaSans-ExtraBold
FullName: Bertioga Sans ExtraBold
FamilyName: Bertioga Sans ExtraBold
Weight: Heavy
Copyright: Copyright 2020 The Arimo Project Authors (https://github.com/googlefonts/arimo)\nCopyright 2020 The Libra Sans Project Authors (https://github.com/stefanpeev/libra-sans)\nCopyright 2024 The Bertioga Sans Project Authors (https://github.com/cssobral2013/bertioga-sans)
UComments: "2024-2-22: Created with FontForge (http://fontforge.org)"
Version: 3.004
ItalicAngle: 0
UnderlinePosition: -100
UnderlineWidth: 50
Ascent: 1638
Descent: 410
InvalidEm: 0
LayerCount: 2
Layer: 0 1 "Back" 1
Layer: 1 1 "Fore" 0
XUID: [1021 531 -1996577725 15496537]
StyleMap: 0x0040
FSType: 0
OS2Version: 4
OS2_WeightWidthSlopeOnly: 0
OS2_UseTypoMetrics: 1
CreationTime: 1708627146
ModificationTime: 1708737977
PfmFamily: 17
TTFWeight: 800
TTFWidth: 5
LineGap: 67
VLineGap: 0
Panose: 2 11 8 4 2 2 2 2 2 4
OS2TypoAscent: 1854
OS2TypoAOffset: 0
OS2TypoDescent: -434
OS2TypoDOffset: 0
OS2TypoLinegap: 67
OS2WinAscent: 2136
OS2WinAOffset: 0
OS2WinDescent: 797
OS2WinDOffset: 0
HheadAscent: 1854
HheadAOffset: 0
HheadDescent: -434
HheadDOffset: 0
OS2SubXSize: 1331
OS2SubYSize: 1433
OS2SubXOff: 0
OS2SubYOff: 286
OS2SupXSize: 1331
OS2SupYSize: 1433
OS2SupXOff: 0
OS2SupYOff: 983
OS2StrikeYSize: 102
OS2StrikeYPos: 530
OS2CapHeight: 1409
OS2XHeight: 1082
OS2Vendor: 'GOOG'
OS2CodePages: e00001bf.dff70000
OS2UnicodeRanges: e0000aff.500078ff.00000029.00000000
Lookup: 4 1 0 "dligDiscretionaryLigaturesinHebrewlookup1" { "dligDiscretionaryLigaturesinHebrewlookup1 subtable"  } ['dlig' ('hebr' <'dflt' > ) ]
Lookup: 4 0 0 "ccmpGlyphCompositionDecompositionlookup2" { "ccmpGlyphCompositionDecompositionlookup2 subtable"  } ['ccmp' ('latn' <'dflt' 'MAH ' > 'grek' <'dflt' > 'cyrl' <'dflt' > ) ]
Lookup: 6 0 0 "ccmpGlyphCompositionDecompositionlookup3" { "ccmpGlyphCompositionDecompositionlookup3 subtable"  } ['ccmp' ('latn' <'dflt' 'MAH ' > 'grek' <'dflt' > 'cyrl' <'dflt' > ) ]

StartChar: .notdef
Encoding: 65536 -1 0
Width: 1536
GlyphClass: 2
Flags: W
LayerCount: 2
Fore
SplineSet
1330 1409 m 1,0,0
 1330 0 l 1,0,0
 205 0 l 1,0,0
 205 1409 l 1,0,0
 1330 1409 l 1,0,0
281 76 m 1,0,0
 1254 76 l 1,0,0
 1254 1333 l 1,0,0
 281 1333 l 1,0,0
 281 76 l 1,0,0
EndSplineSet
EndChar

StartChar: exclam
Encoding: 33 33 4
Width: 719
GlyphClass: 2
Flags: W
LayerCount: 2
Fore
SplineSet
521.32 1409 m 1,0,0
 486.68 435.57 l 1,0,0
 229.62 435.57 l 1,0,0
 194.98 1409 l 1,0,0
 521.32 1409 l 1,0,0
514.66 292.77 m 1,0,0
 514.66 0 l 1,0,0
 195.64 0 l 1,0,0
 195.64 292.77 l 1,0,0
 514.66 292.77 l 1,0,0
EndSplineSet
EndChar

StartChar: quotedbl
Encoding: 34 34 5
Width: 1051
GlyphClass: 2
Flags: W
LayerCount: 2
Fore
SplineSet
900.68 1409 m 1,0,0
 869.37 875.56 l 1,0,0
 624.96 875.56 l 1,0,0
 595.65 1409 l 1,0,0
 900.68 1409 l 1,0,0
453.21 1409 m 1,0,0
 424.56 875.56 l 1,0,0
 179.82 875.56 l 1,0,0
 150.84 1409 l 1,0,0
 453.21 1409 l 1,0,0
EndSplineSet
EndChar

StartChar: numbersign
Encoding: 35 35 6
Width: 1139
GlyphClass: 2
Flags: W
LayerCount: 2
Fore
SplineSet
351.92 372.09 m 1,0,0
 273.24 0 l 1,0,0
 106.05 0 l 1,0,0
 183.4 372.09 l 1,0,0
 43.58 372.09 l 1,0,0
 43.58 534.62 l 1,0,0
 219.37 534.62 l 1,0,0
 286.73 854.41 l 1,0,0
 94.58 854.41 l 1,0,0
 94.58 1015.61 l 1,0,0
 320.7 1015.61 l 1,0,0
 403.05 1393.02 l 1,0,0
 570.24 1393.02 l 1,0,0
 490.22 1015.61 l 1,0,0
 778.74 1015.61 l 1,0,0
 861.42 1393.02 l 1,0,0
 1032.6 1393.02 l 1,0,0
 949.92 1015.61 l 1,0,0
 1098.41 1015.61 l 1,0,0
 1098.41 854.41 l 1,0,0
 913.29 854.41 l 1,0,0
 847.26 534.62 l 1,0,0
 1047.41 534.62 l 1,0,0
 1047.41 372.09 l 1,0,0
 813.62 372.09 l 1,0,0
 733.6 0 l 1,0,0
 562.42 0 l 1,0,0
 640.44 372.09 l 1,0,0
 351.92 372.09 l 1,0,0
387.56 534.62 m 1,0,0
 679.07 534.62 l 1,0,0
 746.43 854.41 l 1,0,0
 456.92 854.41 l 1,0,0
 387.56 534.62 l 1,0,0
EndSplineSet
EndChar

StartChar: dollar
Encoding: 36 36 7
Width: 1139
GlyphClass: 2
Flags: W
LayerCount: 2
Fore
SplineSet
520.66 20 m 1,0,0
 305 27.67 305 27.67 186.32 122.325 c 0,0,0
 67.64 216.98 67.64 216.98 28.65 417.57 c 1,0,0
 313.03 467.87 l 1,0,0
 330.05 356.85 330.05 356.85 378.96 306.825 c 0,0,0
 427.87 256.8 427.87 256.8 520.66 246.47 c 1,0,0
 520.66 602.82 l 1,0,0
 489.59 609.84 489.59 609.84 435.775 624.67 c 0,0,0
 381.96 639.5 381.96 639.5 326.845 659.815 c 0,0,0
 271.73 680.13 271.73 680.13 235.43 703.1 c 0,0,0
 159.7 752.11 159.7 752.11 113.54 831.92 c 0,0,0
 67.38 911.73 67.38 911.73 67.38 1024.72 c 0,0,0
 67.38 1194.35 67.38 1194.35 182.54 1286.505 c 0,0,0
 297.7 1378.66 297.7 1378.66 520.66 1386.33 c 1,0,0
 520.66 1521.32 l 1,0,0
 624.71 1521.32 l 1,0,0
 624.71 1386.33 l 1,0,0
 747.05 1380.33 747.05 1380.33 835.045 1349.32 c 0,0,0
 923.04 1318.31 923.04 1318.31 981.695 1242.495 c 0,0,0
 1040.35 1166.68 1040.35 1166.68 1075 1026.43 c 1,0,0
 781.3 985.45 l 1,0,0
 767.95 1070.14 767.95 1070.14 730.225 1115.99 c 0,0,0
 692.5 1161.84 692.5 1161.84 624.71 1172.84 c 1,0,0
 624.71 851.53 l 1,0,0
 625.93 853.14 625.93 853.14 665.325 844.945 c 0,0,0
 704.72 836.75 704.72 836.75 790.6 810.44 c 0,0,0
 948.49 764.09 948.49 764.09 1029.905 664.485 c 0,0,0
 1111.32 564.88 1111.32 564.88 1111.32 417.28 c 0,0,0
 1111.32 231 1111.32 231 989.655 131.665 c 0,0,0
 867.99 32.33 867.99 32.33 624.71 23.99 c 1,0,0
 624.71 -155.3 l 1,0,0
 520.66 -155.3 l 1,0,0
 520.66 20 l 1,0,0
359.08 1029.38 m 0,0,0
 359.08 989.33 359.08 989.33 372.11 965.29 c 0,0,0
 389.13 930.94 389.13 930.94 424.665 914.91 c 0,0,0
 460.2 898.88 460.2 898.88 520.66 874.87 c 1,0,0
 520.66 1177.5 l 1,0,0
 359.08 1164.83 359.08 1164.83 359.08 1029.38 c 0,0,0
822.28 412.62 m 0,0,0
 822.28 457.67 822.28 457.67 807.585 485.705 c 0,0,0
 792.89 513.74 792.89 513.74 762.51 531.1 c 0,0,0
 732.13 548.79 732.13 548.79 624.71 580.47 c 1,0,0
 624.71 246.8 l 1,0,0
 724.48 254.47 724.48 254.47 773.38 295.18 c 0,0,0
 822.28 335.89 822.28 335.89 822.28 412.62 c 0,0,0
EndSplineSet
EndChar

StartChar: percent
Encoding: 37 37 8
Width: 1821
GlyphClass: 2
Flags: W
LayerCount: 2
Fore
SplineSet
412.62 1426.32 m 0,0,0
 777.49 1426.32 777.49 1426.32 777.49 977.66 c 0,0,0
 777.49 759.33 777.49 759.33 683.36 644.325 c 0,0,0
 589.23 529.32 589.23 529.32 407.29 529.32 c 0,0,0
 228.01 529.32 228.01 529.32 135.875 643.325 c 0,0,0
 43.74 757.33 43.74 757.33 43.74 977.66 c 0,0,0
 43.74 1205.98 43.74 1205.98 132.71 1316.15 c 0,0,0
 221.68 1426.32 221.68 1426.32 412.62 1426.32 c 0,0,0
1482.92 1409 m 1,0,0
 560.25 0 l 1,0,0
 337.42 0 l 1,0,0
 1256.76 1409 l 1,0,0
 1482.92 1409 l 1,0,0
537.39 977.66 m 0,0,0
 537.39 1129.72 537.39 1129.72 509.365 1192.765 c 0,0,0
 481.34 1255.81 481.34 1255.81 412.62 1255.81 c 0,0,0
 337.24 1255.81 337.24 1255.81 309.21 1192.27 c 0,0,0
 281.18 1128.73 281.18 1128.73 281.18 977.66 c 0,0,0
 281.18 825.94 281.18 825.94 311.205 762.725 c 0,0,0
 341.23 699.51 341.23 699.51 410.62 699.51 c 0,0,0
 480.33 699.51 480.33 699.51 508.86 762.23 c 0,0,0
 537.39 824.95 537.39 824.95 537.39 977.66 c 0,0,0
1773.27 431.34 m 0,0,0
 1773.27 212.35 1773.27 212.35 1680.3 97.515 c 0,0,0
 1587.33 -17.32 1587.33 -17.32 1408.05 -17.32 c 0,0,0
 1225.45 -17.32 1225.45 -17.32 1133.315 97.175 c 0,0,0
 1041.18 211.67 1041.18 211.67 1041.18 431.34 c 0,0,0
 1041.18 654.02 1041.18 654.02 1130.315 766.85 c 0,0,0
 1219.45 879.68 1219.45 879.68 1412.05 879.68 c 0,0,0
 1597.33 879.68 1597.33 879.68 1685.3 766.51 c 0,0,0
 1773.27 653.34 1773.27 653.34 1773.27 431.34 c 0,0,0
1536.16 431.34 m 0,0,0
 1536.16 585.07 1536.16 585.07 1508.3 648.28 c 0,0,0
 1480.44 711.49 1480.44 711.49 1412.05 711.49 c 0,0,0
 1335.68 711.49 1335.68 711.49 1308.48 645.125 c 0,0,0
 1281.28 578.76 1281.28 578.76 1281.28 431.34 c 0,0,0
 1281.28 273.64 1281.28 273.64 1311.47 214.415 c 0,0,0
 1341.66 155.19 1341.66 155.19 1410.05 155.19 c 0,0,0
 1478.1 155.19 1478.1 155.19 1507.13 218.075 c 0,0,0
 1536.16 280.96 1536.16 280.96 1536.16 431.34 c 0,0,0
EndSplineSet
EndChar

StartChar: ampersand
Encoding: 38 38 9
Width: 1516
GlyphClass: 2
Flags: W
LayerCount: 2
Fore
SplineSet
95.94 389.62 m 0,0,0
 95.94 523.3 95.94 523.3 175.455 628.305 c 0,0,0
 254.97 733.31 254.97 733.31 432.29 817.29 c 1,0,0
 393.97 896.58 393.97 896.58 377.285 961.63 c 0,0,0
 360.6 1026.68 360.6 1026.68 360.6 1088.7 c 0,0,0
 360.6 1246.68 360.6 1246.68 460.745 1331.84 c 0,0,0
 560.89 1417 560.89 1417 746.18 1417 c 0,0,0
 919.79 1417 919.79 1417 1018.94 1335.68 c 0,0,0
 1118.09 1254.36 1118.09 1254.36 1118.09 1115.71 c 0,0,0
 1118.09 1036.4 1118.09 1036.4 1076.615 973.905 c 0,0,0
 1035.14 911.41 1035.14 911.41 964.14 859.4 c 0,0,0
 932.43 837.03 932.43 837.03 874.24 804.355 c 0,0,0
 816.05 771.68 816.05 771.68 731.7 730.36 c 1,0,0
 828.73 561.94 828.73 561.94 959.53 419.44 c 1,0,0
 1060.56 575.8 1060.56 575.8 1113.24 766.93 c 1,0,0
 1343.36 688.02 l 1,0,0
 1274.71 463.63 1274.71 463.63 1156.63 284.19 c 1,0,0
 1238 219.44 1238 219.44 1324.73 219.44 c 0,0,0
 1388.75 219.44 1388.75 219.44 1441.73 235.44 c 1,0,0
 1441.73 10 l 1,0,0
 1387.73 -12 1387.73 -12 1314.03 -12 c 0,0,0
 1228.69 -12 1228.69 -12 1138.23 18.835 c 0,0,0
 1047.77 49.67 1047.77 49.67 973.47 107.02 c 1,0,0
 799.85 -20 799.85 -20 592.16 -20 c 0,0,0
 355.88 -20 355.88 -20 225.91 87.49 c 0,0,0
 95.94 194.98 95.94 194.98 95.94 389.62 c 0,0,0
870.33 1113.05 m 0,0,0
 870.33 1165.1 870.33 1165.1 836.29 1197.965 c 0,0,0
 802.25 1230.83 802.25 1230.83 744.18 1230.83 c 0,0,0
 673.45 1230.83 673.45 1230.83 636.085 1190.635 c 0,0,0
 598.72 1150.44 598.72 1150.44 598.72 1086.04 c 0,0,0
 598.72 1008.62 598.72 1008.62 649.09 909.87 c 1,0,0
 746.84 952.23 746.84 952.23 786.23 980.59 c 0,0,0
 825.62 1008.95 825.62 1008.95 847.975 1040.65 c 0,0,0
 870.33 1072.35 870.33 1072.35 870.33 1113.05 c 0,0,0
785.69 255.57 m 1,0,0
 707.97 339.32 707.97 339.32 643.765 427.385 c 0,0,0
 579.56 515.45 579.56 515.45 529.2 606.17 c 1,0,0
 378.32 531.77 378.32 531.77 378.32 394.28 c 0,0,0
 378.32 302.54 378.32 302.54 439.195 246.005 c 0,0,0
 500.07 189.47 500.07 189.47 604.81 189.47 c 0,0,0
 667.83 189.47 667.83 189.47 714.225 212.315 c 0,0,0
 760.62 235.16 760.62 235.16 785.69 255.57 c 1,0,0
EndSplineSet
EndChar

StartChar: quotesingle
Encoding: 39 39 10
Width: 518
GlyphClass: 2
Flags: W
LayerCount: 2
Fore
SplineSet
411.69 1409 m 1,0,0
 383.04 875.56 l 1,0,0
 138.3 875.56 l 1,0,0
 110.65 1409 l 1,0,0
 411.69 1409 l 1,0,0
EndSplineSet
EndChar

StartChar: parenleft
Encoding: 40 40 11
Width: 682
GlyphClass: 2
Flags: W
LayerCount: 2
Fore
SplineSet
366.99 -425.33 m 1,0,0
 270.25 -269.38 270.25 -269.38 209.53 -120.385 c 0,0,0
 148.81 28.61 148.81 28.61 121.28 188.125 c 0,0,0
 93.75 347.64 93.75 347.64 93.75 531.99 c 0,0,0
 93.75 715.02 93.75 715.02 121.115 873.705 c 0,0,0
 148.48 1032.39 148.48 1032.39 209.2 1180.72 c 0,0,0
 269.92 1329.05 269.92 1329.05 366.99 1484 c 1,0,0
 683.3 1484 l 1,0,0
 534.87 1249.4 534.87 1249.4 468.65 1026.04 c 0,0,0
 402.43 802.68 402.43 802.68 402.43 530 c 0,0,0
 402.43 348.66 402.43 348.66 431.12 191.64 c 0,0,0
 459.81 34.62 459.81 34.62 521.855 -114.88 c 0,0,0
 583.9 -264.38 583.9 -264.38 683.3 -425.33 c 1,0,0
 366.99 -425.33 l 1,0,0
EndSplineSet
EndChar

StartChar: parenright
Encoding: 41 41 12
Width: 682
GlyphClass: 2
Flags: W
LayerCount: 2
Fore
SplineSet
-1.3 -425.33 m 1,0,0
 99.43 -264.05 99.43 -264.05 160.81 -114.55 c 0,0,0
 222.19 34.95 222.19 34.95 250.88 192.135 c 0,0,0
 279.57 349.32 279.57 349.32 279.57 530 c 0,0,0
 279.57 803.68 279.57 803.68 212.685 1028.035 c 0,0,0
 145.8 1252.39 145.8 1252.39 -1.3 1484 c 1,0,0
 315.01 1484 l 1,0,0
 414.41 1328.05 414.41 1328.05 473.965 1178.39 c 0,0,0
 533.52 1028.73 533.52 1028.73 560.885 870.38 c 0,0,0
 588.25 712.03 588.25 712.03 588.25 530.67 c 0,0,0
 588.25 348.64 588.25 348.64 560.885 190.12 c 0,0,0
 533.52 31.6 533.52 31.6 473.965 -118.225 c 0,0,0
 414.41 -268.05 414.41 -268.05 315.01 -425.33 c 1,0,0
 -1.3 -425.33 l 1,0,0
EndSplineSet
EndChar

StartChar: asterisk
Encoding: 42 42 13
Width: 797
GlyphClass: 2
Flags: W
LayerCount: 2
Fore
SplineSet
751.79 769.98 m 1,0,0
 546.34 632.81 l 1,0,0
 401.66 882.83 l 1,0,0
 254.97 632.15 l 1,0,0
 46.86 771.98 l 1,0,0
 237.19 970.77 l 1,0,0
 -2.91 1027.81 l 1,0,0
 72.68 1245.6 l 1,0,0
 302.44 1142.59 l 1,0,0
 282.46 1409 l 1,0,0
 523.53 1409 l 1,0,0
 503.88 1141.93 l 1,0,0
 729.31 1246.26 l 1,0,0
 804.9 1027.81 l 1,0,0
 565.46 970.77 l 1,0,0
 751.79 769.98 l 1,0,0
EndSplineSet
EndChar

StartChar: plus
Encoding: 43 43 14
Width: 1196
GlyphClass: 2
Flags: W
LayerCount: 2
Fore
SplineSet
724.2 556.13 m 1,0,0
 724.2 154.73 l 1,0,0
 472.13 154.73 l 1,0,0
 472.13 556.13 l 1,0,0
 81.38 556.13 l 1,0,0
 81.38 805.87 l 1,0,0
 472.13 805.87 l 1,0,0
 472.13 1207.27 l 1,0,0
 724.2 1207.27 l 1,0,0
 724.2 805.87 l 1,0,0
 1118.94 805.87 l 1,0,0
 1118.94 556.13 l 1,0,0
 724.2 556.13 l 1,0,0
EndSplineSet
EndChar

StartChar: comma
Encoding: 44 44 15
Width: 569
GlyphClass: 2
Flags: W
LayerCount: 2
Fore
SplineSet
447.51 70.95 m 2,0,0
 447.51 -53.67 447.51 -53.67 419.865 -152.6 c 0,0,0
 392.22 -251.53 392.22 -251.53 329.61 -335.15 c 1,0,0
 124.15 -335.15 l 1,0,0
 187.11 -263.16 187.11 -263.16 228.565 -171.725 c 0,0,0
 270.02 -80.29 270.02 -80.29 270.02 0 c 1,0,0
 127.49 0 l 1,0,0
 127.49 333.38 l 1,0,0
 447.51 333.38 l 1,0,0
 447.51 70.95 l 2,0,0
EndSplineSet
EndChar

StartChar: hyphen
Encoding: 45 45 16
Width: 682
GlyphClass: 2
Flags: W
LayerCount: 2
Fore
SplineSet
602.97 662.57 m 1,0,0
 602.97 390.85 l 1,0,0
 76.37 390.85 l 1,0,0
 76.37 662.57 l 1,0,0
 602.97 662.57 l 1,0,0
EndSplineSet
EndChar

StartChar: period
Encoding: 46 46 17
Width: 569
GlyphClass: 2
Flags: W
LayerCount: 2
Fore
SplineSet
443.18 333.38 m 1,0,0
 443.18 0 l 1,0,0
 123.16 0 l 1,0,0
 123.16 333.38 l 1,0,0
 443.18 333.38 l 1,0,0
EndSplineSet
EndChar

StartChar: slash
Encoding: 47 47 18
Width: 569
GlyphClass: 2
Flags: W
LayerCount: 2
Fore
SplineSet
542.4 1484 m 1,0,0
 296.33 -47.93 l 1,0,0
 26.6 -47.93 l 1,0,0
 278 1484 l 1,0,0
 542.4 1484 l 1,0,0
EndSplineSet
EndChar

StartChar: zero
Encoding: 48 48 19
Width: 1139
GlyphClass: 2
Flags: W
LayerCount: 2
Fore
SplineSet
1053.68 705 m 0,0,0
 1053.68 346.68 1053.68 346.68 931.84 163.34 c 0,0,0
 810 -20 810 -20 564.34 -20 c 0,0,0
 322.67 -20 322.67 -20 202 160.345 c 0,0,0
 81.33 340.69 81.33 340.69 81.33 705 c 0,0,0
 81.33 1078.64 81.33 1078.64 195.84 1254.32 c 0,0,0
 310.35 1430 310.35 1430 573 1430 c 0,0,0
 823.33 1430 823.33 1430 938.505 1249.66 c 0,0,0
 1053.68 1069.32 1053.68 1069.32 1053.68 705 c 0,0,0
739.01 705 m 0,0,0
 739.01 890.38 739.01 890.38 726.465 995.27 c 0,0,0
 713.92 1100.16 713.92 1100.16 677.51 1142.87 c 0,0,0
 641.1 1185.58 641.1 1185.58 570.34 1185.58 c 0,0,0
 493.59 1185.58 493.59 1185.58 455.845 1141.875 c 0,0,0
 418.1 1098.17 418.1 1098.17 406.55 993.28 c 0,0,0
 395 888.39 395 888.39 395 705 c 0,0,0
 395 519.63 395 519.63 407.55 414.905 c 0,0,0
 420.1 310.18 420.1 310.18 456.845 267.8 c 0,0,0
 493.59 225.42 493.59 225.42 566.34 225.42 c 0,0,0
 673.47 225.42 673.47 225.42 706.24 332.84 c 0,0,0
 739.01 440.26 739.01 440.26 739.01 705 c 0,0,0
EndSplineSet
EndChar

StartChar: one
Encoding: 49 49 20
Width: 1139
GlyphClass: 2
Flags: W
LayerCount: 2
Fore
SplineSet
1096.19 227.48 m 1,0,0
 1096.19 0 l 1,0,0
 120.09 0 l 1,0,0
 120.09 227.48 l 1,0,0
 465.79 227.48 l 1,0,0
 465.79 1147.89 l 1,0,0
 121.19 942.17 l 1,0,0
 121.19 1180 l 1,0,0
 480.79 1409 l 1,0,0
 779.79 1409 l 1,0,0
 779.79 227.48 l 1,0,0
 1096.19 227.48 l 1,0,0
EndSplineSet
EndChar

StartChar: two
Encoding: 50 50 21
Width: 1139
GlyphClass: 2
Flags: W
LayerCount: 2
Fore
SplineSet
1063.93 256.74 m 1,0,0
 1063.93 0 l 1,0,0
 60.44 0 l 1,0,0
 60.44 217.44 l 1,0,0
 92.82 286.56 92.82 286.56 144.705 359.935 c 0,0,0
 196.59 433.31 196.59 433.31 275.265 513.955 c 0,0,0
 353.94 594.6 353.94 594.6 451.18 674.35 c 0,0,0
 548.42 754.1 548.42 754.1 605.865 809.705 c 0,0,0
 663.31 865.31 663.31 865.31 686.705 901.835 c 0,0,0
 710.1 938.36 710.1 938.36 717.015 967.125 c 0,0,0
 723.93 995.89 723.93 995.89 723.93 1016.72 c 0,0,0
 723.93 1100.8 723.93 1100.8 684.525 1140.86 c 0,0,0
 645.12 1180.92 645.12 1180.92 562.69 1180.92 c 0,0,0
 480.94 1180.92 480.94 1180.92 442.35 1137.04 c 0,0,0
 403.76 1093.16 403.76 1093.16 389.43 1001.44 c 1,0,0
 73.76 1017.11 l 1,0,0
 99.08 1222.02 99.08 1222.02 221.25 1326.01 c 0,0,0
 343.42 1430 343.42 1430 560.03 1430 c 0,0,0
 792.98 1430 792.98 1430 917.455 1324.845 c 0,0,0
 1041.93 1219.69 1041.93 1219.69 1041.93 1030.7 c 0,0,0
 1041.93 916.78 1041.93 916.78 995.785 831.79 c 0,0,0
 949.64 746.8 949.64 746.8 885.495 678.985 c 0,0,0
 821.35 611.17 821.35 611.17 751.015 558.81 c 0,0,0
 680.68 506.45 680.68 506.45 626.375 464.165 c 0,0,0
 572.07 421.88 572.07 421.88 518.035 370.985 c 0,0,0
 464 320.09 464 320.09 436.66 256.74 c 1,0,0
 1063.93 256.74 l 1,0,0
EndSplineSet
EndChar

StartChar: three
Encoding: 51 51 22
Width: 1139
GlyphClass: 2
Flags: W
LayerCount: 2
Fore
SplineSet
1070.28 391.66 m 0,0,0
 1070.28 192.67 1070.28 192.67 938.3 84.34 c 0,0,0
 806.32 -23.99 806.32 -23.99 563.02 -23.99 c 0,0,0
 331.73 -23.99 331.73 -23.99 195.585 83.15 c 0,0,0
 59.44 190.29 59.44 190.29 36.77 389.93 c 1,0,0
 355.77 417.57 l 1,0,0
 379.8 230.08 379.8 230.08 561.69 230.08 c 0,0,0
 651.14 230.08 651.14 230.08 700.045 274.47 c 0,0,0
 748.95 318.86 748.95 318.86 748.95 412.29 c 0,0,0
 748.95 499.36 748.95 499.36 687.715 544.575 c 0,0,0
 626.48 589.79 626.48 589.79 503.37 589.79 c 2,0,0
 406.69 589.79 l 1,0,0
 406.69 840.22 l 1,0,0
 496.71 840.22 l 2,0,0
 608.8 840.22 608.8 840.22 663.035 884.77 c 0,0,0
 717.27 929.32 717.27 929.32 717.27 1014.06 c 0,0,0
 717.27 1092.48 717.27 1092.48 674.71 1136.7 c 0,0,0
 632.15 1180.92 632.15 1180.92 551.69 1180.92 c 0,0,0
 475.25 1180.92 475.25 1180.92 428.35 1137.21 c 0,0,0
 381.45 1093.5 381.45 1093.5 374.77 1013.09 c 1,0,0
 60.77 1035.07 l 1,0,0
 83.43 1220.04 83.43 1220.04 214.245 1325.02 c 0,0,0
 345.06 1430 345.06 1430 557.68 1430 c 0,0,0
 781.65 1430 781.65 1430 908.46 1330.17 c 0,0,0
 1035.27 1230.34 1035.27 1230.34 1035.27 1054.34 c 0,0,0
 1035.27 923.33 1035.27 923.33 957.11 838.165 c 0,0,0
 878.95 753 878.95 753 732.29 725.66 c 1,0,0
 732.29 721.66 l 1,0,0
 895.61 702 895.61 702 982.945 614.995 c 0,0,0
 1070.28 527.99 1070.28 527.99 1070.28 391.66 c 0,0,0
EndSplineSet
EndChar

StartChar: four
Encoding: 52 52 23
Width: 1139
GlyphClass: 2
Flags: W
LayerCount: 2
Fore
SplineSet
959.47 276.44 m 1,0,0
 959.47 0 l 1,0,0
 659.13 0 l 1,0,0
 659.13 276.44 l 1,0,0
 25.72 276.44 l 1,0,0
 25.72 510.87 l 1,0,0
 604.22 1409 l 1,0,0
 959.47 1409 l 1,0,0
 959.47 507.55 l 1,0,0
 1144.17 507.55 l 1,0,0
 1144.17 276.44 l 1,0,0
 959.47 276.44 l 1,0,0
275.51 507.55 m 1,0,0
 659.13 507.55 l 1,0,0
 659.13 935.22 l 2,0,0
 659.13 991.86 659.13 991.86 663.62 1060.635 c 0,0,0
 668.11 1129.41 668.11 1129.41 669.78 1138.17 c 1,0,0
 660.08 1115.45 660.08 1115.45 634.435 1070.66 c 0,0,0
 608.79 1025.87 608.79 1025.87 568.19 961.98 c 2,0,0
 275.51 507.55 l 1,0,0
EndSplineSet
EndChar

StartChar: five
Encoding: 53 53 24
Width: 1139
GlyphClass: 2
Flags: W
LayerCount: 2
Fore
SplineSet
1091.57 472.3 m 0,0,0
 1091.57 247.97 1091.57 247.97 949.76 113.985 c 0,0,0
 807.95 -20 807.95 -20 562.31 -20 c 0,0,0
 345.36 -20 345.36 -20 215.715 78.635 c 0,0,0
 86.07 177.27 86.07 177.27 56.73 364.21 c 1,0,0
 370.4 387.87 l 1,0,0
 390.09 302.49 390.09 302.49 440.48 265.285 c 0,0,0
 490.87 228.08 490.87 228.08 564.98 228.08 c 0,0,0
 656.78 228.08 656.78 228.08 712.845 288.315 c 0,0,0
 768.91 348.55 768.91 348.55 768.91 465.64 c 0,0,0
 768.91 569.38 768.91 569.38 717.665 630.765 c 0,0,0
 666.42 692.15 666.42 692.15 571.64 692.15 c 0,0,0
 518.59 692.15 518.59 692.15 475.54 669.815 c 0,0,0
 432.49 647.48 432.49 647.48 404.07 604.45 c 1,0,0
 97.73 604.45 l 1,0,0
 147.39 1409 l 1,0,0
 1009.57 1409 l 1,0,0
 1009.57 1181.52 l 1,0,0
 432.42 1181.52 l 1,0,0
 410.74 855.55 l 1,0,0
 507.79 945.55 507.79 945.55 653.86 945.55 c 0,0,0
 786.21 945.55 786.21 945.55 884.885 888.72 c 0,0,0
 983.56 831.89 983.56 831.89 1037.565 726.24 c 0,0,0
 1091.57 620.59 1091.57 620.59 1091.57 472.3 c 0,0,0
EndSplineSet
EndChar

StartChar: six
Encoding: 54 54 25
Width: 1139
GlyphClass: 2
Flags: W
LayerCount: 2
Fore
SplineSet
1070.28 461 m 0,0,0
 1070.28 235.34 1070.28 235.34 942.63 107.67 c 0,0,0
 814.98 -20 814.98 -20 590.01 -20 c 0,0,0
 337.38 -20 337.38 -20 201.405 153.675 c 0,0,0
 65.43 327.35 65.43 327.35 65.43 672 c 0,0,0
 65.43 1052.63 65.43 1052.63 202.415 1241.315 c 0,0,0
 339.4 1430 339.4 1430 594.7 1430 c 0,0,0
 779.97 1430 779.97 1430 884.46 1348.69 c 0,0,0
 988.95 1267.38 988.95 1267.38 1032.61 1093.79 c 1,0,0
 736.92 1054.81 l 1,0,0
 704.87 1182.92 704.87 1182.92 587.38 1182.92 c 0,0,0
 487.91 1182.92 487.91 1182.92 430.01 1079.985 c 0,0,0
 372.11 977.05 372.11 977.05 372.11 760.91 c 1,0,0
 415.79 830.63 415.79 830.63 492.82 868.155 c 0,0,0
 569.85 905.68 569.85 905.68 666.23 905.68 c 0,0,0
 853.25 905.68 853.25 905.68 961.765 786.34 c 0,0,0
 1070.28 667 1070.28 667 1070.28 461 c 0,0,0
755.61 453 m 0,0,0
 755.61 562.11 755.61 562.11 706.545 619.175 c 0,0,0
 657.48 676.24 657.48 676.24 572.69 676.24 c 0,0,0
 490.58 676.24 490.58 676.24 441.675 621.36 c 0,0,0
 392.77 566.48 392.77 566.48 392.77 478.71 c 0,0,0
 392.77 405.29 392.77 405.29 415.805 347.89 c 0,0,0
 438.84 290.49 438.84 290.49 481.395 256.955 c 0,0,0
 523.95 223.42 523.95 223.42 580.02 223.42 c 0,0,0
 663.47 223.42 663.47 223.42 709.54 284.32 c 0,0,0
 755.61 345.22 755.61 345.22 755.61 453 c 0,0,0
EndSplineSet
EndChar

StartChar: seven
Encoding: 55 55 26
Width: 1139
GlyphClass: 2
Flags: W
LayerCount: 2
Fore
SplineSet
1053.29 1160.59 m 1,0,0
 962.58 1015.54 962.58 1015.54 875.44 871.245 c 0,0,0
 788.3 726.95 788.3 726.95 719.03 567.78 c 0,0,0
 664.61 440.63 664.61 440.63 630.75 299.86 c 0,0,0
 596.89 159.09 596.89 159.09 596.89 0 c 1,0,0
 269.24 0 l 1,0,0
 269.24 167.93 269.24 167.93 306.22 312.43 c 0,0,0
 343.2 456.93 343.2 456.93 423.16 617.26 c 0,0,0
 469.86 706.41 469.86 706.41 548.395 830.015 c 0,0,0
 626.93 953.62 626.93 953.62 763.58 1152.26 c 1,0,0
 82.39 1152.26 l 1,0,0
 82.39 1409 l 1,0,0
 1053.29 1409 l 1,0,0
 1053.29 1160.59 l 1,0,0
EndSplineSet
EndChar

StartChar: eight
Encoding: 56 56 27
Width: 1139
GlyphClass: 2
Flags: W
LayerCount: 2
Fore
SplineSet
1084.58 398.32 m 0,0,0
 1084.58 199.33 1084.58 199.33 951.27 89.665 c 0,0,0
 817.96 -20 817.96 -20 571.33 -20 c 0,0,0
 325.38 -20 325.38 -20 191.23 89.66 c 0,0,0
 57.08 199.32 57.08 199.32 57.08 396.32 c 0,0,0
 57.08 530.33 57.08 530.33 134.75 622.335 c 0,0,0
 212.42 714.34 212.42 714.34 346.06 737 c 1,0,0
 346.06 741 l 1,0,0
 232.39 765.34 232.39 765.34 161.235 852.68 c 0,0,0
 90.08 940.02 90.08 940.02 90.08 1053.04 c 0,0,0
 90.08 1230 90.08 1230 213.24 1330 c 0,0,0
 336.4 1430 336.4 1430 567.33 1430 c 0,0,0
 803.26 1430 803.26 1430 926.42 1332.665 c 0,0,0
 1049.58 1235.33 1049.58 1235.33 1049.58 1051.04 c 0,0,0
 1049.58 938.02 1049.58 938.02 979.255 852.01 c 0,0,0
 908.93 766 908.93 766 791.6 743 c 1,0,0
 791.6 739 l 1,0,0
 927.93 717 927.93 717 1006.255 628.49 c 0,0,0
 1084.58 539.98 1084.58 539.98 1084.58 398.32 c 0,0,0
726.92 1034.39 m 0,0,0
 726.92 1212.21 726.92 1212.21 567.33 1212.21 c 0,0,0
 411.07 1212.21 411.07 1212.21 411.07 1034.39 c 0,0,0
 411.07 939.99 411.07 939.99 449.645 893.78 c 0,0,0
 488.22 847.57 488.22 847.57 569.33 847.57 c 0,0,0
 649.78 847.57 649.78 847.57 688.35 890.775 c 0,0,0
 726.92 933.98 726.92 933.98 726.92 1034.39 c 0,0,0
759.26 423.3 m 0,0,0
 759.26 526.37 759.26 526.37 711.85 578.24 c 0,0,0
 664.44 630.11 664.44 630.11 564.67 630.11 c 0,0,0
 474.22 630.11 474.22 630.11 427.145 576.565 c 0,0,0
 380.07 523.02 380.07 523.02 380.07 419.3 c 0,0,0
 380.07 302.23 380.07 302.23 427.305 250.51 c 0,0,0
 474.54 198.79 474.54 198.79 573.33 198.79 c 0,0,0
 669.79 198.79 669.79 198.79 714.525 251.335 c 0,0,0
 759.26 303.88 759.26 303.88 759.26 423.3 c 0,0,0
EndSplineSet
EndChar

StartChar: nine
Encoding: 57 57 28
Width: 1139
GlyphClass: 2
Flags: W
LayerCount: 2
Fore
SplineSet
1069.93 725.02 m 0,0,0
 1069.93 346.06 1069.93 346.06 931.445 163.03 c 0,0,0
 792.96 -20 792.96 -20 538.65 -20 c 0,0,0
 345.72 -20 345.72 -20 238.24 62.8 c 0,0,0
 130.76 145.6 130.76 145.6 86.43 323.21 c 1,0,0
 380.79 363.51 l 1,0,0
 414.84 226.08 414.84 226.08 541.65 226.08 c 0,0,0
 647.44 226.08 647.44 226.08 703.845 328.85 c 0,0,0
 760.25 431.62 760.25 431.62 761.59 638.77 c 1,0,0
 724.25 568.72 724.25 568.72 641.215 530.18 c 0,0,0
 558.18 491.64 558.18 491.64 463.46 491.64 c 0,0,0
 340.12 491.64 340.12 491.64 250.11 548.645 c 0,0,0
 160.1 605.65 160.1 605.65 111.425 709.99 c 0,0,0
 62.75 814.33 62.75 814.33 62.75 958.66 c 0,0,0
 62.75 1180.99 62.75 1180.99 192.735 1305.495 c 0,0,0
 322.72 1430 322.72 1430 562.34 1430 c 0,0,0
 821.28 1430 821.28 1430 945.605 1254.005 c 0,0,0
 1069.93 1078.01 1069.93 1078.01 1069.93 725.02 c 0,0,0
739.6 929.61 m 0,0,0
 739.6 1047.74 739.6 1047.74 688.865 1116.66 c 0,0,0
 638.13 1185.58 638.13 1185.58 555.01 1185.58 c 0,0,0
 474.22 1185.58 474.22 1185.58 427.815 1125.01 c 0,0,0
 381.41 1064.44 381.41 1064.44 381.41 956 c 0,0,0
 381.41 851.21 381.41 851.21 427.15 786.98 c 0,0,0
 472.89 722.75 472.89 722.75 557 722.75 c 0,0,0
 611.06 722.75 611.06 722.75 651.955 748.11 c 0,0,0
 692.85 773.47 692.85 773.47 716.225 820.015 c 0,0,0
 739.6 866.56 739.6 866.56 739.6 929.61 c 0,0,0
EndSplineSet
EndChar

StartChar: colon
Encoding: 58 58 29
Width: 719
GlyphClass: 2
Flags: W
LayerCount: 2
Fore
SplineSet
518.99 1018.16 m 1,0,0
 518.99 711.41 l 1,0,0
 200.3 711.41 l 1,0,0
 200.3 1018.16 l 1,0,0
 518.99 1018.16 l 1,0,0
518.99 305.42 m 1,0,0
 518.99 0 l 1,0,0
 200.3 0 l 1,0,0
 200.3 305.42 l 1,0,0
 518.99 305.42 l 1,0,0
EndSplineSet
EndChar

StartChar: semicolon
Encoding: 59 59 30
Width: 719
GlyphClass: 2
Flags: W
LayerCount: 2
Fore
SplineSet
520.66 1018.16 m 1,0,0
 520.66 711.41 l 1,0,0
 201.97 711.41 l 1,0,0
 201.97 1018.16 l 1,0,0
 520.66 1018.16 l 1,0,0
520.66 70.95 m 2,0,0
 520.66 -53.67 520.66 -53.67 493.015 -152.6 c 0,0,0
 465.37 -251.53 465.37 -251.53 402.76 -335.15 c 1,0,0
 198.63 -335.15 l 1,0,0
 268.24 -249.86 268.24 -249.86 306.37 -161.75 c 0,0,0
 344.5 -73.64 344.5 -73.64 344.5 0 c 1,0,0
 201.97 0 l 1,0,0
 201.97 305.42 l 1,0,0
 520.66 305.42 l 1,0,0
 520.66 70.95 l 2,0,0
EndSplineSet
EndChar

StartChar: less
Encoding: 60 60 31
Width: 1196
GlyphClass: 2
Flags: W
LayerCount: 2
Fore
SplineSet
1118.61 366.85 m 1,0,0
 1118.61 115.43 l 1,0,0
 81.05 497.85 l 1,0,0
 81.05 858.46 l 1,0,0
 1118.61 1240.55 l 1,0,0
 1118.61 988.13 l 1,0,0
 293.86 676.66 l 1,0,0
 1118.61 366.85 l 1,0,0
EndSplineSet
EndChar

StartChar: equal
Encoding: 61 61 32
Width: 1196
GlyphClass: 2
Flags: W
LayerCount: 2
Fore
SplineSet
1117.61 1085.13 m 1,0,0
 1117.61 837.38 l 1,0,0
 80.05 837.38 l 1,0,0
 80.05 1085.13 l 1,0,0
 1117.61 1085.13 l 1,0,0
1117.61 518.6 m 1,0,0
 1117.61 273.51 l 1,0,0
 80.05 273.51 l 1,0,0
 80.05 518.6 l 1,0,0
 1117.61 518.6 l 1,0,0
EndSplineSet
EndChar

StartChar: greater
Encoding: 62 62 33
Width: 1196
GlyphClass: 2
Flags: W
LayerCount: 2
Fore
SplineSet
1118.61 497.85 m 1,0,0
 81.05 115.43 l 1,0,0
 81.05 366.85 l 1,0,0
 904.47 676.66 l 1,0,0
 81.05 988.13 l 1,0,0
 81.05 1240.55 l 1,0,0
 1118.61 858.46 l 1,0,0
 1118.61 497.85 l 1,0,0
EndSplineSet
EndChar

StartChar: question
Encoding: 63 63 34
Width: 1287
GlyphClass: 2
Flags: W
LayerCount: 2
Fore
SplineSet
1156.1 1024.02 m 0,0,0
 1156.1 932.3 1156.1 932.3 1114.25 855.96 c 0,0,0
 1072.4 779.62 1072.4 779.62 954.39 696.27 c 2,0,0
 879.71 642.59 l 2,0,0
 751.01 551.23 751.01 551.23 743.36 442.17 c 1,0,0
 446 442.17 l 1,0,0
 450.33 502.25 450.33 502.25 471.525 558.6 c 0,0,0
 492.72 614.95 492.72 614.95 536.735 668.095 c 0,0,0
 580.75 721.24 580.75 721.24 651.04 769.88 c 0,0,0
 727.99 822.85 727.99 822.85 768.345 863.515 c 0,0,0
 808.7 904.18 808.7 904.18 824.235 939.555 c 0,0,0
 839.77 974.93 839.77 974.93 839.77 1010.7 c 0,0,0
 839.77 1090.12 839.77 1090.12 788.87 1136.17 c 0,0,0
 737.97 1182.22 737.97 1182.22 643.19 1182.22 c 0,0,0
 555.06 1182.22 555.06 1182.22 491.015 1126.85 c 0,0,0
 426.97 1071.48 426.97 1071.48 415.63 982.73 c 1,0,0
 97.3 994.73 l 1,0,0
 124.63 1199.38 124.63 1199.38 267.93 1314.69 c 0,0,0
 411.23 1430 411.23 1430 638.53 1430 c 0,0,0
 880.15 1430 880.15 1430 1018.125 1321.84 c 0,0,0
 1156.1 1213.68 1156.1 1213.68 1156.1 1024.02 c 0,0,0
758.02 292.77 m 1,0,0
 758.02 0 l 1,0,0
 438 0 l 1,0,0
 438 292.77 l 1,0,0
 758.02 292.77 l 1,0,0
EndSplineSet
EndChar

StartChar: at
Encoding: 64 64 35
Width: 1969
GlyphClass: 2
Flags: W
LayerCount: 2
Fore
SplineSet
1870.08 715.1 m 0,0,0
 1870.08 534.42 1870.08 534.42 1805.1 384.42 c 0,0,0
 1739.12 234.75 1739.12 234.75 1623.985 149.425 c 0,0,0
 1508.85 64.1 1508.85 64.1 1377.86 64.1 c 0,0,0
 1288.17 64.1 1288.17 64.1 1240.155 110.095 c 0,0,0
 1192.14 156.09 1192.14 156.09 1192.14 234.78 c 0,0,0
 1191.81 254.44 1191.81 254.44 1193.64 270.445 c 0,0,0
 1195.47 286.45 1195.47 286.45 1199.13 300.79 c 1,0,0
 1193.13 300.79 l 1,0,0
 1148.41 201.73 1148.41 201.73 1049.58 132.915 c 0,0,0
 950.75 64.1 950.75 64.1 851.05 64.1 c 0,0,0
 694.05 64.1 694.05 64.1 607.55 165.435 c 0,0,0
 521.05 266.77 521.05 266.77 521.05 449.1 c 0,0,0
 521.05 610.77 521.05 610.77 586.05 755.43 c 0,0,0
 651.05 899.09 651.05 899.09 764.555 980.095 c 0,0,0
 878.06 1061.1 878.06 1061.1 1020.39 1061.1 c 0,0,0
 1207.8 1061.1 1207.8 1061.1 1272.18 889.74 c 1,0,0
 1278.18 889.74 l 1,0,0
 1317.18 1039.1 l 1,0,0
 1473.18 1039.1 l 1,0,0
 1355.85 533.1 l 2,0,0
 1318.85 360.13 1318.85 360.13 1318.85 297.39 c 0,0,0
 1318.85 246.4 1318.85 246.4 1343.34 226.225 c 0,0,0
 1367.83 206.05 1367.83 206.05 1395.86 206.05 c 0,0,0
 1475.53 206.05 1475.53 206.05 1550.51 276.38 c 0,0,0
 1625.16 345.38 1625.16 345.38 1668.98 460.395 c 0,0,0
 1712.8 575.41 1712.8 575.41 1712.8 713.1 c 0,0,0
 1712.8 888.44 1712.8 888.44 1637.13 1020.46 c 0,0,0
 1561.46 1153.14 1561.46 1153.14 1417.125 1225.645 c 0,0,0
 1272.79 1298.15 1272.79 1298.15 1082.78 1298.15 c 0,0,0
 843.11 1298.15 843.11 1298.15 661.43 1193.81 c 0,0,0
 479.42 1089.47 479.42 1089.47 375.415 892.625 c 0,0,0
 271.41 695.78 271.41 695.78 271.41 451.1 c 0,0,0
 271.41 257.1 271.41 257.1 351.74 108.44 c 0,0,0
 432.4 -39.56 432.4 -39.56 574.25 -113.905 c 0,0,0
 716.1 -188.25 716.1 -188.25 908.78 -188.25 c 0,0,0
 1056.44 -188.25 1056.44 -188.25 1202.78 -148.755 c 0,0,0
 1349.12 -109.26 1349.12 -109.26 1493.16 -35.56 c 1,0,0
 1557.47 -160.86 l 1,0,0
 1381.88 -258.5 1381.88 -258.5 1224.35 -298.015 c 0,0,0
 1066.82 -337.53 1066.82 -337.53 899.47 -337.53 c 0,0,0
 665.12 -337.53 665.12 -337.53 486.45 -241.53 c 0,0,0
 306.78 -146.53 306.78 -146.53 204.63 35.29 c 0,0,0
 102.48 217.11 102.48 217.11 102.48 451.1 c 0,0,0
 102.48 735.42 102.48 735.42 230.14 964.09 c 0,0,0
 356.47 1193.09 356.47 1193.09 580.295 1318.595 c 0,0,0
 804.12 1444.1 804.12 1444.1 1080.78 1444.1 c 0,0,0
 1324.44 1444.1 1324.44 1444.1 1503.43 1354.1 c 0,0,0
 1682.42 1263.1 1682.42 1263.1 1776.25 1098.1 c 0,0,0
 1870.08 933.1 1870.08 933.1 1870.08 715.1 c 0,0,0
1209.55 712.42 m 0,0,0
 1209.55 805.11 1209.55 805.11 1152.195 864.285 c 0,0,0
 1094.84 923.46 1094.84 923.46 1006.12 923.46 c 0,0,0
 914.43 923.46 914.43 923.46 842.08 862.12 c 0,0,0
 768.07 799.12 768.07 799.12 727.725 683.96 c 0,0,0
 687.38 568.8 687.38 568.8 687.38 451.1 c 0,0,0
 687.38 339.08 687.38 339.08 736.21 273.74 c 0,0,0
 785.04 208.4 785.04 208.4 885.37 208.4 c 0,0,0
 947.41 208.4 947.41 208.4 1006.94 250.735 c 0,0,0
 1066.47 293.07 1066.47 293.07 1113.49 374.05 c 0,0,0
 1144.51 427.38 1144.51 427.38 1165.69 491.055 c 0,0,0
 1186.87 554.73 1186.87 554.73 1198.21 613.575 c 0,0,0
 1209.55 672.42 1209.55 672.42 1209.55 712.42 c 0,0,0
EndSplineSet
EndChar

StartChar: A
Encoding: 65 65 36
Width: 1516
GlyphClass: 2
Flags: W
LayerCount: 2
Fore
SplineSet
506.31 342.84 m 1,0,0
 393.52 0 l 1,0,0
 66.51 0 l 1,0,0
 560.38 1409 l 1,0,0
 951.61 1409 l 1,0,0
 1445.79 0 l 1,0,0
 1121.78 0 l 1,0,0
 1008.66 342.84 l 1,0,0
 506.31 342.84 l 1,0,0
756.82 1167.91 m 1,0,0
 749.13 1133.19 749.13 1133.19 732.945 1081.315 c 0,0,0
 716.76 1029.44 716.76 1029.44 712.72 1016.01 c 2,0,0
 574.95 588.93 l 1,0,0
 939.69 588.93 l 1,0,0
 797.26 1026 l 2,0,0
 783.26 1068.98 783.26 1068.98 774.89 1103.72 c 0,0,0
 766.52 1138.46 766.52 1138.46 756.82 1167.91 c 1,0,0
EndSplineSet
EndChar

StartChar: B
Encoding: 66 66 37
Width: 1516
GlyphClass: 2
Flags: W
LayerCount: 2
Fore
SplineSet
1428.24 403.65 m 0,0,0
 1428.24 210.33 1428.24 210.33 1281.93 105.165 c 0,0,0
 1135.62 0 1135.62 0 875.66 0 c 2,0,0
 126.77 0 l 1,0,0
 126.77 1409 l 1,0,0
 815.66 1409 l 2,0,0
 1076.96 1409 1076.96 1409 1212.265 1318.18 c 0,0,0
 1347.57 1227.36 1347.57 1227.36 1347.57 1051.04 c 0,0,0
 1347.57 932.69 1347.57 932.69 1282.225 851.015 c 0,0,0
 1216.88 769.34 1216.88 769.34 1078.24 740.34 c 1,0,0
 1250.23 720.34 1250.23 720.34 1339.235 634.49 c 0,0,0
 1428.24 548.64 1428.24 548.64 1428.24 403.65 c 0,0,0
1015.92 1005.43 m 0,0,0
 1015.92 1094.16 1015.92 1094.16 961.195 1131.19 c 0,0,0
 906.47 1168.22 906.47 1168.22 797.04 1168.22 c 2,0,0
 456.09 1168.22 l 1,0,0
 456.09 851.23 l 1,0,0
 799.7 851.23 l 2,0,0
 915.46 851.23 915.46 851.23 965.69 890.11 c 0,0,0
 1015.92 928.99 1015.92 928.99 1015.92 1005.43 c 0,0,0
1098.25 429.29 m 0,0,0
 1098.25 610.46 1098.25 610.46 836.03 610.46 c 2,0,0
 456.09 610.46 l 1,0,0
 456.09 240.78 l 1,0,0
 845.71 240.78 l 2,0,0
 976.82 240.78 976.82 240.78 1037.535 287.825 c 0,0,0
 1098.25 334.87 1098.25 334.87 1098.25 429.29 c 0,0,0
EndSplineSet
EndChar

StartChar: C
Encoding: 67 67 38
Width: 1479
GlyphClass: 2
Flags: W
LayerCount: 2
Fore
SplineSet
793.35 236.75 m 0,0,0
 1052.11 236.75 1052.11 236.75 1139.93 496.5 c 1,0,0
 1430.26 393.23 l 1,0,0
 1348.58 181.97 1348.58 181.97 1187.09 80.985 c 0,0,0
 1025.6 -20 1025.6 -20 796.32 -20 c 0,0,0
 566.36 -20 566.36 -20 405.71 65.675 c 0,0,0
 245.06 151.35 245.06 151.35 161.23 315.185 c 0,0,0
 77.4 479.02 77.4 479.02 77.4 711 c 0,0,0
 77.4 945.31 77.4 945.31 156.74 1104.98 c 0,0,0
 236.08 1264.65 236.08 1264.65 392.74 1347.325 c 0,0,0
 549.4 1430 549.4 1430 779.36 1430 c 0,0,0
 1034.95 1430 1034.95 1430 1192.6 1326.705 c 0,0,0
 1350.25 1223.41 1350.25 1223.41 1410.61 1023.81 c 1,0,0
 1124.54 949.18 l 1,0,0
 1096.82 1049.57 1096.82 1049.57 1004.28 1111.245 c 0,0,0
 911.74 1172.92 911.74 1172.92 786.68 1172.92 c 0,0,0
 597.9 1172.92 597.9 1172.92 503.145 1057.665 c 0,0,0
 408.39 942.41 408.39 942.41 408.39 711 c 0,0,0
 408.39 552.3 408.39 552.3 451.27 447.405 c 0,0,0
 494.15 342.51 494.15 342.51 580.05 289.63 c 0,0,0
 665.95 236.75 665.95 236.75 793.35 236.75 c 0,0,0
EndSplineSet
EndChar

StartChar: D
Encoding: 68 68 39
Width: 1479
GlyphClass: 2
Flags: W
LayerCount: 2
Fore
SplineSet
1396.96 713.68 m 0,0,0
 1396.96 486.69 1396.96 486.69 1309.13 327.02 c 0,0,0
 1221.3 167.35 1221.3 167.35 1066.8 83.675 c 0,0,0
 912.3 0 912.3 0 710.96 0 c 2,0,0
 126.77 0 l 1,0,0
 126.77 1409 l 1,0,0
 651.29 1409 l 2,0,0
 1006.63 1409 1006.63 1409 1201.795 1229.5 c 0,0,0
 1396.96 1050 1396.96 1050 1396.96 713.68 c 0,0,0
1065.31 713.68 m 0,0,0
 1065.31 929.13 1065.31 929.13 955.725 1042.69 c 0,0,0
 846.14 1156.25 846.14 1156.25 644.63 1156.25 c 2,0,0
 456.09 1156.25 l 1,0,0
 456.09 252.75 l 1,0,0
 684.97 252.75 l 2,0,0
 802.07 252.75 802.07 252.75 886.98 309.115 c 0,0,0
 971.89 365.48 971.89 365.48 1018.6 468.54 c 0,0,0
 1065.31 571.6 1065.31 571.6 1065.31 713.68 c 0,0,0
EndSplineSet
EndChar

StartChar: E
Encoding: 69 69 40
Width: 1366
GlyphClass: 2
Flags: W
LayerCount: 2
Fore
SplineSet
1288.64 251.76 m 1,0,0
 1288.64 0 l 1,0,0
 126.77 0 l 1,0,0
 126.77 1409 l 1,0,0
 1247.64 1409 l 1,0,0
 1247.64 1157.24 l 1,0,0
 456.09 1157.24 l 1,0,0
 456.09 835.58 l 1,0,0
 1186.31 835.58 l 1,0,0
 1186.31 583.16 l 1,0,0
 456.09 583.16 l 1,0,0
 456.09 251.76 l 1,0,0
 1288.64 251.76 l 1,0,0
EndSplineSet
EndChar

StartChar: F
Encoding: 70 70 41
Width: 1251
GlyphClass: 2
Flags: W
LayerCount: 2
Fore
SplineSet
456.09 499.18 m 1,0,0
 456.09 0 l 1,0,0
 126.77 0 l 1,0,0
 126.77 1409 l 1,0,0
 1178.31 1409 l 1,0,0
 1178.31 1157.24 l 1,0,0
 456.09 1157.24 l 1,0,0
 456.09 750.28 l 1,0,0
 1155.64 750.28 l 1,0,0
 1155.64 499.18 l 1,0,0
 456.09 499.18 l 1,0,0
EndSplineSet
EndChar

StartChar: G
Encoding: 71 71 42
Width: 1593
GlyphClass: 2
Flags: W
LayerCount: 2
Fore
SplineSet
803.69 236.08 m 0,0,0
 911.1 236.08 911.1 236.08 1015.305 266.775 c 0,0,0
 1119.51 297.47 1119.51 297.47 1173.56 342.87 c 1,0,0
 1173.56 518.4 l 1,0,0
 854.97 518.4 l 1,0,0
 854.97 755.54 l 1,0,0
 1474.58 755.54 l 1,0,0
 1474.58 226.98 l 1,0,0
 1362.58 111.65 1362.58 111.65 1177.47 45.825 c 0,0,0
 992.36 -20 992.36 -20 793.05 -20 c 0,0,0
 561.08 -20 561.08 -20 401.415 64.345 c 0,0,0
 241.75 148.69 241.75 148.69 159.74 311.86 c 0,0,0
 77.73 475.03 77.73 475.03 77.73 711 c 0,0,0
 77.73 1060.65 77.73 1060.65 264.39 1245.325 c 0,0,0
 451.05 1430 451.05 1430 805.33 1430 c 0,0,0
 1057.95 1430 1057.95 1430 1219.91 1334.375 c 0,0,0
 1381.87 1238.75 1381.87 1238.75 1444.91 1051.45 c 1,0,0
 1143.21 960.21 l 1,0,0
 1104.49 1062.92 1104.49 1062.92 1014.285 1117.92 c 0,0,0
 924.08 1172.92 924.08 1172.92 806.98 1172.92 c 0,0,0
 610.86 1172.92 610.86 1172.92 509.79 1054.015 c 0,0,0
 408.72 935.11 408.72 935.11 408.72 711 c 0,0,0
 408.72 481.24 408.72 481.24 511.805 358.66 c 0,0,0
 614.89 236.08 614.89 236.08 803.69 236.08 c 0,0,0
EndSplineSet
EndChar

StartChar: H
Encoding: 72 72 43
Width: 1479
GlyphClass: 2
Flags: W
LayerCount: 2
Fore
SplineSet
456.09 587.83 m 1,0,0
 456.09 0 l 1,0,0
 126.77 0 l 1,0,0
 126.77 1409 l 1,0,0
 456.09 1409 l 1,0,0
 456.09 859.55 l 1,0,0
 1021.25 859.55 l 1,0,0
 1021.25 1409 l 1,0,0
 1350.57 1409 l 1,0,0
 1350.57 0 l 1,0,0
 1021.25 0 l 1,0,0
 1021.25 587.83 l 1,0,0
 456.09 587.83 l 1,0,0
EndSplineSet
EndChar

StartChar: I
Encoding: 73 73 44
Width: 569
GlyphClass: 2
Flags: W
LayerCount: 2
Fore
SplineSet
449.16 1409 m 1,0,0
 449.16 0 l 1,0,0
 119.84 0 l 1,0,0
 119.84 1409 l 1,0,0
 449.16 1409 l 1,0,0
EndSplineSet
EndChar

StartChar: J
Encoding: 74 74 45
Width: 1176
GlyphClass: 2
Flags: W
LayerCount: 2
Fore
SplineSet
546.11 -20 m 0,0,0
 313.91 -20 313.91 -20 192.615 75.825 c 0,0,0
 71.32 171.65 71.32 171.65 30.67 392.56 c 1,0,0
 358.65 439.52 l 1,0,0
 376.65 332.83 376.65 332.83 421.03 284.455 c 0,0,0
 465.41 236.08 465.41 236.08 548.44 236.08 c 0,0,0
 631.16 236.08 631.16 236.08 671.875 290.955 c 0,0,0
 712.59 345.83 712.59 345.83 712.59 446.59 c 2,0,0
 712.59 1409 l 1,0,0
 1040.91 1409 l 1,0,0
 1040.91 454.58 l 2,0,0
 1040.91 229.63 1040.91 229.63 911.29 104.815 c 0,0,0
 781.67 -20 781.67 -20 546.11 -20 c 0,0,0
EndSplineSet
EndChar

StartChar: K
Encoding: 75 75 46
Width: 1516
GlyphClass: 2
Flags: W
LayerCount: 2
Fore
SplineSet
456.09 505.42 m 1,0,0
 456.09 0 l 1,0,0
 126.77 0 l 1,0,0
 126.77 1409 l 1,0,0
 456.09 1409 l 1,0,0
 456.09 792.11 l 1,0,0
 1076.57 1409 l 1,0,0
 1459.84 1409 l 1,0,0
 857.18 818.28 l 1,0,0
 1498.61 0 l 1,0,0
 1113.98 0 l 1,0,0
 626.79 636.11 l 1,0,0
 456.09 505.42 l 1,0,0
EndSplineSet
EndChar

StartChar: L
Encoding: 76 76 47
Width: 1287
GlyphClass: 2
Flags: W
LayerCount: 2
Fore
SplineSet
1226.61 251.76 m 1,0,0
 1226.61 0 l 1,0,0
 126.77 0 l 1,0,0
 126.77 1409 l 1,0,0
 456.09 1409 l 1,0,0
 456.09 251.76 l 1,0,0
 1226.61 251.76 l 1,0,0
EndSplineSet
EndChar

StartChar: M
Encoding: 77 77 48
Width: 1706
GlyphClass: 2
Flags: W
LayerCount: 2
Fore
SplineSet
419.13 825.62 m 2,0,0
 419.13 0 l 1,0,0
 126.77 0 l 1,0,0
 126.77 1409 l 1,0,0
 569.29 1409 l 1,0,0
 780.7 683.37 l 2,0,0
 796.71 615.06 796.71 615.06 814.545 548.89 c 0,0,0
 832.38 482.72 832.38 482.72 853.01 404.84 c 1,0,0
 865.66 446.47 865.66 446.47 874.34 480.67 c 0,0,0
 883.02 514.87 883.02 514.87 892.365 550.89 c 0,0,0
 901.71 586.91 901.71 586.91 914.36 631.5 c 2,0,0
 1137.39 1409 l 1,0,0
 1579.23 1409 l 1,0,0
 1579.23 0 l 1,0,0
 1287.53 0 l 1,0,0
 1287.53 825.62 l 2,0,0
 1287.53 838.45 1287.53 838.45 1290.03 930.075 c 0,0,0
 1292.53 1021.7 1292.53 1021.7 1297.86 1134.93 c 1,0,0
 1259.56 986.08 1259.56 986.08 1231.41 884.325 c 0,0,0
 1203.26 782.57 1203.26 782.57 1187.25 728.58 c 2,0,0
 969.55 0 l 1,0,0
 734.47 0 l 1,0,0
 518.42 728.58 l 1,0,0
 405.48 1134.93 l 1,0,0
 412.8 1005.4 412.8 1005.4 415.965 928.405 c 0,0,0
 419.13 851.41 419.13 851.41 419.13 825.62 c 2,0,0
EndSplineSet
EndChar

StartChar: N
Encoding: 78 78 49
Width: 1479
GlyphClass: 2
Flags: W
LayerCount: 2
Fore
SplineSet
419.13 796.35 m 2,0,0
 419.13 0 l 1,0,0
 126.77 0 l 1,0,0
 126.77 1409 l 1,0,0
 501.72 1409 l 1,0,0
 1078.85 352.62 l 1,0,0
 1058.87 489.77 1058.87 489.77 1058.87 624.65 c 2,0,0
 1058.87 1409 l 1,0,0
 1350.57 1409 l 1,0,0
 1350.57 0 l 1,0,0
 966.29 0 l 1,0,0
 398.49 1047.05 l 1,0,0
 409.8 963.76 409.8 963.76 414.465 901.085 c 0,0,0
 419.13 838.41 419.13 838.41 419.13 796.35 c 2,0,0
EndSplineSet
EndChar

StartChar: O
Encoding: 79 79 50
Width: 1593
GlyphClass: 2
Flags: W
LayerCount: 2
Fore
SplineSet
1510.96 711 m 0,0,0
 1510.96 492.98 1510.96 492.98 1421.47 328.315 c 0,0,0
 1331.98 163.65 1331.98 163.65 1170.325 71.825 c 0,0,0
 1008.67 -20 1008.67 -20 792.34 -20 c 0,0,0
 569.69 -20 569.69 -20 409.865 68.665 c 0,0,0
 250.04 157.33 250.04 157.33 164.875 321.33 c 0,0,0
 79.71 485.33 79.71 485.33 79.71 711 c 0,0,0
 79.71 937 79.71 937 164.54 1098.165 c 0,0,0
 249.37 1259.33 249.37 1259.33 409.86 1344.665 c 0,0,0
 570.35 1430 570.35 1430 794.34 1430 c 0,0,0
 1020.98 1430 1020.98 1430 1180.805 1343.005 c 0,0,0
 1340.63 1256.01 1340.63 1256.01 1425.795 1094.845 c 0,0,0
 1510.96 933.68 1510.96 933.68 1510.96 711 c 0,0,0
1174.98 711 m 0,0,0
 1174.98 927.45 1174.98 927.45 1074.735 1050.185 c 0,0,0
 974.49 1172.92 974.49 1172.92 794.34 1172.92 c 0,0,0
 610.86 1172.92 610.86 1172.92 510.78 1050.855 c 0,0,0
 410.7 928.79 410.7 928.79 410.7 711 c 0,0,0
 410.7 564.26 410.7 564.26 457.4 458.035 c 0,0,0
 504.1 351.81 504.1 351.81 589.835 294.61 c 0,0,0
 675.57 237.41 675.57 237.41 792.34 237.41 c 0,0,0
 975.16 237.41 975.16 237.41 1075.07 360.645 c 0,0,0
 1174.98 483.88 1174.98 483.88 1174.98 711 c 0,0,0
EndSplineSet
EndChar

StartChar: P
Encoding: 80 80 51
Width: 1366
GlyphClass: 2
Flags: W
LayerCount: 2
Fore
SplineSet
1308.54 955.74 m 0,0,0
 1308.54 817.42 1308.54 817.42 1244.885 709.445 c 0,0,0
 1181.23 601.47 1181.23 601.47 1064.085 539.99 c 0,0,0
 946.94 478.51 946.94 478.51 784.97 478.51 c 2,0,0
 456.09 478.51 l 1,0,0
 456.09 0 l 1,0,0
 126.77 0 l 1,0,0
 126.77 1409 l 1,0,0
 772.97 1409 l 2,0,0
 1031.25 1409 1031.25 1409 1169.895 1290.685 c 0,0,0
 1308.54 1172.37 1308.54 1172.37 1308.54 955.74 c 0,0,0
976.89 949.75 m 0,0,0
 976.89 1154.92 976.89 1154.92 736.67 1154.92 c 2,0,0
 456.09 1154.92 l 1,0,0
 456.09 730.59 l 1,0,0
 744.67 730.59 l 2,0,0
 854.13 730.59 854.13 730.59 915.51 787.79 c 0,0,0
 976.89 844.99 976.89 844.99 976.89 949.75 c 0,0,0
EndSplineSet
EndChar

StartChar: Q
Encoding: 81 81 52
Width: 1593
GlyphClass: 2
Flags: W
LayerCount: 2
Fore
SplineSet
1510.96 711 m 0,0,0
 1510.96 526.3 1510.96 526.3 1450.11 381.28 c 0,0,0
 1389.26 236.26 1389.26 236.26 1275.56 140.43 c 0,0,0
 1161.86 44.6 1161.86 44.6 1001.15 7.3 c 1,0,0
 1032.84 -82.79 1032.84 -82.79 1092.69 -122.83 c 0,0,0
 1152.54 -162.87 1152.54 -162.87 1266.51 -162.87 c 0,0,0
 1330.16 -162.87 1330.16 -162.87 1386.83 -153.86 c 1,0,0
 1384.17 -378.3 l 1,0,0
 1249.28 -408.28 1249.28 -408.28 1121.05 -408.28 c 0,0,0
 954.09 -408.28 954.09 -408.28 843.955 -315.465 c 0,0,0
 733.82 -222.65 733.82 -222.65 667.83 -8.02 c 1,0,0
 481.79 12.62 481.79 12.62 350.43 104.62 c 0,0,0
 219.07 196.62 219.07 196.62 149.39 350.635 c 0,0,0
 79.71 504.65 79.71 504.65 79.71 711 c 0,0,0
 79.71 937 79.71 937 164.54 1098.165 c 0,0,0
 249.37 1259.33 249.37 1259.33 409.86 1344.665 c 0,0,0
 570.35 1430 570.35 1430 794.34 1430 c 0,0,0
 1019 1430 1019 1430 1178.99 1343.83 c 0,0,0
 1338.98 1257.66 1338.98 1257.66 1424.97 1096.66 c 0,0,0
 1510.96 935.66 1510.96 935.66 1510.96 711 c 0,0,0
1174.98 711 m 0,0,0
 1174.98 927.45 1174.98 927.45 1074.735 1050.185 c 0,0,0
 974.49 1172.92 974.49 1172.92 794.34 1172.92 c 0,0,0
 610.86 1172.92 610.86 1172.92 510.78 1050.855 c 0,0,0
 410.7 928.79 410.7 928.79 410.7 711 c 0,0,0
 410.7 564.26 410.7 564.26 456.735 457.37 c 0,0,0
 502.77 350.48 502.77 350.48 588.505 293.28 c 0,0,0
 674.24 236.08 674.24 236.08 792.34 236.08 c 0,0,0
 975.16 236.08 975.16 236.08 1075.07 359.315 c 0,0,0
 1174.98 482.55 1174.98 482.55 1174.98 711 c 0,0,0
EndSplineSet
EndChar

StartChar: R
Encoding: 82 82 53
Width: 1479
GlyphClass: 2
Flags: W
LayerCount: 2
Fore
SplineSet
456.09 518.5 m 1,0,0
 456.09 0 l 1,0,0
 126.77 0 l 1,0,0
 126.77 1409 l 1,0,0
 844.3 1409 l 2,0,0
 1100.92 1409 1100.92 1409 1240.395 1299.84 c 0,0,0
 1379.87 1190.68 1379.87 1190.68 1379.87 983.39 c 0,0,0
 1379.87 838.36 1379.87 838.36 1298.345 730.695 c 0,0,0
 1216.82 623.03 1216.82 623.03 1079.76 587.05 c 1,0,0
 1454.49 0 l 1,0,0
 1085.53 0 l 1,0,0
 771.4 518.5 l 1,0,0
 456.09 518.5 l 1,0,0
1048.22 968.09 m 0,0,0
 1048.22 1061.83 1048.22 1061.83 989.325 1108.375 c 0,0,0
 930.43 1154.92 930.43 1154.92 809.34 1154.92 c 2,0,0
 456.09 1154.92 l 1,0,0
 456.09 773.24 l 1,0,0
 817.34 773.24 l 2,0,0
 932.43 773.24 932.43 773.24 990.325 824.455 c 0,0,0
 1048.22 875.67 1048.22 875.67 1048.22 968.09 c 0,0,0
EndSplineSet
EndChar

StartChar: S
Encoding: 83 83 54
Width: 1366
GlyphClass: 2
Flags: W
LayerCount: 2
Fore
SplineSet
1290.62 411.61 m 0,0,0
 1290.62 200.65 1290.62 200.65 1136.79 90.325 c 0,0,0
 982.96 -20 982.96 -20 679.36 -20 c 0,0,0
 137.76 -20 137.76 -20 47.78 376.57 c 1,0,0
 365.78 426.87 l 1,0,0
 393.79 319.82 393.79 319.82 471.19 272.29 c 0,0,0
 548.59 224.76 548.59 224.76 687.69 224.76 c 0,0,0
 832.79 224.76 832.79 224.76 902.035 266.315 c 0,0,0
 971.28 307.87 971.28 307.87 971.28 392.3 c 0,0,0
 971.28 449.33 971.28 449.33 935.125 487.01 c 0,0,0
 898.97 524.69 898.97 524.69 831.33 550.03 c 0,0,0
 807.58 558.08 807.58 558.08 751.19 572.425 c 0,0,0
 694.8 586.77 694.8 586.77 604.12 604.78 c 0,0,0
 499.77 629.78 499.77 629.78 444.555 645.135 c 0,0,0
 389.34 660.49 389.34 660.49 357.3 673.69 c 0,0,0
 325.26 686.89 325.26 686.89 291.26 703.59 c 0,0,0
 208.01 748.26 208.01 748.26 160.895 827.88 c 0,0,0
 113.78 907.5 113.78 907.5 113.78 1030.39 c 0,0,0
 113.78 1224.69 113.78 1224.69 258.93 1327.345 c 0,0,0
 404.08 1430 404.08 1430 683.36 1430 c 0,0,0
 952.62 1430 952.62 1430 1085.605 1345.195 c 0,0,0
 1218.59 1260.39 1218.59 1260.39 1252.3 1067.43 c 1,0,0
 933.96 1026.45 l 1,0,0
 914.93 1110.52 914.93 1110.52 853.865 1155.035 c 0,0,0
 792.8 1199.55 792.8 1199.55 676.04 1199.55 c 0,0,0
 553.59 1199.55 553.59 1199.55 493.85 1162.17 c 0,0,0
 434.11 1124.79 434.11 1124.79 434.11 1049.7 c 0,0,0
 434.11 998 434.11 998 460.63 965.475 c 0,0,0
 487.15 932.95 487.15 932.95 540.18 909.27 c 0,0,0
 590.54 886.92 590.54 886.92 756.62 852.23 c 0,0,0
 864.22 829.24 864.22 829.24 935.24 810.07 c 0,0,0
 1006.26 790.9 1006.26 790.9 1041.68 777.19 c 0,0,0
 1086.67 757.53 1086.67 757.53 1120.18 737.685 c 0,0,0
 1153.69 717.84 1153.69 717.84 1177.7 696.48 c 0,0,0
 1232.99 645.17 1232.99 645.17 1261.805 574.205 c 0,0,0
 1290.62 503.24 1290.62 503.24 1290.62 411.61 c 0,0,0
EndSplineSet
EndChar

StartChar: T
Encoding: 84 84 55
Width: 1251
GlyphClass: 2
Flags: W
LayerCount: 2
Fore
SplineSet
790.49 1157.24 m 1,0,0
 790.49 0 l 1,0,0
 460.84 0 l 1,0,0
 460.84 1157.24 l 1,0,0
 15.41 1157.24 l 1,0,0
 15.41 1409 l 1,0,0
 1237.25 1409 l 1,0,0
 1237.25 1157.24 l 1,0,0
 790.49 1157.24 l 1,0,0
EndSplineSet
EndChar

StartChar: U
Encoding: 85 85 56
Width: 1479
GlyphClass: 2
Flags: W
LayerCount: 2
Fore
SplineSet
720.36 -20 m 0,0,0
 519.43 -20 519.43 -20 383.78 43.335 c 0,0,0
 248.13 106.67 248.13 106.67 179.79 230.325 c 0,0,0
 111.45 353.98 111.45 353.98 111.45 533.28 c 2,0,0
 111.45 1409 l 1,0,0
 440.77 1409 l 1,0,0
 440.77 558.59 l 2,0,0
 440.77 400.17 440.77 400.17 514.165 318.125 c 0,0,0
 587.56 236.08 587.56 236.08 731.33 236.08 c 0,0,0
 878.77 236.08 878.77 236.08 957.005 322.29 c 0,0,0
 1035.24 408.5 1035.24 408.5 1035.24 567.6 c 2,0,0
 1035.24 1409 l 1,0,0
 1364.89 1409 l 1,0,0
 1364.89 547.29 l 2,0,0
 1364.89 366.98 1364.89 366.98 1289.73 239.99 c 0,0,0
 1214.57 113 1214.57 113 1070.765 46.5 c 0,0,0
 926.96 -20 926.96 -20 720.36 -20 c 0,0,0
EndSplineSet
EndChar

StartChar: V
Encoding: 86 86 57
Width: 1366
GlyphClass: 2
Flags: W
LayerCount: 2
Fore
SplineSet
1350.35 1409 m 1,0,0
 851.16 0 l 1,0,0
 518.83 0 l 1,0,0
 15.65 1409 l 1,0,0
 358.96 1409 l 1,0,0
 615.96 532.71 l 2,0,0
 626.66 494.32 626.66 494.32 644.83 426.665 c 0,0,0
 663 359.01 663 359.01 686.66 261.1 c 1,0,0
 723.95 406.89 723.95 406.89 735.975 458.93 c 0,0,0
 748 510.97 748 510.97 754.7 532.71 c 2,0,0
 1011.03 1409 l 1,0,0
 1350.35 1409 l 1,0,0
EndSplineSet
EndChar

StartChar: W
Encoding: 87 87 58
Width: 1933
GlyphClass: 2
Flags: W
LayerCount: 2
Fore
SplineSet
912.96 815.52 m 2,0,0
 735.79 0 l 1,0,0
 345.53 0 l 1,0,0
 -0.31 1409 l 1,0,0
 331.69 1409 l 1,0,0
 508.88 556.56 l 2,0,0
 518.58 511.13 518.58 511.13 532.43 443.915 c 0,0,0
 546.28 376.7 546.28 376.7 553.31 315.63 c 1,0,0
 563.97 365.93 563.97 365.93 570.82 405.15 c 0,0,0
 577.67 444.37 577.67 444.37 584.69 481.435 c 0,0,0
 591.71 518.5 591.71 518.5 601.05 561.5 c 2,0,0
 781.24 1409 l 1,0,0
 1159.75 1409 l 1,0,0
 1340.91 590.52 l 2,0,0
 1344.97 569.97 1344.97 569.97 1356.995 493.765 c 0,0,0
 1369.02 417.56 1369.02 417.56 1381.03 315.63 c 1,0,0
 1393.37 373.3 1393.37 373.3 1401.89 409.88 c 0,0,0
 1419.59 487 l 0,0,0
 1428.77 527.54 1428.77 527.54 1442.75 595.43 c 2,0,0
 1600.65 1409 l 1,0,0
 1932.65 1409 l 1,0,0
 1585.48 0 l 1,0,0
 1195.22 0 l 1,0,0
 1021.71 788.6 l 2,0,0
 1003.06 870.5 1003.06 870.5 988.885 945.5 c 0,0,0
 974.71 1020.5 974.71 1020.5 966.34 1089.6 c 1,0,0
 958.67 1049.9 958.67 1049.9 947.495 993.055 c 0,0,0
 936.32 936.21 936.32 936.21 926.81 886.87 c 0,0,0
 917.3 837.53 917.3 837.53 912.96 815.52 c 2,0,0
EndSplineSet
EndChar

StartChar: X
Encoding: 88 88 59
Width: 1366
GlyphClass: 2
Flags: W
LayerCount: 2
Fore
SplineSet
682.35 542.85 m 1,0,0
 354.09 0 l 1,0,0
 8.76 0 l 1,0,0
 480.92 743.97 l 1,0,0
 49.76 1409 l 1,0,0
 395.09 1409 l 1,0,0
 682.02 929.15 l 1,0,0
 972.58 1409 l 1,0,0
 1315.25 1409 l 1,0,0
 905.07 741.66 l 1,0,0
 1356.25 0 l 1,0,0
 1013.58 0 l 1,0,0
 682.35 542.85 l 1,0,0
EndSplineSet
EndChar

StartChar: Y
Encoding: 89 89 60
Width: 1366
GlyphClass: 2
Flags: W
LayerCount: 2
Fore
SplineSet
848.82 576.02 m 1,0,0
 848.82 0 l 1,0,0
 520.5 0 l 1,0,0
 520.5 576.02 l 1,0,0
 31.7 1409 l 1,0,0
 373.37 1409 l 1,0,0
 681.34 837.75 l 1,0,0
 995.29 1409 l 1,0,0
 1336.96 1409 l 1,0,0
 848.82 576.02 l 1,0,0
EndSplineSet
EndChar

StartChar: Z
Encoding: 90 90 61
Width: 1251
GlyphClass: 2
Flags: W
LayerCount: 2
Fore
SplineSet
1193.65 255.75 m 1,0,0
 1193.65 0 l 1,0,0
 59.68 0 l 1,0,0
 59.68 230.78 l 1,0,0
 790 1153.25 l 1,0,0
 136.67 1153.25 l 1,0,0
 136.67 1409 l 1,0,0
 1154.63 1409 l 1,0,0
 1154.63 1182.22 l 1,0,0
 424.31 255.75 l 1,0,0
 1193.65 255.75 l 1,0,0
EndSplineSet
EndChar

StartChar: bracketleft
Encoding: 91 91 62
Width: 719
GlyphClass: 2
Flags: W
LayerCount: 2
Fore
SplineSet
691.32 -213.54 m 1,0,0
 691.32 -425 l 1,0,0
 104.77 -425 l 1,0,0
 104.77 1484 l 1,0,0
 691.32 1484 l 1,0,0
 691.32 1273.87 l 1,0,0
 401.13 1273.87 l 1,0,0
 401.13 -213.54 l 1,0,0
 691.32 -213.54 l 1,0,0
EndSplineSet
EndChar

StartChar: backslash
Encoding: 92 92 63
Width: 569
GlyphClass: 2
Flags: W
LayerCount: 2
Fore
SplineSet
292.33 1485.33 m 1,0,0
 543.73 -47.93 l 1,0,0
 274 -47.93 l 1,0,0
 27.93 1485.33 l 1,0,0
 292.33 1485.33 l 1,0,0
EndSplineSet
EndChar

StartChar: bracketright
Encoding: 93 93 64
Width: 719
GlyphClass: 2
Flags: W
LayerCount: 2
Fore
SplineSet
614.52 1484 m 1,0,0
 614.52 -425 l 1,0,0
 27.97 -425 l 1,0,0
 27.97 -213.54 l 1,0,0
 320.82 -213.54 l 1,0,0
 320.82 1273.87 l 1,0,0
 27.97 1273.87 l 1,0,0
 27.97 1484 l 1,0,0
 614.52 1484 l 1,0,0
EndSplineSet
EndChar

StartChar: asciicircum
Encoding: 94 94 65
Width: 1273
GlyphClass: 2
Flags: W
LayerCount: 2
Fore
SplineSet
56.55 461.53 m 1,0,0
 455.14 1409 l 1,0,0
 816.41 1409 l 1,0,0
 1217 461.53 l 1,0,0
 966.55 461.53 l 1,0,0
 634.94 1252.8 l 1,0,0
 305 461.53 l 1,0,0
 56.55 461.53 l 1,0,0
EndSplineSet
EndChar

StartChar: underscore
Encoding: 95 95 66
Width: 1139
GlyphClass: 2
Flags: W
LayerCount: 2
Fore
SplineSet
1155.35 -137.35 m 1,0,0
 1155.35 -198.19 l 1,0,0
 -16.37 -198.19 l 1,0,0
 -16.37 -137.35 l 1,0,0
 1155.35 -137.35 l 1,0,0
EndSplineSet
EndChar

StartChar: grave
Encoding: 96 96 67
Width: 682
GlyphClass: 2
Flags: W
LayerCount: 2
Fore
SplineSet
589.85 1211.69 m 1,0,0
 589.85 1177.06 l 1,0,0
 396.1 1177.06 l 1,0,0
 52.8 1452.4 l 1,0,0
 52.8 1500.02 l 1,0,0
 327.63 1500.02 l 1,0,0
 589.85 1211.69 l 1,0,0
EndSplineSet
EndChar

StartChar: a
Encoding: 97 97 68
Width: 1139
GlyphClass: 2
Flags: W
LayerCount: 2
Fore
SplineSet
386.07 -20 m 0,0,0
 231.05 -20 231.05 -20 141.07 65.335 c 0,0,0
 51.09 150.67 51.09 150.67 51.09 307.32 c 0,0,0
 51.09 475.32 51.09 475.32 160.26 561.33 c 0,0,0
 269.43 647.34 269.43 647.34 464.89 650.68 c 2,0,0
 694.59 654.68 l 1,0,0
 694.59 708.36 l 2,0,0
 694.59 805.78 694.59 805.78 663.86 855.465 c 0,0,0
 633.13 905.15 633.13 905.15 561.01 905.15 c 0,0,0
 497.2 905.15 497.2 905.15 466.805 871.465 c 0,0,0
 436.41 837.78 436.41 837.78 428.07 758.42 c 1,0,0
 100.42 771.43 l 1,0,0
 158.39 1102 158.39 1102 575.65 1102 c 0,0,0
 780.98 1102 780.98 1102 894.62 998.525 c 0,0,0
 1008.26 895.05 1008.26 895.05 1008.26 706.08 c 2,0,0
 1008.26 335.84 l 2,0,0
 1008.26 241.21 1008.26 241.21 1028.595 208.69 c 0,0,0
 1048.93 176.17 1048.93 176.17 1093.3 176.17 c 0,0,0
 1126.62 176.17 1126.62 176.17 1156.29 181.84 c 1,0,0
 1156.29 16.64 l 1,0,0
 1098.35 1.99 1098.35 1.99 1060.69 -5.335 c 0,0,0
 1023.03 -12.66 1023.03 -12.66 962.76 -12.66 c 0,0,0
 854.78 -12.66 854.78 -12.66 802.63 39.175 c 0,0,0
 750.48 91.01 750.48 91.01 739.16 188.38 c 1,0,0
 733.16 188.38 l 1,0,0
 677.46 88.32 677.46 88.32 589.285 34.16 c 0,0,0
 501.11 -20 501.11 -20 386.07 -20 c 0,0,0
694.59 490.11 m 1,0,0
 568.08 488.77 l 2,0,0
 477.99 482.45 477.99 482.45 446.57 469.42 c 0,0,0
 413.82 453.4 413.82 453.4 396.775 422.02 c 0,0,0
 379.73 390.64 379.73 390.64 379.73 337.57 c 0,0,0
 379.73 264.2 379.73 264.2 411.27 230.165 c 0,0,0
 442.81 196.13 442.81 196.13 492.24 196.13 c 0,0,0
 547.02 196.13 547.02 196.13 595.09 229.16 c 0,0,0
 641.5 262.19 641.5 262.19 668.045 320.74 c 0,0,0
 694.59 379.29 694.59 379.29 694.59 446.33 c 2,0,0
 694.59 490.11 l 1,0,0
EndSplineSet
EndChar

StartChar: b
Encoding: 98 98 69
Width: 1287
GlyphClass: 2
Flags: W
LayerCount: 2
Fore
SplineSet
1204.62 544.67 m 0,0,0
 1204.62 281.62 1204.62 281.62 1094.48 130.81 c 0,0,0
 984.34 -20 984.34 -20 784.01 -20 c 0,0,0
 671.65 -20 671.65 -20 586.825 31.815 c 0,0,0
 502 83.63 502 83.63 458.98 175.98 c 1,0,0
 456.98 175.98 l 1,0,0
 456.98 151.99 456.98 151.99 454.98 115.32 c 0,0,0
 452.98 78.65 452.98 78.65 449.65 46.15 c 0,0,0
 446.32 13.65 446.32 13.65 441.66 0 c 1,0,0
 135.99 0 l 1,0,0
 140.32 53.6 140.32 53.6 142.485 117.08 c 0,0,0
 144.65 180.56 144.65 180.56 144.65 254.92 c 2,0,0
 144.65 1484 l 1,0,0
 458.98 1484 l 1,0,0
 458.98 1072.97 l 2,0,0
 458.98 1025.01 458.98 1025.01 457.315 979.195 c 0,0,0
 455.65 933.38 455.65 933.38 454.98 889.38 c 1,0,0
 458.98 889.38 l 1,0,0
 504.99 993.38 504.99 993.38 593.475 1047.69 c 0,0,0
 681.96 1102 681.96 1102 807.95 1102 c 0,0,0
 995.66 1102 995.66 1102 1100.14 954.025 c 0,0,0
 1204.62 806.05 1204.62 806.05 1204.62 544.67 c 0,0,0
877.3 546.65 m 0,0,0
 877.3 716.46 877.3 716.46 825.28 802.49 c 0,0,0
 773.26 888.52 773.26 888.52 667.52 888.52 c 0,0,0
 566.06 888.52 566.06 888.52 509.86 795.825 c 0,0,0
 453.66 703.13 453.66 703.13 453.66 538.31 c 0,0,0
 453.66 379.84 453.66 379.84 509.025 285.655 c 0,0,0
 564.39 191.47 564.39 191.47 665.52 191.47 c 0,0,0
 769.6 191.47 769.6 191.47 823.45 281.995 c 0,0,0
 877.3 372.52 877.3 372.52 877.3 546.65 c 0,0,0
EndSplineSet
EndChar

StartChar: c
Encoding: 99 99 70
Width: 1176
GlyphClass: 2
Flags: W
LayerCount: 2
Fore
SplineSet
607.53 -20 m 0,0,0
 355.26 -20 355.26 -20 216.475 127.49 c 0,0,0
 77.69 274.98 77.69 274.98 77.69 532.69 c 0,0,0
 77.69 799.04 77.69 799.04 217.64 950.52 c 0,0,0
 357.59 1102 357.59 1102 613.51 1102 c 0,0,0
 812.76 1102 812.76 1102 942.875 1002.7 c 0,0,0
 1072.99 903.4 1072.99 903.4 1106.31 728.46 c 1,0,0
 790.97 714.46 l 1,0,0
 779.63 795.15 779.63 795.15 734.6 843.495 c 0,0,0
 689.57 891.84 689.57 891.84 607.18 891.84 c 0,0,0
 509.4 891.84 509.4 891.84 458.7 802.825 c 0,0,0
 408 713.81 408 713.81 408 546 c 0,0,0
 408 368.57 408 368.57 459.375 278.535 c 0,0,0
 510.75 188.5 510.75 188.5 611.84 188.5 c 0,0,0
 686.56 188.5 686.56 188.5 737.095 238.505 c 0,0,0
 787.63 288.51 787.63 288.51 799.97 385.87 c 1,0,0
 1114.97 372.54 l 1,0,0
 1099.64 255.24 1099.64 255.24 1030.84 166.935 c 0,0,0
 962.04 78.63 962.04 78.63 852.925 29.315 c 0,0,0
 743.81 -20 743.81 -20 607.53 -20 c 0,0,0
EndSplineSet
EndChar

StartChar: d
Encoding: 100 100 71
Width: 1287
GlyphClass: 2
Flags: W
LayerCount: 2
Fore
SplineSet
846.97 0 m 1,0,0
 844.97 9.67 844.97 9.67 840.475 42.165 c 0,0,0
 835.98 74.66 835.98 74.66 833.15 112.99 c 0,0,0
 830.32 151.32 830.32 151.32 830.32 176.66 c 1,0,0
 826.32 176.66 l 1,0,0
 781.64 80.64 781.64 80.64 694.485 30.32 c 0,0,0
 607.33 -20 607.33 -20 477.35 -20 c 0,0,0
 293.63 -20 293.63 -20 188.485 130.635 c 0,0,0
 83.34 281.27 83.34 281.27 83.34 541.32 c 0,0,0
 83.34 805.7 83.34 805.7 194.81 953.85 c 0,0,0
 306.28 1102 306.28 1102 505.28 1102 c 0,0,0
 617.64 1102 617.64 1102 701.635 1053.01 c 0,0,0
 785.63 1004.02 785.63 1004.02 828.98 910.01 c 1,0,0
 830.98 910.01 l 1,0,0
 828.98 1106.82 l 1,0,0
 828.98 1484 l 1,0,0
 1143.31 1484 l 1,0,0
 1143.31 240.29 l 2,0,0
 1143.31 201.84 1143.31 201.84 1145.475 141.685 c 0,0,0
 1147.64 81.53 1147.64 81.53 1151.97 0 c 1,0,0
 846.97 0 l 1,0,0
410.66 539.34 m 0,0,0
 410.66 369.53 410.66 369.53 464.675 279.51 c 0,0,0
 518.69 189.49 518.69 189.49 620.44 189.49 c 0,0,0
 717.58 189.49 717.58 189.49 775.94 284.185 c 0,0,0
 834.3 378.88 834.3 378.88 834.3 544.69 c 0,0,0
 834.3 706.49 834.3 706.49 779.265 799.175 c 0,0,0
 724.23 891.86 724.23 891.86 622.44 891.86 c 0,0,0
 517.03 891.86 517.03 891.86 463.845 803.33 c 0,0,0
 410.66 714.8 410.66 714.8 410.66 539.34 c 0,0,0
EndSplineSet
EndChar

StartChar: e
Encoding: 101 101 72
Width: 1139
GlyphClass: 2
Flags: W
LayerCount: 2
Fore
SplineSet
407.67 481.72 m 1,0,0
 407.67 332.96 407.67 332.96 460.065 259.225 c 0,0,0
 512.46 185.49 512.46 185.49 607.26 185.49 c 0,0,0
 667.07 185.49 667.07 185.49 706.98 213.205 c 0,0,0
 746.89 240.92 746.89 240.92 763.91 302.28 c 1,0,0
 1064.22 286.54 l 1,0,0
 943.28 -20 943.28 -20 588.64 -20 c 0,0,0
 343.32 -20 343.32 -20 210.505 124.995 c 0,0,0
 77.69 269.99 77.69 269.99 77.69 545.34 c 0,0,0
 77.69 813.34 77.69 813.34 213.165 957.67 c 0,0,0
 348.64 1102 348.64 1102 596.27 1102 c 0,0,0
 827.29 1102 827.29 1102 951.61 944.035 c 0,0,0
 1075.93 786.07 1075.93 786.07 1075.93 484.44 c 2,0,0
 1075.93 481.72 l 1,0,0
 407.67 481.72 l 1,0,0
775.55 670.26 m 1,0,0
 769.86 788.06 769.86 788.06 720.47 849.27 c 0,0,0
 671.08 910.48 671.08 910.48 591.94 910.48 c 0,0,0
 503.5 910.48 503.5 910.48 457.59 847.585 c 0,0,0
 411.68 784.69 411.68 784.69 409.67 670.26 c 1,0,0
 775.55 670.26 l 1,0,0
EndSplineSet
EndChar

StartChar: f
Encoding: 102 102 73
Width: 719
GlyphClass: 2
Flags: W
LayerCount: 2
Fore
SplineSet
509.96 872.53 m 1,0,0
 509.96 0 l 1,0,0
 196.96 0 l 1,0,0
 196.96 872.53 l 1,0,0
 36.98 872.53 l 1,0,0
 36.98 1082 l 1,0,0
 196.96 1082 l 1,0,0
 196.96 1192.03 l 2,0,0
 196.96 1338.7 196.96 1338.7 279.25 1411.68 c 0,0,0
 361.54 1484.66 361.54 1484.66 528.79 1484.66 c 0,0,0
 613.1 1484.66 613.1 1484.66 723.62 1467.34 c 1,0,0
 723.62 1271.82 l 1,0,0
 686.26 1281.15 686.26 1281.15 640.96 1281.15 c 0,0,0
 567.97 1281.15 567.97 1281.15 538.965 1254.795 c 0,0,0
 509.96 1228.44 509.96 1228.44 509.96 1163.04 c 2,0,0
 509.96 1082 l 1,0,0
 723.62 1082 l 1,0,0
 723.62 872.53 l 1,0,0
 509.96 872.53 l 1,0,0
EndSplineSet
EndChar

StartChar: g
Encoding: 103 103 74
Width: 1287
GlyphClass: 2
Flags: W
LayerCount: 2
Fore
SplineSet
611.84 -436.97 m 0,0,0
 406.91 -436.97 406.91 -436.97 281.295 -359.49 c 0,0,0
 155.68 -282.01 155.68 -282.01 128.34 -138.05 c 1,0,0
 442.34 -102.74 l 1,0,0
 456.35 -164.44 456.35 -164.44 501.89 -200.285 c 0,0,0
 547.43 -236.13 547.43 -236.13 620.83 -236.13 c 0,0,0
 732.22 -236.13 732.22 -236.13 781.765 -166.44 c 0,0,0
 831.31 -96.75 831.31 -96.75 831.31 40.3 c 2,0,0
 833.97 201 l 1,0,0
 831.97 201 l 1,0,0
 787.62 102.32 787.62 102.32 701.28 53.81 c 0,0,0
 614.94 5.3 614.94 5.3 483.97 5.3 c 0,0,0
 298.27 5.3 298.27 5.3 190.805 150.6 c 0,0,0
 83.34 295.9 83.34 295.9 83.34 553.63 c 0,0,0
 83.34 811.37 83.34 811.37 192.485 957.845 c 0,0,0
 301.63 1104.32 301.63 1104.32 505.3 1104.32 c 0,0,0
 624.29 1104.32 624.29 1104.32 704.8 1057.14 c 0,0,0
 785.31 1009.96 785.31 1009.96 831.31 911.63 c 1,0,0
 837.3 911.63 l 1,0,0
 837.3 936.95 837.3 936.95 839.3 970.805 c 0,0,0
 841.3 1004.66 841.3 1004.66 844.965 1036.01 c 0,0,0
 848.63 1067.36 848.63 1067.36 851.96 1082 c 1,0,0
 1149.31 1082 l 1,0,0
 1143.31 956.18 1143.31 956.18 1143.31 823.42 c 2,0,0
 1143.31 33.66 l 2,0,0
 1143.31 -198.33 1143.31 -198.33 1006.37 -317.65 c 0,0,0
 869.43 -436.97 869.43 -436.97 611.84 -436.97 c 0,0,0
833.97 560.95 m 0,0,0
 833.97 718.05 833.97 718.05 781.4 804.95 c 0,0,0
 728.83 891.85 728.83 891.85 623.78 891.85 c 0,0,0
 520.36 891.85 520.36 891.85 466.005 805.15 c 0,0,0
 411.65 718.45 411.65 718.45 411.65 552.97 c 0,0,0
 411.65 392.15 411.65 392.15 465.995 306.455 c 0,0,0
 520.34 220.76 520.34 220.76 622.11 220.76 c 0,0,0
 728.83 220.76 728.83 220.76 781.4 308.32 c 0,0,0
 833.97 395.88 833.97 395.88 833.97 560.95 c 0,0,0
EndSplineSet
EndChar

StartChar: h
Encoding: 104 104 75
Width: 1287
GlyphClass: 2
Flags: W
LayerCount: 2
Fore
SplineSet
453.99 855.77 m 1,0,0
 510.66 985.71 510.66 985.71 598.145 1043.855 c 0,0,0
 685.63 1102 685.63 1102 802.65 1102 c 0,0,0
 973.33 1102 973.33 1102 1068.135 991.215 c 0,0,0
 1162.94 880.43 1162.94 880.43 1162.94 674.45 c 2,0,0
 1162.94 0 l 1,0,0
 850.27 0 l 1,0,0
 850.27 579.6 l 2,0,0
 850.27 721.28 850.27 721.28 803.425 794.26 c 0,0,0
 756.58 867.24 756.58 867.24 667.17 867.24 c 0,0,0
 573.42 867.24 573.42 867.24 515.54 779.905 c 0,0,0
 457.66 692.57 457.66 692.57 457.66 559.53 c 2,0,0
 457.66 0 l 1,0,0
 143.33 0 l 1,0,0
 143.33 1484 l 1,0,0
 457.66 1484 l 1,0,0
 457.66 1072.73 l 2,0,0
 457.66 1038.05 457.66 1038.05 456.99 1004.855 c 0,0,0
 456.32 971.66 456.32 971.66 454.82 935.835 c 0,0,0
 453.32 900.01 453.32 900.01 449.66 855.77 c 1,0,0
 453.99 855.77 l 1,0,0
EndSplineSet
EndChar

StartChar: i
Encoding: 105 105 76
Width: 606
GlyphClass: 2
Flags: W
LayerCount: 2
Fore
SplineSet
459.31 1484 m 1,0,0
 459.31 1265.45 l 1,0,0
 144.98 1265.45 l 1,0,0
 144.98 1484 l 1,0,0
 459.31 1484 l 1,0,0
459.31 1082 m 1,0,0
 459.31 0 l 1,0,0
 144.98 0 l 1,0,0
 144.98 1082 l 1,0,0
 459.31 1082 l 1,0,0
EndSplineSet
Substitution2: "Single Substitution lookup 3 subtable" dotlessi
EndChar

StartChar: j
Encoding: 106 106 77
Width: 606
GlyphClass: 2
Flags: W
LayerCount: 2
Fore
SplineSet
460.64 1484 m 1,0,0
 460.64 1265.45 l 1,0,0
 146.31 1265.45 l 1,0,0
 146.31 1484 l 1,0,0
 460.64 1484 l 1,0,0
158.13 -425 m 0,0,0
 52.2 -425 52.2 -425 -26.06 -416 c 1,0,0
 -26.06 -198.53 l 1,0,0
 -14.05 -199.2 -14.05 -199.2 -2.375 -200.535 c 0,0,0
 9.3 -201.87 9.3 -201.87 21.31 -201.87 c 0,0,0
 94.3 -201.87 94.3 -201.87 120.305 -171.855 c 0,0,0
 146.31 -141.84 146.31 -141.84 146.31 -44.49 c 2,0,0
 146.31 1082 l 1,0,0
 460.64 1082 l 1,0,0
 460.64 -126.02 l 2,0,0
 460.64 -265.72 460.64 -265.72 384.015 -345.36 c 0,0,0
 307.39 -425 307.39 -425 158.13 -425 c 0,0,0
EndSplineSet
Substitution2: "Single Substitution lookup 3 subtable" uni0237
EndChar

StartChar: k
Encoding: 107 107 78
Width: 1176
GlyphClass: 2
Flags: W
LayerCount: 2
Fore
SplineSet
458.98 412.93 m 1,0,0
 458.98 0 l 1,0,0
 144.65 0 l 1,0,0
 144.65 1484 l 1,0,0
 458.98 1484 l 1,0,0
 458.98 659.41 l 1,0,0
 815.61 1082 l 1,0,0
 1147.64 1082 l 1,0,0
 787.11 674.19 l 1,0,0
 1178.62 0 l 1,0,0
 839.94 0 l 1,0,0
 576.35 488.68 l 1,0,0
 458.98 412.93 l 1,0,0
EndSplineSet
EndChar

StartChar: l
Encoding: 108 108 79
Width: 606
GlyphClass: 2
Flags: W
LayerCount: 2
Fore
SplineSet
458.98 1484 m 1,0,0
 458.98 0 l 1,0,0
 144.65 0 l 1,0,0
 144.65 1484 l 1,0,0
 458.98 1484 l 1,0,0
EndSplineSet
EndChar

StartChar: m
Encoding: 109 109 80
Width: 1858
GlyphClass: 2
Flags: W
LayerCount: 2
Fore
SplineSet
457.99 564.49 m 2,0,0
 457.99 0 l 1,0,0
 143.33 0 l 1,0,0
 143.33 836.37 l 2,0,0
 143.33 920.73 143.33 920.73 140.5 975.57 c 0,0,0
 137.67 1030.41 137.67 1030.41 134.67 1082 c 1,0,0
 435.01 1082 l 1,0,0
 437.01 1073.3 437.01 1073.3 440.34 1024.675 c 0,0,0
 443.67 976.05 443.67 976.05 446.665 925.59 c 0,0,0
 449.66 875.13 449.66 875.13 449.66 857.1 c 1,0,0
 453.99 857.1 l 1,0,0
 504.01 984.07 504.01 984.07 582.335 1043.7 c 0,0,0
 660.66 1103.33 660.66 1103.33 768.66 1103.33 c 0,0,0
 892.99 1103.33 892.99 1103.33 969.81 1041.03 c 0,0,0
 1046.63 978.73 1046.63 978.73 1071.97 857.1 c 1,0,0
 1078.96 857.1 l 1,0,0
 1133.63 988.71 1133.63 988.71 1209.805 1046.02 c 0,0,0
 1285.98 1103.33 1285.98 1103.33 1406.96 1103.33 c 0,0,0
 1562.98 1103.33 1562.98 1103.33 1648.785 989.725 c 0,0,0
 1734.59 876.12 1734.59 876.12 1734.59 675.78 c 2,0,0
 1734.59 0 l 1,0,0
 1422.26 0 l 1,0,0
 1422.26 580.93 l 2,0,0
 1422.26 719.31 1422.26 719.31 1381.92 793.94 c 0,0,0
 1341.58 868.57 1341.58 868.57 1269.48 868.57 c 0,0,0
 1199.36 868.57 1199.36 868.57 1147.825 791.71 c 0,0,0
 1096.29 714.85 1096.29 714.85 1096.29 581.78 c 2,0,0
 1096.29 0 l 1,0,0
 783.96 0 l 1,0,0
 783.96 580.93 l 2,0,0
 783.96 719.31 783.96 719.31 743.62 793.94 c 0,0,0
 703.28 868.57 703.28 868.57 631.18 868.57 c 0,0,0
 556.08 868.57 556.08 868.57 507.035 781.9 c 0,0,0
 457.99 695.23 457.99 695.23 457.99 564.49 c 2,0,0
EndSplineSet
EndChar

StartChar: n
Encoding: 110 110 81
Width: 1287
GlyphClass: 2
Flags: W
LayerCount: 2
Fore
SplineSet
457.66 564.49 m 2,0,0
 457.66 0 l 1,0,0
 143.33 0 l 1,0,0
 143.33 836.37 l 2,0,0
 143.33 920.73 143.33 920.73 140.5 975.57 c 0,0,0
 137.67 1030.41 137.67 1030.41 134.67 1082 c 1,0,0
 435.01 1082 l 1,0,0
 437.01 1072.31 437.01 1072.31 440.505 1022.695 c 0,0,0
 444 973.08 444 973.08 446.995 922.785 c 0,0,0
 449.99 872.49 449.99 872.49 449.66 857.1 c 1,0,0
 453.99 857.1 l 1,0,0
 509.34 985.06 509.34 985.06 596.825 1044.195 c 0,0,0
 684.31 1103.33 684.31 1103.33 802.65 1103.33 c 0,0,0
 972.67 1103.33 972.67 1103.33 1067.805 992.38 c 0,0,0
 1162.94 881.43 1162.94 881.43 1162.94 675.78 c 2,0,0
 1162.94 0 l 1,0,0
 850.27 0 l 1,0,0
 850.27 580.93 l 2,0,0
 850.27 719.97 850.27 719.97 802.93 794.27 c 0,0,0
 755.59 868.57 755.59 868.57 667.17 868.57 c 0,0,0
 574.41 868.57 574.41 868.57 516.035 781.565 c 0,0,0
 457.66 694.56 457.66 694.56 457.66 564.49 c 2,0,0
EndSplineSet
EndChar

StartChar: o
Encoding: 111 111 82
Width: 1287
GlyphClass: 2
Flags: W
LayerCount: 2
Fore
SplineSet
1209.94 542 m 0,0,0
 1209.94 285.93 1209.94 285.93 1057.01 132.965 c 0,0,0
 904.08 -20 904.08 -20 639.48 -20 c 0,0,0
 381.2 -20 381.2 -20 229.61 131.815 c 0,0,0
 78.02 283.63 78.02 283.63 78.02 542 c 0,0,0
 78.02 796.73 78.02 796.73 229.445 949.365 c 0,0,0
 380.87 1102 380.87 1102 645.48 1102 c 0,0,0
 916.09 1102 916.09 1102 1063.015 954.86 c 0,0,0
 1209.94 807.72 1209.94 807.72 1209.94 542 c 0,0,0
881.29 542 m 0,0,0
 881.29 724.77 881.29 724.77 819.445 806.985 c 0,0,0
 757.6 889.2 757.6 889.2 649.81 889.2 c 0,0,0
 531.71 889.2 531.71 889.2 469.855 801.66 c 0,0,0
 408 714.12 408 714.12 408 542 c 0,0,0
 408 371.89 408 371.89 468.19 281.68 c 0,0,0
 528.38 191.47 528.38 191.47 636.15 191.47 c 0,0,0
 755.59 191.47 755.59 191.47 818.44 280.175 c 0,0,0
 881.29 368.88 881.29 368.88 881.29 542 c 0,0,0
EndSplineSet
EndChar

StartChar: p
Encoding: 112 112 83
Width: 1287
GlyphClass: 2
Flags: W
LayerCount: 2
Fore
SplineSet
1204.62 546 m 0,0,0
 1204.62 278.96 1204.62 278.96 1093.15 129.48 c 0,0,0
 981.68 -20 981.68 -20 784.01 -20 c 0,0,0
 553.96 -20 553.96 -20 458.65 173.32 c 1,0,0
 452.32 173.32 l 1,0,0
 458.98 135.73 458.98 135.73 458.98 -12.64 c 2,0,0
 458.98 -425 l 1,0,0
 144.65 -425 l 1,0,0
 144.65 823.76 l 2,0,0
 144.65 898.78 144.65 898.78 142.485 962.925 c 0,0,0
 140.32 1027.07 140.32 1027.07 135.99 1082 c 1,0,0
 441.66 1082 l 1,0,0
 446.65 1067.36 446.65 1067.36 449.15 1041.005 c 0,0,0
 451.65 1014.65 451.65 1014.65 452.985 980.135 c 0,0,0
 454.32 945.62 454.32 945.62 454.32 905.34 c 1,0,0
 458.32 905.34 l 1,0,0
 504.99 1005.34 504.99 1005.34 594.63 1055.83 c 0,0,0
 684.27 1106.32 684.27 1106.32 807.95 1106.32 c 0,0,0
 993.32 1106.32 993.32 1106.32 1098.97 957.025 c 0,0,0
 1204.62 807.73 1204.62 807.73 1204.62 546 c 0,0,0
877.3 547.32 m 0,0,0
 877.3 714.8 877.3 714.8 823.615 803.82 c 0,0,0
 769.93 892.84 769.93 892.84 664.86 892.84 c 0,0,0
 564.74 892.84 564.74 892.84 509.2 796.325 c 0,0,0
 453.66 699.81 453.66 699.81 453.66 541.3 c 0,0,0
 453.66 378.84 453.66 378.84 510.355 285.155 c 0,0,0
 567.05 191.47 567.05 191.47 662.86 191.47 c 0,0,0
 768.93 191.47 768.93 191.47 823.115 283.32 c 0,0,0
 877.3 375.17 877.3 375.17 877.3 547.32 c 0,0,0
EndSplineSet
EndChar

StartChar: q
Encoding: 113 113 84
Width: 1287
GlyphClass: 2
Flags: W
LayerCount: 2
Fore
SplineSet
83.34 541.32 m 0,0,0
 83.34 804.37 83.34 804.37 196.14 953.85 c 0,0,0
 308.94 1103.33 308.94 1103.33 507.94 1103.33 c 0,0,0
 624.29 1103.33 624.29 1103.33 705.955 1053.18 c 0,0,0
 787.62 1003.03 787.62 1003.03 830.98 906.02 c 1,0,0
 830.98 940.65 830.98 940.65 833.645 975.17 c 0,0,0
 836.31 1009.69 836.31 1009.69 840.64 1037.38 c 0,0,0
 844.97 1065.07 844.97 1065.07 846.97 1077.38 c 1,0,0
 1148.98 1077.38 l 1,0,0
 1146.31 1015.13 1146.31 1015.13 1144.81 957.09 c 0,0,0
 1143.31 899.05 1143.31 899.05 1143.31 843.56 c 2,0,0
 1143.31 -425 l 1,0,0
 831.64 -425 l 1,0,0
 831.64 28.63 l 1,0,0
 836.97 180.66 l 1,0,0
 834.97 180.66 l 1,0,0
 791.61 82.97 791.61 82.97 699.975 31.485 c 0,0,0
 608.34 -20 608.34 -20 477.35 -20 c 0,0,0
 293.96 -20 293.96 -20 188.65 130.305 c 0,0,0
 83.34 280.61 83.34 280.61 83.34 541.32 c 0,0,0
834.3 543.36 m 0,0,0
 834.3 703.82 834.3 703.82 779.93 797.175 c 0,0,0
 725.56 890.53 725.56 890.53 625.1 890.53 c 0,0,0
 521.35 890.53 521.35 890.53 466.005 801.165 c 0,0,0
 410.66 711.8 410.66 711.8 410.66 539.34 c 0,0,0
 410.66 369.53 410.66 369.53 464.51 279.51 c 0,0,0
 518.36 189.49 518.36 189.49 623.1 189.49 c 0,0,0
 718.91 189.49 718.91 189.49 776.605 283.195 c 0,0,0
 834.3 376.9 834.3 376.9 834.3 543.36 c 0,0,0
EndSplineSet
EndChar

StartChar: r
Encoding: 114 114 85
Width: 834
GlyphClass: 2
Flags: W
LayerCount: 2
Fore
SplineSet
457.66 520.11 m 2,0,0
 457.66 0 l 1,0,0
 143.33 0 l 1,0,0
 143.33 827.34 l 2,0,0
 143.33 926.9 143.33 926.9 140.5 985.245 c 0,0,0
 137.67 1043.59 137.67 1043.59 134.67 1082 c 1,0,0
 435.01 1082 l 1,0,0
 437.01 1085.21 437.01 1085.21 439.175 1056.19 c 0,0,0
 441.34 1027.17 441.34 1027.17 443.67 985.04 c 0,0,0
 446 942.91 446 942.91 447.83 903.795 c 0,0,0
 449.66 864.68 449.66 864.68 449.66 847.7 c 1,0,0
 453.66 847.7 l 1,0,0
 496.96 964.32 496.96 964.32 528.97 1011.67 c 0,0,0
 559.98 1057.68 559.98 1057.68 603.65 1080.505 c 0,0,0
 647.32 1103.33 647.32 1103.33 713.32 1103.33 c 0,0,0
 772.93 1103.33 772.93 1103.33 804.94 1086.68 c 1,0,0
 804.94 828.58 l 1,0,0
 727.05 845.23 727.05 845.23 677.02 845.23 c 0,0,0
 574.33 845.23 574.33 845.23 515.995 764.025 c 0,0,0
 457.66 682.82 457.66 682.82 457.66 520.11 c 2,0,0
EndSplineSet
EndChar

StartChar: s
Encoding: 115 115 86
Width: 1176
GlyphClass: 2
Flags: W
LayerCount: 2
Fore
SplineSet
1089.65 321.61 m 0,0,0
 1089.65 163.29 1089.65 163.29 956.86 71.645 c 0,0,0
 824.07 -20 824.07 -20 590.8 -20 c 0,0,0
 360.87 -20 360.87 -20 239.4 51.82 c 0,0,0
 117.93 123.64 117.93 123.64 76.95 275.28 c 1,0,0
 352.99 314.26 l 1,0,0
 373.33 240.56 373.33 240.56 418.065 211.365 c 0,0,0
 462.8 182.17 462.8 182.17 590.8 182.17 c 0,0,0
 702.53 182.17 702.53 182.17 753.395 208.21 c 0,0,0
 804.26 234.25 804.26 234.25 804.26 291.65 c 0,0,0
 804.26 339.69 804.26 339.69 760.925 367.055 c 0,0,0
 717.59 394.42 717.59 394.42 611.61 413.77 c 0,0,0
 544.82 424.82 544.82 424.82 484.3 438.17 c 0,0,0
 423.78 451.52 423.78 451.52 376.805 466.02 c 0,0,0
 329.83 480.52 329.83 480.52 299.85 493.52 c 0,0,0
 211.24 535.51 211.24 535.51 165.595 602.48 c 0,0,0
 119.95 669.45 119.95 669.45 119.95 768.07 c 0,0,0
 119.95 925.38 119.95 925.38 244.07 1014.85 c 0,0,0
 368.19 1104.32 368.19 1104.32 592.8 1104.32 c 0,0,0
 790.42 1104.32 790.42 1104.32 911.88 1025.36 c 0,0,0
 1033.34 946.4 1033.34 946.4 1062.67 803.41 c 1,0,0
 784.96 775.43 l 1,0,0
 773.95 839.45 773.95 839.45 733.055 869.97 c 0,0,0
 692.16 900.49 692.16 900.49 592.8 900.49 c 0,0,0
 500.06 900.49 500.06 900.49 452.7 878.785 c 0,0,0
 405.34 857.08 405.34 857.08 405.34 802.03 c 0,0,0
 405.34 757.67 405.34 757.67 445.655 732.81 c 0,0,0
 485.97 707.95 485.97 707.95 576.31 691.6 c 0,0,0
 703.97 666.92 703.97 666.92 797.685 642.06 c 0,0,0
 891.4 617.2 891.4 617.2 955.03 578.21 c 0,0,0
 1014.69 541.2 1014.69 541.2 1052.17 480.38 c 0,0,0
 1089.65 419.56 1089.65 419.56 1089.65 321.61 c 0,0,0
EndSplineSet
EndChar

StartChar: t
Encoding: 116 116 87
Width: 719
GlyphClass: 2
Flags: W
LayerCount: 2
Fore
SplineSet
690.99 18.64 m 1,0,0
 584.37 -18.66 584.37 -18.66 435.84 -18.66 c 0,0,0
 306.56 -18.66 306.56 -18.66 235.27 50.82 c 0,0,0
 163.98 120.3 163.98 120.3 163.98 262.25 c 2,0,0
 163.98 872.53 l 1,0,0
 23.02 872.53 l 1,0,0
 23.02 1082 l 1,0,0
 180.29 1082 l 1,0,0
 279.84 1339.96 l 1,0,0
 474.32 1339.96 l 1,0,0
 474.32 1082 l 1,0,0
 680.97 1082 l 1,0,0
 680.97 872.53 l 1,0,0
 474.32 872.53 l 1,0,0
 474.32 350.46 l 2,0,0
 474.32 271.13 474.32 271.13 505.805 231.65 c 0,0,0
 537.29 192.17 537.29 192.17 600.29 192.17 c 0,0,0
 628.97 192.17 628.97 192.17 690.99 206.17 c 1,0,0
 690.99 18.64 l 1,0,0
EndSplineSet
EndChar

StartChar: u
Encoding: 117 117 88
Width: 1287
GlyphClass: 2
Flags: W
LayerCount: 2
Fore
SplineSet
833.97 224.9 m 1,0,0
 779.95 98.27 779.95 98.27 691.8 39.135 c 0,0,0
 603.65 -20 603.65 -20 485.31 -20 c 0,0,0
 315.29 -20 315.29 -20 220.155 91.11 c 0,0,0
 125.02 202.22 125.02 202.22 125.02 406.22 c 2,0,0
 125.02 1082 l 1,0,0
 439.02 1082 l 1,0,0
 439.02 501.07 l 2,0,0
 439.02 365.67 439.02 365.67 486.195 289.55 c 0,0,0
 533.37 213.43 533.37 213.43 620.79 213.43 c 0,0,0
 713.55 213.43 713.55 213.43 771.925 300.435 c 0,0,0
 830.3 387.44 830.3 387.44 830.3 517.51 c 2,0,0
 830.3 1082 l 1,0,0
 1144.63 1082 l 1,0,0
 1144.63 245.63 l 2,0,0
 1144.63 184.88 1144.63 184.88 1146.795 123.555 c 0,0,0
 1148.96 62.23 1148.96 62.23 1153.29 0 c 1,0,0
 852.95 0 l 1,0,0
 845.3 94.11 845.3 94.11 842.135 152.07 c 0,0,0
 838.97 210.03 838.97 210.03 839.63 224.9 c 1,0,0
 833.97 224.9 l 1,0,0
EndSplineSet
EndChar

StartChar: v
Encoding: 118 118 89
Width: 1176
GlyphClass: 2
Flags: W
LayerCount: 2
Fore
SplineSet
1167.29 1082 m 1,0,0
 769.94 0 l 1,0,0
 393.35 0 l 1,0,0
 8.33 1082 l 1,0,0
 339.98 1082 l 1,0,0
 512.81 509.67 l 2,0,0
 521.14 483.02 521.14 483.02 538.805 419.53 c 0,0,0
 556.47 356.04 556.47 356.04 584.47 255.38 c 1,0,0
 585.5 261.13 585.5 261.13 598 302.965 c 0,0,0
 610.5 344.8 610.5 344.8 626.325 398.1 c 0,0,0
 642.15 451.4 642.15 451.4 653.15 486.39 c 2,0,0
 839.3 1082 l 1,0,0
 1167.29 1082 l 1,0,0
EndSplineSet
EndChar

StartChar: w
Encoding: 119 119 90
Width: 1630
GlyphClass: 2
Flags: W
LayerCount: 2
Fore
SplineSet
758.53 622.69 m 2,0,0
 591.79 0 l 1,0,0
 265.42 0 l 1,0,0
 -6.99 1082 l 1,0,0
 285.39 1082 l 1,0,0
 407.55 477.97 l 2,0,0
 418.21 427.35 418.21 427.35 427.88 381.01 c 0,0,0
 447.55 289.98 l 1,0,0
 457.22 338.31 457.22 338.31 464.065 386.64 c 0,0,0
 470.91 434.97 470.91 434.97 484.24 482.3 c 2,0,0
 645.33 1082 l 1,0,0
 981.97 1082 l 1,0,0
 1140.38 481.31 l 2,0,0
 1145.73 462.24 1145.73 462.24 1155.9 414.905 c 0,0,0
 1166.07 367.57 1166.07 367.57 1179.73 289.98 c 1,0,0
 1190.73 337.98 1190.73 337.98 1200.9 383.83 c 0,0,0
 1211.07 429.68 1211.07 429.68 1221.07 480.32 c 2,0,0
 1346.57 1082 l 1,0,0
 1634.29 1082 l 1,0,0
 1358.87 0 l 1,0,0
 1032.83 0 l 1,0,0
 866.44 625.35 l 2,0,0
 861.76 642.08 861.76 642.08 848.605 701.87 c 0,0,0
 835.45 761.66 835.45 761.66 815.81 864.84 c 1,0,0
 799.84 797.62 799.84 797.62 787.345 740.465 c 0,0,0
 774.85 683.31 774.85 683.31 758.53 622.69 c 2,0,0
EndSplineSet
EndChar

StartChar: x
Encoding: 120 120 91
Width: 1176
GlyphClass: 2
Flags: W
LayerCount: 2
Fore
SplineSet
585.81 374.84 m 1,0,0
 344.68 0 l 1,0,0
 11.03 0 l 1,0,0
 410.66 559.99 l 1,0,0
 30.36 1082 l 1,0,0
 367.68 1082 l 1,0,0
 585.81 750.11 l 1,0,0
 803.27 1082 l 1,0,0
 1142.59 1082 l 1,0,0
 762.29 563.32 l 1,0,0
 1164.26 0 l 1,0,0
 824.94 0 l 1,0,0
 585.81 374.84 l 1,0,0
EndSplineSet
EndChar

StartChar: y
Encoding: 121 121 92
Width: 1176
GlyphClass: 2
Flags: W
LayerCount: 2
Fore
SplineSet
313.36 -425 m 0,0,0
 200.13 -425 200.13 -425 118.87 -411.34 c 1,0,0
 118.87 -189.89 l 1,0,0
 180.81 -198.55 180.81 -198.55 220.16 -198.55 c 0,0,0
 322.78 -198.55 322.78 -198.55 363.69 -148.685 c 0,0,0
 404.6 -98.82 404.6 -98.82 447.3 12.98 c 1,0,0
 19.63 1082 l 1,0,0
 351.28 1082 l 1,0,0
 502.14 605.03 l 2,0,0
 520.49 553 520.49 553 544.335 469.34 c 0,0,0
 568.18 385.68 568.18 385.68 604.13 255.85 c 1,0,0
 626.47 354.78 626.47 354.78 645.985 435.42 c 0,0,0
 665.5 516.06 665.5 516.06 690.83 602.02 c 2,0,0
 835.32 1082 l 1,0,0
 1163.64 1082 l 1,0,0
 731.68 -75.81 l 2,0,0
 708.32 -139.2 708.32 -139.2 679.98 -188.405 c 0,0,0
 651.64 -237.61 651.64 -237.61 621.31 -278.28 c 0,0,0
 559.32 -360.62 559.32 -360.62 486.825 -392.81 c 0,0,0
 414.33 -425 414.33 -425 313.36 -425 c 0,0,0
EndSplineSet
EndChar

StartChar: z
Encoding: 122 122 93
Width: 1024
GlyphClass: 2
Flags: W
LayerCount: 2
Fore
SplineSet
959.24 226.78 m 1,0,0
 959.24 0 l 1,0,0
 81.67 0 l 1,0,0
 81.67 219.46 l 1,0,0
 558.99 857.88 l 1,0,0
 124.98 857.88 l 1,0,0
 124.98 1082 l 1,0,0
 901 1082 l 1,0,0
 901 859.88 l 1,0,0
 428 226.78 l 1,0,0
 959.24 226.78 l 1,0,0
EndSplineSet
EndChar

StartChar: braceleft
Encoding: 123 123 94
Width: 834
GlyphClass: 2
Flags: W
LayerCount: 2
Fore
SplineSet
571.52 -425 m 2,0,0
 435.21 -425 435.21 -425 350.75 -346.005 c 0,0,0
 266.29 -267.01 266.29 -267.01 266.29 -124.02 c 2,0,0
 266.29 193.09 l 2,0,0
 266.29 306.1 266.29 306.1 210.465 362.27 c 0,0,0
 154.64 418.44 154.64 418.44 32.67 419.45 c 1,0,0
 32.67 636.89 l 1,0,0
 157.63 642.22 157.63 642.22 211.96 698.39 c 0,0,0
 266.29 754.56 266.29 754.56 266.29 866.24 c 2,0,0
 266.29 1183.02 l 2,0,0
 266.29 1330.67 266.29 1330.67 348.75 1407.335 c 0,0,0
 431.21 1484 431.21 1484 571.52 1484 c 2,0,0
 788.98 1484 l 1,0,0
 788.98 1273.87 l 1,0,0
 732.63 1273.87 l 2,0,0
 641.63 1273.87 641.63 1273.87 600.47 1222.365 c 0,0,0
 559.31 1170.86 559.31 1170.86 559.31 1066.85 c 2,0,0
 559.31 784 l 2,0,0
 559.31 688.67 559.31 688.67 500.325 619.505 c 0,0,0
 441.34 550.34 441.34 550.34 348.02 532 c 1,0,0
 348.02 527.34 l 1,0,0
 445 505.01 445 505.01 502.155 436.345 c 0,0,0
 559.31 367.68 559.31 367.68 559.31 276 c 2,0,0
 559.31 -6.52 l 2,0,0
 559.31 -112.52 559.31 -112.52 600.47 -163.03 c 0,0,0
 641.63 -213.54 641.63 -213.54 732.63 -213.54 c 2,0,0
 788.98 -213.54 l 1,0,0
 788.98 -425 l 1,0,0
 571.52 -425 l 2,0,0
EndSplineSet
EndChar

StartChar: bar
Encoding: 124 124 95
Width: 586
GlyphClass: 2
Flags: W
LayerCount: 2
Fore
SplineSet
440.77 1484 m 1,0,0
 440.77 -461.93 l 1,0,0
 147.09 -461.93 l 1,0,0
 147.09 1484 l 1,0,0
 440.77 1484 l 1,0,0
EndSplineSet
EndChar

StartChar: braceright
Encoding: 125 125 96
Width: 834
GlyphClass: 2
Flags: W
LayerCount: 2
Fore
SplineSet
45.97 -213.54 m 1,0,0
 101.98 -213.54 l 2,0,0
 195.64 -213.54 195.64 -213.54 235.14 -163.03 c 0,0,0
 274.64 -112.52 274.64 -112.52 274.64 -6.52 c 2,0,0
 274.64 276 l 2,0,0
 274.64 366.02 274.64 366.02 332.625 435.35 c 0,0,0
 390.61 504.68 390.61 504.68 486.26 527.34 c 1,0,0
 486.26 532 l 1,0,0
 393.61 550.67 393.61 550.67 334.125 619.5 c 0,0,0
 274.64 688.33 274.64 688.33 274.64 784 c 2,0,0
 274.64 1066.85 l 2,0,0
 274.64 1170.86 274.64 1170.86 235.14 1222.365 c 0,0,0
 195.64 1273.87 195.64 1273.87 101.98 1273.87 c 2,0,0
 45.97 1273.87 l 1,0,0
 45.97 1484 l 1,0,0
 264.42 1484 l 2,0,0
 404.73 1484 404.73 1484 487.19 1407.335 c 0,0,0
 569.65 1330.67 569.65 1330.67 569.65 1183.02 c 2,0,0
 569.65 866.24 l 2,0,0
 569.65 755.56 569.65 755.56 625.31 698.89 c 0,0,0
 680.97 642.22 680.97 642.22 805.27 636.89 c 1,0,0
 805.27 419.45 l 1,0,0
 681.3 418.11 681.3 418.11 625.475 360.11 c 0,0,0
 569.65 302.11 569.65 302.11 569.65 193.09 c 2,0,0
 569.65 -124.02 l 2,0,0
 569.65 -266.01 569.65 -266.01 485.855 -345.505 c 0,0,0
 402.06 -425 402.06 -425 264.42 -425 c 2,0,0
 45.97 -425 l 1,0,0
 45.97 -213.54 l 1,0,0
EndSplineSet
EndChar

StartChar: asciitilde
Encoding: 126 126 97
Width: 1196
GlyphClass: 2
Flags: W
LayerCount: 2
Fore
SplineSet
854.64 503.79 m 0,0,0
 777.66 503.79 777.66 503.79 705.16 524.46 c 0,0,0
 632.66 545.13 632.66 545.13 557 571.13 c 0,0,0
 418.69 618.79 418.69 618.79 334.68 618.79 c 0,0,0
 262.36 618.79 262.36 618.79 202.365 596.96 c 0,0,0
 142.37 575.13 142.37 575.13 77.37 530.79 c 1,0,0
 77.37 766.89 l 1,0,0
 191.03 850.89 191.03 850.89 351.01 850.89 c 0,0,0
 471.51 850.89 471.51 850.89 634.59 792.67 c 0,0,0
 711.81 764.39 711.81 764.39 756.485 749.89 c 0,0,0
 801.16 735.39 801.16 735.39 812.96 735 c 0,0,0
 835.98 730.98 835.98 730.98 848.1 732.435 c 0,0,0
 860.22 733.89 860.22 733.89 874.63 733.89 c 0,0,0
 1008.95 733.89 1008.95 733.89 1123.95 825.89 c 1,0,0
 1123.95 583.79 l 1,0,0
 1057.97 539.13 1057.97 539.13 999.47 521.46 c 0,0,0
 940.97 503.79 940.97 503.79 854.64 503.79 c 0,0,0
EndSplineSet
EndChar

StartChar: exclamdown
Encoding: 161 161 99
Width: 682
GlyphClass: 2
Flags: W
LayerCount: 2
Fore
SplineSet
503.84 1082 m 1,0,0
 503.84 789.23 l 1,0,0
 184.82 789.23 l 1,0,0
 184.82 1082 l 1,0,0
 503.84 1082 l 1,0,0
178.16 -327 m 1,0,0
 212.8 643.77 l 1,0,0
 469.86 643.77 l 1,0,0
 504.5 -327 l 1,0,0
 178.16 -327 l 1,0,0
EndSplineSet
EndChar

StartChar: cent
Encoding: 162 162 100
Width: 1139
GlyphClass: 2
Flags: W
LayerCount: 2
Fore
SplineSet
585.36 360.79 m 0,0,0
 670.72 360.79 670.72 360.79 728.57 416.115 c 0,0,0
 786.42 471.44 786.42 471.44 800.09 568.8 c 1,0,0
 1116.42 556.8 l 1,0,0
 1093.43 400.83 1093.43 400.83 975.82 295.865 c 0,0,0
 858.21 190.9 858.21 190.9 669.98 167.59 c 1,0,0
 669.98 -31 l 1,0,0
 495.44 -31 l 1,0,0
 495.44 164.93 l 1,0,0
 275.16 186.92 275.16 186.92 149.22 320.775 c 0,0,0
 23.28 454.63 23.28 454.63 23.28 682.37 c 0,0,0
 23.28 907.44 23.28 907.44 145.895 1047.615 c 0,0,0
 268.51 1187.79 268.51 1187.79 495.44 1215.43 c 1,0,0
 495.44 1409 l 1,0,0
 669.98 1409 l 1,0,0
 669.98 1215.43 l 1,0,0
 847.56 1195.11 847.56 1195.11 962.83 1098.145 c 0,0,0
 1078.1 1001.18 1078.1 1001.18 1106.43 846.22 c 1,0,0
 792.42 832.22 l 1,0,0
 777.09 923.55 777.09 923.55 721.42 971.895 c 0,0,0
 665.75 1020.24 665.75 1020.24 583.36 1020.24 c 0,0,0
 465.63 1020.24 465.63 1020.24 401.63 929.23 c 0,0,0
 337.63 838.22 337.63 838.22 337.63 694.35 c 0,0,0
 337.63 534.21 337.63 534.21 403.635 447.5 c 0,0,0
 469.64 360.79 469.64 360.79 585.36 360.79 c 0,0,0
EndSplineSet
EndChar

StartChar: sterling
Encoding: 163 163 101
Width: 1139
GlyphClass: 2
Flags: W
LayerCount: 2
Fore
SplineSet
1071.28 0 m 1,0,0
 19.79 0 l 1,0,0
 19.79 221.83 l 1,0,0
 126.08 283.79 126.08 283.79 161.765 353.15 c 0,0,0
 197.45 422.51 197.45 422.51 197.45 522.23 c 2,0,0
 197.45 597.07 l 1,0,0
 8.79 597.07 l 1,0,0
 8.79 780.6 l 1,0,0
 184.15 780.6 l 1,0,0
 184.15 1018.04 l 2,0,0
 184.15 1221.02 184.15 1221.02 292.47 1325.51 c 0,0,0
 400.79 1430 400.79 1430 618.07 1430 c 0,0,0
 794.33 1430 794.33 1430 890.34 1358.195 c 0,0,0
 986.35 1286.39 986.35 1286.39 1033.65 1118.87 c 1,0,0
 781.18 1075.17 l 1,0,0
 760.18 1156.46 760.18 1156.46 723.965 1190.635 c 0,0,0
 687.75 1224.81 687.75 1224.81 623.4 1224.81 c 0,0,0
 539.99 1224.81 539.99 1224.81 505.27 1167.31 c 0,0,0
 470.55 1109.81 470.55 1109.81 470.55 984.81 c 2,0,0
 470.55 780.6 l 1,0,0
 716.29 780.6 l 1,0,0
 716.29 597.07 l 1,0,0
 470.55 597.07 l 1,0,0
 470.55 518.95 l 2,0,0
 470.55 421.23 470.55 421.23 431.2 354.83 c 0,0,0
 391.85 288.43 391.85 288.43 284.26 227.48 c 1,0,0
 1071.28 227.48 l 1,0,0
 1071.28 0 l 1,0,0
EndSplineSet
EndChar

StartChar: currency
Encoding: 164 164 102
Width: 1139
GlyphClass: 2
Flags: W
LayerCount: 2
Fore
SplineSet
133.01 684 m 0,0,0
 133.01 799.39 133.01 799.39 187.07 894.77 c 1,0,0
 43.18 1038.66 l 1,0,0
 217.67 1212.15 l 1,0,0
 359.23 1068.59 l 1,0,0
 456.27 1120 456.27 1120 568.01 1120 c 0,0,0
 684.06 1120 684.06 1120 776.45 1067.93 c 1,0,0
 923.99 1215.47 l 1,0,0
 1099.81 1039.98 l 1,0,0
 950.61 892.11 l 1,0,0
 1004.01 799.38 1004.01 799.38 1004.01 684 c 0,0,0
 1004.01 571.6 1004.01 571.6 953.93 478.55 c 1,0,0
 1099.15 334.66 l 1,0,0
 922.67 156.51 l 1,0,0
 779.11 302.73 l 1,0,0
 682.4 250 682.4 250 568.01 250 c 0,0,0
 452.61 250 452.61 250 358.57 299.41 c 1,0,0
 213.67 151.85 l 1,0,0
 38.52 327.34 l 1,0,0
 184.41 475.89 l 1,0,0
 133.01 568.61 133.01 568.61 133.01 684 c 0,0,0
382.77 686 m 0,0,0
 382.77 635.93 382.77 635.93 407.305 593.71 c 0,0,0
 431.84 551.49 431.84 551.49 473.895 525.96 c 0,0,0
 515.95 500.43 515.95 500.43 568.01 500.43 c 0,0,0
 618.74 500.43 618.74 500.43 660.295 525.96 c 0,0,0
 701.85 551.49 701.85 551.49 727.05 594.375 c 0,0,0
 752.25 637.26 752.25 637.26 752.25 686 c 0,0,0
 752.25 737.4 752.25 737.4 727.715 778.79 c 0,0,0
 703.18 820.18 703.18 820.18 661.625 845.71 c 0,0,0
 620.07 871.24 620.07 871.24 568.01 871.24 c 0,0,0
 515.95 871.24 515.95 871.24 474.395 846.375 c 0,0,0
 432.84 821.51 432.84 821.51 407.805 779.29 c 0,0,0
 382.77 737.07 382.77 737.07 382.77 686 c 0,0,0
EndSplineSet
EndChar

StartChar: yen
Encoding: 165 165 103
Width: 1139
GlyphClass: 2
Flags: W
LayerCount: 2
Fore
SplineSet
719.18 213.89 m 1,0,0
 719.18 0 l 1,0,0
 416.16 0 l 1,0,0
 416.16 213.89 l 1,0,0
 95.01 213.89 l 1,0,0
 95.01 367.49 l 1,0,0
 416.16 367.49 l 1,0,0
 418.16 532.13 l 1,0,0
 95.01 532.13 l 1,0,0
 95.01 685.06 l 1,0,0
 356.49 685.06 l 1,0,0
 11.3 1409 l 1,0,0
 330 1409 l 1,0,0
 566.67 829.83 l 1,0,0
 807.34 1409 l 1,0,0
 1126.04 1409 l 1,0,0
 781.18 685.06 l 1,0,0
 1042.33 685.06 l 1,0,0
 1042.33 532.13 l 1,0,0
 719.18 532.13 l 1,0,0
 719.18 367.49 l 1,0,0
 1042.33 367.49 l 1,0,0
 1042.33 213.89 l 1,0,0
 719.18 213.89 l 1,0,0
EndSplineSet
EndChar

StartChar: brokenbar
Encoding: 166 166 104
Width: 586
GlyphClass: 2
Flags: W
LayerCount: 2
Fore
SplineSet
440.77 1444.1 m 1,0,0
 440.77 666.1 l 1,0,0
 147.09 666.1 l 1,0,0
 147.09 1444.1 l 1,0,0
 440.77 1444.1 l 1,0,0
440.77 317.07 m 1,0,0
 440.77 -461.93 l 1,0,0
 147.09 -461.93 l 1,0,0
 147.09 317.07 l 1,0,0
 440.77 317.07 l 1,0,0
EndSplineSet
EndChar

StartChar: section
Encoding: 167 167 105
Width: 1139
GlyphClass: 2
Flags: W
LayerCount: 2
Fore
SplineSet
570.71 1408.19 m 0,0,0
 771.64 1408.19 771.64 1408.19 892.77 1336.37 c 0,0,0
 1013.9 1264.55 1013.9 1264.55 1040.9 1129.57 c 1,0,0
 776.16 1102.92 l 1,0,0
 763.16 1160.63 763.16 1160.63 708.14 1192.81 c 0,0,0
 653.12 1224.99 653.12 1224.99 570.71 1224.99 c 0,0,0
 463 1224.99 463 1224.99 414.46 1198.79 c 0,0,0
 365.92 1172.59 365.92 1172.59 365.92 1109.57 c 0,0,0
 365.92 1070.88 365.92 1070.88 392.43 1044.525 c 0,0,0
 418.94 1018.17 418.94 1018.17 465.96 998.82 c 0,0,0
 513.65 978.14 513.65 978.14 644.31 949.8 c 0,0,0
 815.24 911.81 815.24 911.81 901.23 869.81 c 0,0,0
 981.89 829.14 981.89 829.14 1024.225 767.48 c 0,0,0
 1066.56 705.82 1066.56 705.82 1066.56 616.84 c 0,0,0
 1066.56 525.82 1066.56 525.82 1013.045 455.475 c 0,0,0
 959.53 385.13 959.53 385.13 876.82 357.14 c 1,0,0
 960.89 319.78 960.89 319.78 1004.075 256.61 c 0,0,0
 1047.26 193.44 1047.26 193.44 1047.26 105.1 c 0,0,0
 1047.26 -68.17 1047.26 -68.17 918.46 -157.99 c 0,0,0
 789.66 -247.81 789.66 -247.81 549.07 -247.81 c 0,0,0
 321.45 -247.81 321.45 -247.81 197.32 -177.32 c 0,0,0
 73.19 -106.83 73.19 -106.83 32.54 45.47 c 1,0,0
 294.62 84.45 l 1,0,0
 314.62 7.75 314.62 7.75 373.975 -28.595 c 0,0,0
 433.33 -64.94 433.33 -64.94 549.07 -64.94 c 0,0,0
 666.45 -64.94 666.45 -64.94 726.315 -36.235 c 0,0,0
 786.18 -7.53 786.18 -7.53 786.18 71.81 c 0,0,0
 786.18 116.84 786.18 116.84 764.985 144.7 c 0,0,0
 743.79 172.56 743.79 172.56 696.42 192.25 c 0,0,0
 647.39 213.27 647.39 213.27 451.5 258.25 c 0,0,0
 241.54 308.57 241.54 308.57 156.04 386.57 c 0,0,0
 70.54 464.57 70.54 464.57 70.54 576.57 c 0,0,0
 70.54 670.89 70.54 670.89 123.395 731.59 c 0,0,0
 176.25 792.29 176.25 792.29 278.59 828.94 c 1,0,0
 190.57 868.92 190.57 868.92 143.715 937.25 c 0,0,0
 96.86 1005.58 96.86 1005.58 96.86 1088.92 c 0,0,0
 96.86 1241.22 96.86 1241.22 218.32 1324.705 c 0,0,0
 339.78 1408.19 339.78 1408.19 570.71 1408.19 c 0,0,0
802.16 579.21 m 0,0,0
 802.16 649.88 802.16 649.88 746.46 683.26 c 0,0,0
 688.43 716.31 688.43 716.31 517.75 747 c 1,0,0
 424.71 734.35 424.71 734.35 382.155 700.635 c 0,0,0
 339.6 666.92 339.6 666.92 339.6 608.19 c 0,0,0
 339.6 569.83 339.6 569.83 365.61 545.3 c 0,0,0
 391.62 520.77 391.62 520.77 439.97 501.75 c 0,0,0
 484 484.06 484 484.06 626.63 452.39 c 1,0,0
 717.7 458.38 717.7 458.38 759.93 488.93 c 0,0,0
 802.16 519.48 802.16 519.48 802.16 579.21 c 0,0,0
EndSplineSet
EndChar

StartChar: dieresis
Encoding: 168 168 106
Width: 682
GlyphClass: 2
Flags: W
LayerCount: 2
Fore
SplineSet
688.45 1422.95 m 1,0,0
 688.45 1192.4 l 1,0,0
 453.63 1192.4 l 1,0,0
 453.63 1422.95 l 1,0,0
 688.45 1422.95 l 1,0,0
236.6 1422.95 m 1,0,0
 236.6 1192.4 l 1,0,0
 6.43 1192.4 l 1,0,0
 6.43 1422.95 l 1,0,0
 236.6 1422.95 l 1,0,0
EndSplineSet
EndChar

StartChar: copyright
Encoding: 169 169 107
Width: 1509
GlyphClass: 2
Flags: W
LayerCount: 2
Fore
SplineSet
1478.33 707 m 0,0,0
 1478.33 514 1478.33 514 1382.33 346 c 0,0,0
 1285.33 177 1285.33 177 1116.83 80.5 c 0,0,0
 948.33 -16 948.33 -16 755.33 -16 c 0,0,0
 559.33 -16 559.33 -16 389.33 85 c 0,0,0
 220.33 186 220.33 186 126.33 352 c 0,0,0
 32.33 518 32.33 518 32.33 707 c 0,0,0
 32.33 901 32.33 901 129.33 1068 c 0,0,0
 226.33 1236 226.33 1236 394.33 1333 c 0,0,0
 562.33 1430 562.33 1430 755.33 1430 c 0,0,0
 949.33 1430 949.33 1430 1118.33 1333 c 0,0,0
 1286.33 1236 1286.33 1236 1382.33 1068.5 c 0,0,0
 1478.33 901 1478.33 901 1478.33 707 c 0,0,0
1359.73 707 m 0,0,0
 1359.73 869.35 1359.73 869.35 1278.39 1007.7 c 0,0,0
 1197.05 1146.38 1197.05 1146.38 1056.535 1227.39 c 0,0,0
 916.02 1308.4 916.02 1308.4 755.33 1308.4 c 0,0,0
 601.96 1308.4 601.96 1308.4 463.94 1232.38 c 0,0,0
 325.92 1156.69 325.92 1156.69 239.925 1016.675 c 0,0,0
 153.93 876.66 153.93 876.66 153.93 707 c 0,0,0
 153.93 546.31 153.93 546.31 234.94 405.3 c 0,0,0
 314.95 264.62 314.95 264.62 453.965 183.28 c 0,0,0
 592.98 101.94 592.98 101.94 755.33 101.94 c 0,0,0
 917.68 101.94 917.68 101.94 1058.03 183.28 c 0,0,0
 1198.38 264.62 1198.38 264.62 1279.055 405.3 c 0,0,0
 1359.73 545.98 1359.73 545.98 1359.73 707 c 0,0,0
559.18 709 m 0,0,0
 559.18 580.6 559.18 580.6 614.22 510.395 c 0,0,0
 669.26 440.19 669.26 440.19 768.99 440.19 c 0,0,0
 900.39 440.19 900.39 440.19 952.78 578.9 c 1,0,0
 1127.63 527.94 l 1,0,0
 1070.95 401.62 1070.95 401.62 983.125 344.3 c 0,0,0
 895.3 286.98 895.3 286.98 768.99 286.98 c 0,0,0
 574.34 286.98 574.34 286.98 468.345 397.32 c 0,0,0
 362.35 507.66 362.35 507.66 362.35 709 c 0,0,0
 362.35 912 362.35 912 465.01 1016.515 c 0,0,0
 567.67 1121.03 567.67 1121.03 759.33 1121.03 c 0,0,0
 1023.28 1121.03 1023.28 1121.03 1116.62 885.43 c 1,0,0
 946.76 841.79 l 1,0,0
 922.74 900.15 922.74 900.15 877.375 934.15 c 0,0,0
 832.01 968.15 832.01 968.15 765.32 968.15 c 0,0,0
 662.26 968.15 662.26 968.15 610.72 901.615 c 0,0,0
 559.18 835.08 559.18 835.08 559.18 709 c 0,0,0
EndSplineSet
EndChar

StartChar: ordfeminine
Encoding: 170 170 108
Width: 758
GlyphClass: 2
Flags: W
LayerCount: 2
Fore
SplineSet
256.01 749.42 m 0,0,0
 162.64 749.42 162.64 749.42 106.955 800.105 c 0,0,0
 51.27 850.79 51.27 850.79 51.27 945.81 c 0,0,0
 51.27 1141.58 51.27 1141.58 326.03 1146.58 c 2,0,0
 462.8 1147.92 l 1,0,0
 462.8 1183.98 l 2,0,0
 462.8 1235.72 462.8 1235.72 439.77 1263.41 c 0,0,0
 416.74 1291.1 416.74 1291.1 374.31 1291.1 c 0,0,0
 328.59 1291.1 328.59 1291.1 304.715 1269.58 c 0,0,0
 280.84 1248.06 280.84 1248.06 277.16 1210.63 c 1,0,0
 73.63 1219.3 l 1,0,0
 92.29 1314.66 92.29 1314.66 170.46 1364.685 c 0,0,0
 248.63 1414.71 248.63 1414.71 373.64 1414.71 c 0,0,0
 509.33 1414.71 509.33 1414.71 583.5 1354.205 c 0,0,0
 657.67 1293.7 657.67 1293.7 657.67 1184.66 c 2,0,0
 657.67 971.09 l 2,0,0
 657.67 926.39 657.67 926.39 665.02 901.39 c 0,0,0
 672.37 876.39 672.37 876.39 704.71 877.72 c 0,0,0
 717.37 879.05 717.37 879.05 730.53 880.385 c 0,0,0
 743.69 881.72 743.69 881.72 755.69 881.73 c 1,0,0
 755.69 771.08 l 1,0,0
 686.41 751.43 686.41 751.43 624.81 751.43 c 0,0,0
 554.47 751.43 554.47 751.43 513.97 787.435 c 0,0,0
 473.47 823.44 473.47 823.44 468.14 883.12 c 1,0,0
 465.47 883.12 l 1,0,0
 393.8 749.42 393.8 749.42 256.01 749.42 c 0,0,0
337.57 887.02 m 0,0,0
 389 887.02 389 887.02 425.9 931.39 c 0,0,0
 462.8 975.76 462.8 975.76 462.8 1036.14 c 2,0,0
 462.8 1050.6 l 1,0,0
 385.98 1049.26 l 2,0,0
 307.88 1047.25 307.88 1047.25 280.51 1026.22 c 0,0,0
 253.14 1005.19 253.14 1005.19 253.14 960.14 c 0,0,0
 253.14 887.02 253.14 887.02 337.57 887.02 c 0,0,0
EndSplineSet
EndChar

StartChar: guillemotleft
Encoding: 171 171 109
Width: 1139
GlyphClass: 2
Flags: W
LayerCount: 2
Fore
SplineSet
1044.03 177.98 m 1,0,0
 1044.03 141 l 1,0,0
 780.93 141 l 1,0,0
 551.99 500.68 l 1,0,0
 551.99 574.32 l 1,0,0
 780.93 940 l 1,0,0
 1042.03 940 l 1,0,0
 1042.03 901.02 l 1,0,0
 815.75 537 l 1,0,0
 1044.03 177.98 l 1,0,0
588 177.98 m 1,0,0
 588 141 l 1,0,0
 327.23 141 l 1,0,0
 94.97 500.68 l 1,0,0
 94.97 574.32 l 1,0,0
 327.23 940 l 1,0,0
 586 940 l 1,0,0
 586 901.02 l 1,0,0
 358.73 537 l 1,0,0
 588 177.98 l 1,0,0
EndSplineSet
EndChar

StartChar: logicalnot
Encoding: 172 172 110
Width: 1196
GlyphClass: 2
Flags: W
LayerCount: 2
Fore
SplineSet
1116.28 805.87 m 1,0,0
 1116.28 128.13 l 1,0,0
 866.21 128.13 l 1,0,0
 866.21 556.13 l 1,0,0
 78.72 556.13 l 1,0,0
 78.72 805.87 l 1,0,0
 1116.28 805.87 l 1,0,0
EndSplineSet
EndChar

StartChar: registered
Encoding: 174 174 111
Width: 1509
GlyphClass: 2
Flags: W
LayerCount: 2
Fore
SplineSet
1478.33 707 m 0,0,0
 1478.33 514 1478.33 514 1382.33 346 c 0,0,0
 1285.33 177 1285.33 177 1116.83 80.5 c 0,0,0
 948.33 -16 948.33 -16 755.33 -16 c 0,0,0
 559.33 -16 559.33 -16 389.33 85 c 0,0,0
 220.33 186 220.33 186 126.33 352 c 0,0,0
 32.33 518 32.33 518 32.33 707 c 0,0,0
 32.33 901 32.33 901 129.33 1068 c 0,0,0
 226.33 1236 226.33 1236 394.33 1333 c 0,0,0
 562.33 1430 562.33 1430 755.33 1430 c 0,0,0
 949.33 1430 949.33 1430 1118.33 1333 c 0,0,0
 1286.33 1236 1286.33 1236 1382.33 1068.5 c 0,0,0
 1478.33 901 1478.33 901 1478.33 707 c 0,0,0
1359.73 707 m 0,0,0
 1359.73 869.35 1359.73 869.35 1278.39 1007.7 c 0,0,0
 1197.05 1146.38 1197.05 1146.38 1056.535 1227.39 c 0,0,0
 916.02 1308.4 916.02 1308.4 755.33 1308.4 c 0,0,0
 601.96 1308.4 601.96 1308.4 463.94 1232.38 c 0,0,0
 325.92 1156.69 325.92 1156.69 239.925 1016.675 c 0,0,0
 153.93 876.66 153.93 876.66 153.93 707 c 0,0,0
 153.93 546.31 153.93 546.31 234.94 405.3 c 0,0,0
 314.95 264.62 314.95 264.62 453.965 183.28 c 0,0,0
 592.98 101.94 592.98 101.94 755.33 101.94 c 0,0,0
 917.68 101.94 917.68 101.94 1058.03 183.28 c 0,0,0
 1198.38 264.62 1198.38 264.62 1279.055 405.3 c 0,0,0
 1359.73 545.98 1359.73 545.98 1359.73 707 c 0,0,0
638.89 605.05 m 1,0,0
 638.89 299.64 l 1,0,0
 444.06 299.64 l 1,0,0
 444.06 1109.36 l 1,0,0
 781.65 1109.36 l 2,0,0
 938.28 1109.36 938.28 1109.36 1014.445 1044.365 c 0,0,0
 1090.61 979.37 1090.61 979.37 1090.61 865.71 c 0,0,0
 1090.61 774.35 1090.61 774.35 1043.93 716.175 c 0,0,0
 997.25 658 997.25 658 921.56 631.02 c 1,0,0
 1131.92 299.64 l 1,0,0
 912.44 299.64 l 1,0,0
 741.37 605.05 l 1,0,0
 638.89 605.05 l 1,0,0
893.12 863.71 m 0,0,0
 893.12 916.75 893.12 916.75 858.92 944.77 c 0,0,0
 824.72 972.79 824.72 972.79 759.68 972.79 c 2,0,0
 638.89 972.79 l 1,0,0
 638.89 744.94 l 1,0,0
 770.35 744.94 l 2,0,0
 831.73 744.94 831.73 744.94 862.425 778.13 c 0,0,0
 893.12 811.32 893.12 811.32 893.12 863.71 c 0,0,0
EndSplineSet
EndChar

StartChar: macron
Encoding: 175 175 112
Width: 1131
GlyphClass: 2
Flags: W
LayerCount: 2
Fore
SplineSet
1148 1546 m 1,0,0
 1148 1452 l 1,0,0
 -17 1452 l 1,0,0
 -17 1546 l 1,0,0
 1148 1546 l 1,0,0
EndSplineSet
EndChar

StartChar: degree
Encoding: 176 176 113
Width: 819
GlyphClass: 2
Flags: W
LayerCount: 2
Fore
SplineSet
742.55 1102.44 m 0,0,0
 742.55 1014.13 742.55 1014.13 698.23 939.155 c 0,0,0
 653.91 864.18 653.91 864.18 578.935 818.865 c 0,0,0
 503.96 773.55 503.96 773.55 410.33 773.55 c 0,0,0
 319.03 773.55 319.03 773.55 244.22 816.54 c 0,0,0
 169.41 859.53 169.41 859.53 124.425 933.34 c 0,0,0
 79.44 1007.15 79.44 1007.15 79.44 1098.45 c 0,0,0
 79.44 1188.42 79.44 1188.42 123.925 1262.065 c 0,0,0
 168.41 1335.71 168.41 1335.71 244.05 1379.53 c 0,0,0
 319.69 1423.35 319.69 1423.35 410.33 1423.35 c 0,0,0
 503.63 1423.35 503.63 1423.35 578.605 1380.03 c 0,0,0
 653.58 1336.71 653.58 1336.71 698.065 1264.23 c 0,0,0
 742.55 1191.75 742.55 1191.75 742.55 1102.44 c 0,0,0
568.38 1098.45 m 0,0,0
 568.38 1166.47 568.38 1166.47 523.53 1213.15 c 0,0,0
 478.68 1259.83 478.68 1259.83 410.33 1259.83 c 0,0,0
 340.65 1259.83 340.65 1259.83 294.47 1212.815 c 0,0,0
 248.29 1165.8 248.29 1165.8 248.29 1098.45 c 0,0,0
 248.29 1031.1 248.29 1031.1 296.135 982.755 c 0,0,0
 343.98 934.41 343.98 934.41 410.33 934.41 c 0,0,0
 475.02 934.41 475.02 934.41 521.7 982.255 c 0,0,0
 568.38 1030.1 568.38 1030.1 568.38 1098.45 c 0,0,0
EndSplineSet
EndChar

StartChar: plusminus
Encoding: 177 177 114
Width: 1124
GlyphClass: 2
Flags: W
LayerCount: 2
Fore
SplineSet
686.54 715.91 m 1,0,0
 686.54 392.73 l 1,0,0
 437.13 392.73 l 1,0,0
 437.13 715.91 l 1,0,0
 43.72 715.91 l 1,0,0
 43.72 964.65 l 1,0,0
 437.13 964.65 l 1,0,0
 437.13 1286.83 l 1,0,0
 686.54 1286.83 l 1,0,0
 686.54 964.65 l 1,0,0
 1081.28 964.65 l 1,0,0
 1081.28 715.91 l 1,0,0
 686.54 715.91 l 1,0,0
1081.28 248.74 m 1,0,0
 1081.28 0 l 1,0,0
 43.72 0 l 1,0,0
 43.72 248.74 l 1,0,0
 1081.28 248.74 l 1,0,0
EndSplineSet
EndChar

StartChar: uni00B2
Encoding: 178 178 115
Width: 682
GlyphClass: 2
Flags: W
LayerCount: 2
Fore
SplineSet
637.68 883.48 m 1,0,0
 637.68 737.23 l 1,0,0
 56.3 737.23 l 1,0,0
 54.3 864.17 l 1,0,0
 82.64 922.53 82.64 922.53 131.845 970.74 c 0,0,0
 181.05 1018.95 181.05 1018.95 266.77 1073 c 0,0,0
 349.14 1125.04 349.14 1125.04 377.845 1154.44 c 0,0,0
 406.55 1183.84 406.55 1183.84 406.55 1217.9 c 0,0,0
 406.55 1258.62 406.55 1258.62 391.665 1276.17 c 0,0,0
 376.78 1293.72 376.78 1293.72 346.67 1293.72 c 0,0,0
 311.92 1293.72 311.92 1293.72 295.185 1273.18 c 0,0,0
 278.45 1252.64 278.45 1252.64 274.44 1209.91 c 1,0,0
 60.31 1213.92 l 1,0,0
 73.31 1310.28 73.31 1310.28 147.825 1368.965 c 0,0,0
 222.34 1427.65 222.34 1427.65 344.69 1427.65 c 0,0,0
 477.01 1427.65 477.01 1427.65 550.845 1374.13 c 0,0,0
 624.68 1320.61 624.68 1320.61 624.68 1225.24 c 0,0,0
 624.68 1107.5 624.68 1107.5 483.23 1022.7 c 0,0,0
 434.2 993.66 434.2 993.66 401.84 972.96 c 0,0,0
 369.48 952.26 369.48 952.26 352.46 938.57 c 0,0,0
 317.75 913.18 317.75 913.18 302.41 883.48 c 1,0,0
 637.68 883.48 l 1,0,0
EndSplineSet
EndChar

StartChar: uni00B3
Encoding: 179 179 116
Width: 682
GlyphClass: 2
Flags: W
LayerCount: 2
Fore
SplineSet
636.68 928 m 0,0,0
 636.68 834.61 636.68 834.61 562.505 781.25 c 0,0,0
 488.33 727.89 488.33 727.89 351.65 727.89 c 0,0,0
 219.29 727.89 219.29 727.89 140.455 778.24 c 0,0,0
 61.62 828.59 61.62 828.59 49.61 929.62 c 1,0,0
 256.1 941.29 l 1,0,0
 264.79 862.48 264.79 862.48 347.66 862.48 c 0,0,0
 430.52 862.48 430.52 862.48 430.52 941.32 c 0,0,0
 430.52 1019.8 430.52 1019.8 308.02 1019.8 c 2,0,0
 253.67 1019.8 l 1,0,0
 253.67 1151.41 l 1,0,0
 302.69 1151.41 l 2,0,0
 360.08 1151.41 360.08 1151.41 387.46 1170.785 c 0,0,0
 414.84 1190.16 414.84 1190.16 414.84 1225.9 c 0,0,0
 414.84 1257.97 414.84 1257.97 396.46 1275.845 c 0,0,0
 378.08 1293.72 378.08 1293.72 344.32 1293.72 c 0,0,0
 308.24 1293.72 308.24 1293.72 289.515 1275.345 c 0,0,0
 270.79 1256.97 270.79 1256.97 266.12 1219.9 c 1,0,0
 63.29 1231.9 l 1,0,0
 73.63 1320.95 73.63 1320.95 149.47 1374.3 c 0,0,0
 225.31 1427.65 225.31 1427.65 349.65 1427.65 c 0,0,0
 476.99 1427.65 476.99 1427.65 547.665 1378.79 c 0,0,0
 618.34 1329.93 618.34 1329.93 618.34 1249.22 c 0,0,0
 618.34 1188.85 618.34 1188.85 583.985 1146.485 c 0,0,0
 549.63 1104.12 549.63 1104.12 474.26 1089.44 c 1,0,0
 474.26 1087.44 l 1,0,0
 554.62 1078.44 554.62 1078.44 595.65 1034.585 c 0,0,0
 636.68 990.73 636.68 990.73 636.68 928 c 0,0,0
EndSplineSet
EndChar

StartChar: acute
Encoding: 180 180 117
Width: 682
GlyphClass: 2
Flags: W
LayerCount: 2
Fore
SplineSet
630.33 1452.4 m 1,0,0
 287.03 1177.06 l 1,0,0
 91.95 1177.06 l 1,0,0
 91.95 1211.69 l 1,0,0
 355.5 1500.02 l 1,0,0
 630.33 1500.02 l 1,0,0
 630.33 1452.4 l 1,0,0
EndSplineSet
EndChar

StartChar: mu
Encoding: 181 181 118
Width: 1245
GlyphClass: 2
Flags: W
LayerCount: 2
Fore
SplineSet
132.02 -426.33 m 1,0,0
 132.02 1082 l 1,0,0
 446.02 1082 l 1,0,0
 446.02 503.73 l 2,0,0
 446.02 349.77 446.02 349.77 484.89 283.595 c 0,0,0
 523.76 217.42 523.76 217.42 604.19 217.42 c 0,0,0
 680.32 217.42 680.32 217.42 715.415 289.79 c 0,0,0
 750.51 362.16 750.51 362.16 750.51 520.17 c 2,0,0
 750.51 1082 l 1,0,0
 1064.84 1082 l 1,0,0
 1062.18 337.82 l 2,0,0
 1062.18 241.87 1062.18 241.87 1083.505 207.37 c 0,0,0
 1104.83 172.87 1104.83 172.87 1154.81 172.87 c 0,0,0
 1189.45 172.87 1189.45 172.87 1219.45 178.21 c 1,0,0
 1219.45 18.62 l 1,0,0
 1160.85 4.63 1160.85 4.63 1121.045 -2.365 c 0,0,0
 1081.24 -9.36 1081.24 -9.36 1017.34 -9.36 c 0,0,0
 906.39 -9.36 906.39 -9.36 854.9 34.315 c 0,0,0
 803.41 77.99 803.41 77.99 791.76 179.32 c 1,0,0
 784.77 179.32 l 1,0,0
 758.37 62.37 758.37 62.37 708.475 21.185 c 0,0,0
 658.58 -20 658.58 -20 585.52 -20 c 0,0,0
 538.47 -20 538.47 -20 502.59 5.155 c 0,0,0
 466.71 30.31 466.71 30.31 446.35 73.63 c 1,0,0
 446.35 -426.33 l 1,0,0
 132.02 -426.33 l 1,0,0
EndSplineSet
EndChar

StartChar: paragraph
Encoding: 182 182 119
Width: 1151
GlyphClass: 2
Flags: W
LayerCount: 2
Fore
SplineSet
600.22 1252.47 m 1,0,0
 600.22 -264 l 1,0,0
 431.36 -264 l 1,0,0
 431.36 694 l 1,0,0
 262.03 694 262.03 694 165.03 786.5 c 0,0,0
 68.03 879 68.03 879 68.03 1049 c 0,0,0
 68.03 1218 68.03 1218 166.53 1313.5 c 0,0,0
 265.03 1409 265.03 1409 439.36 1409 c 2,0,0
 1090.14 1409 l 1,0,0
 1090.14 1252.47 l 1,0,0
 958.48 1252.47 l 1,0,0
 958.48 -264 l 1,0,0
 787.96 -264 l 1,0,0
 787.96 1252.47 l 1,0,0
 600.22 1252.47 l 1,0,0
EndSplineSet
EndChar

StartChar: periodcentered
Encoding: 183 183 120
Width: 682
GlyphClass: 2
Flags: W
LayerCount: 2
Fore
SplineSet
426.03 892.1 m 1,0,0
 426.03 559.05 l 1,0,0
 107.34 559.05 l 1,0,0
 107.34 892.1 l 1,0,0
 426.03 892.1 l 1,0,0
EndSplineSet
EndChar

StartChar: cedilla
Encoding: 184 184 121
Width: 682
GlyphClass: 2
Flags: W
LayerCount: 2
Fore
SplineSet
505.61 -229.06 m 0,0,0
 505.61 -324.05 505.61 -324.05 424.475 -373.04 c 0,0,0
 343.34 -422.03 343.34 -422.03 193.04 -422.03 c 0,0,0
 153.32 -422.03 153.32 -422.03 88.41 -415.37 c 1,0,0
 88.41 -290.77 l 1,0,0
 114.47 -298.1 114.47 -298.1 171.75 -298.1 c 0,0,0
 305.45 -298.1 305.45 -298.1 305.45 -233.06 c 0,0,0
 305.45 -199.05 305.45 -199.05 279.1 -182.875 c 0,0,0
 252.75 -166.7 252.75 -166.7 187.08 -166.7 c 0,0,0
 169.07 -166.7 169.07 -166.7 156.4 -167.2 c 0,0,0
 143.73 -167.7 143.73 -167.7 136.73 -168.7 c 1,0,0
 197.74 0 l 1,0,0
 352.62 0 l 1,0,0
 321.6 -76.06 l 1,0,0
 415.6 -81.72 415.6 -81.72 460.605 -122.885 c 0,0,0
 505.61 -164.05 505.61 -164.05 505.61 -229.06 c 0,0,0
EndSplineSet
EndChar

StartChar: uni00B9
Encoding: 185 185 122
Width: 682
GlyphClass: 2
Flags: W
LayerCount: 2
Fore
SplineSet
611.73 862.85 m 1,0,0
 611.73 737.23 l 1,0,0
 82.66 737.23 l 1,0,0
 82.66 862.85 l 1,0,0
 257.75 862.85 l 1,0,0
 257.75 1280.69 l 1,0,0
 94.32 1182.59 l 1,0,0
 94.32 1305.25 l 1,0,0
 264.42 1415.65 l 1,0,0
 456.58 1415.65 l 1,0,0
 456.58 862.85 l 1,0,0
 611.73 862.85 l 1,0,0
EndSplineSet
EndChar

StartChar: ordmasculine
Encoding: 186 186 123
Width: 748
GlyphClass: 2
Flags: W
LayerCount: 2
Fore
SplineSet
709.7 1083.23 m 0,0,0
 709.7 929.81 709.7 929.81 619.705 839.615 c 0,0,0
 529.71 749.42 529.71 749.42 375.99 749.42 c 0,0,0
 229.27 749.42 229.27 749.42 140.105 838.615 c 0,0,0
 50.94 927.81 50.94 927.81 50.94 1083.23 c 0,0,0
 50.94 1236.32 50.94 1236.32 138.61 1325.515 c 0,0,0
 226.28 1414.71 226.28 1414.71 379.99 1414.71 c 0,0,0
 535.7 1414.71 535.7 1414.71 622.7 1328.515 c 0,0,0
 709.7 1242.32 709.7 1242.32 709.7 1083.23 c 0,0,0
492.87 1083.23 m 0,0,0
 492.87 1173.39 492.87 1173.39 468.65 1216.28 c 0,0,0
 444.43 1259.17 444.43 1259.17 381.66 1259.17 c 0,0,0
 320.21 1259.17 320.21 1259.17 292.165 1215.61 c 0,0,0
 264.12 1172.05 264.12 1172.05 264.12 1083.23 c 0,0,0
 264.12 990.1 264.12 990.1 291.665 945.535 c 0,0,0
 319.21 900.97 319.21 900.97 374.99 900.97 c 0,0,0
 438.11 900.97 438.11 900.97 465.49 945.365 c 0,0,0
 492.87 989.76 492.87 989.76 492.87 1083.23 c 0,0,0
EndSplineSet
EndChar

StartChar: guillemotright
Encoding: 187 187 124
Width: 1139
GlyphClass: 2
Flags: W
LayerCount: 2
Fore
SplineSet
813.76 141 m 1,0,0
 552.66 141 l 1,0,0
 552.66 177.98 l 1,0,0
 781.6 537 l 1,0,0
 554.66 901.02 l 1,0,0
 554.66 940 l 1,0,0
 813.76 940 l 1,0,0
 1045.36 574.32 l 1,0,0
 1045.36 500.68 l 1,0,0
 813.76 141 l 1,0,0
359.4 141 m 1,0,0
 96.3 141 l 1,0,0
 96.3 177.98 l 1,0,0
 325.24 537 l 1,0,0
 98.3 901.02 l 1,0,0
 98.3 940 l 1,0,0
 359.4 940 l 1,0,0
 589.33 574.32 l 1,0,0
 589.33 500.68 l 1,0,0
 359.4 141 l 1,0,0
EndSplineSet
EndChar

StartChar: questiondown
Encoding: 191 191 128
Width: 1251
GlyphClass: 2
Flags: W
LayerCount: 2
Fore
SplineSet
826.49 1082 m 1,0,0
 826.49 789.23 l 1,0,0
 506.47 789.23 l 1,0,0
 506.47 1082 l 1,0,0
 826.49 1082 l 1,0,0
108.39 57.98 m 0,0,0
 108.39 149.7 108.39 149.7 149.745 225.545 c 0,0,0
 191.1 301.39 191.1 301.39 310.1 385.73 c 2,0,0
 385.78 439.41 l 2,0,0
 513.48 533.43 513.48 533.43 521.13 639.83 c 1,0,0
 818.49 639.83 l 1,0,0
 813.83 579.75 813.83 579.75 792.135 523.235 c 0,0,0
 770.44 466.72 770.44 466.72 726.925 414.24 c 0,0,0
 683.41 361.76 683.41 361.76 613.45 313.12 c 0,0,0
 537.83 260.15 537.83 260.15 496.645 219.485 c 0,0,0
 455.46 178.82 455.46 178.82 440.09 143.61 c 0,0,0
 424.72 108.4 424.72 108.4 424.72 71.3 c 0,0,0
 424.72 -8.12 424.72 -8.12 475.62 -54.17 c 0,0,0
 526.52 -100.22 526.52 -100.22 621.3 -100.22 c 0,0,0
 709.43 -100.22 709.43 -100.22 773.475 -44.85 c 0,0,0
 837.52 10.52 837.52 10.52 848.86 99.27 c 1,0,0
 1167.19 87.27 l 1,0,0
 1139.86 -117.38 1139.86 -117.38 996.56 -232.69 c 0,0,0
 853.26 -348 853.26 -348 625.96 -348 c 0,0,0
 384.34 -348 384.34 -348 246.365 -239.84 c 0,0,0
 108.39 -131.68 108.39 -131.68 108.39 57.98 c 0,0,0
EndSplineSet
EndChar

StartChar: AE
Encoding: 198 198 135
Width: 2048
GlyphClass: 2
Flags: W
LayerCount: 2
Fore
SplineSet
500.8 342.84 m 1,0,0
 337.38 0 l 1,0,0
 -2.6 0 l 1,0,0
 702.02 1409 l 1,0,0
 1929.64 1409 l 1,0,0
 1929.64 1158.57 l 1,0,0
 1247.78 1158.57 l 1,0,0
 1247.78 835.58 l 1,0,0
 1866.98 835.58 l 1,0,0
 1866.98 592.47 l 1,0,0
 1247.78 592.47 l 1,0,0
 1247.78 250.43 l 1,0,0
 1970.64 250.43 l 1,0,0
 1970.64 0 l 1,0,0
 918.46 0 l 1,0,0
 918.46 342.84 l 1,0,0
 500.8 342.84 l 1,0,0
613.36 588.93 m 1,0,0
 918.46 588.93 l 1,0,0
 918.46 1168.9 l 1,0,0
 887.16 1168.9 l 1,0,0
 613.36 588.93 l 1,0,0
EndSplineSet
EndChar

StartChar: Eth
Encoding: 208 208 145
Width: 1479
GlyphClass: 2
Flags: W
LayerCount: 2
Fore
SplineSet
1396.96 713.68 m 0,0,0
 1396.96 488.35 1396.96 488.35 1309.13 328.68 c 0,0,0
 1221.3 169.01 1221.3 169.01 1066.8 84.505 c 0,0,0
 912.3 0 912.3 0 710.96 0 c 2,0,0
 126.77 0 l 1,0,0
 126.77 576.51 l 1,0,0
 6.02 576.51 l 1,0,0
 6.02 816.96 l 1,0,0
 126.77 816.96 l 1,0,0
 126.77 1409 l 1,0,0
 651.29 1409 l 2,0,0
 1006.63 1409 1006.63 1409 1201.795 1229.5 c 0,0,0
 1396.96 1050 1396.96 1050 1396.96 713.68 c 0,0,0
1065.31 713.68 m 0,0,0
 1065.31 926.47 1065.31 926.47 957.055 1039.365 c 0,0,0
 848.8 1152.26 848.8 1152.26 644.63 1152.26 c 2,0,0
 456.09 1152.26 l 1,0,0
 456.09 816.96 l 1,0,0
 795.59 816.96 l 1,0,0
 795.59 576.51 l 1,0,0
 456.09 576.51 l 1,0,0
 456.09 256.74 l 1,0,0
 684.97 256.74 l 2,0,0
 802.74 256.74 802.74 256.74 887.485 311.775 c 0,0,0
 972.23 366.81 972.23 366.81 1018.77 469.205 c 0,0,0
 1065.31 571.6 1065.31 571.6 1065.31 713.68 c 0,0,0
EndSplineSet
EndChar

StartChar: multiply
Encoding: 215 215 152
Width: 1196
GlyphClass: 2
Flags: W
LayerCount: 2
Fore
SplineSet
600 508.18 m 1,0,0
 244 149.19 l 1,0,0
 67.52 324.68 l 1,0,0
 424.18 684 l 1,0,0
 72.18 1036 l 1,0,0
 248 1209.49 l 1,0,0
 600.66 860.48 l 1,0,0
 953.32 1212.81 l 1,0,0
 1128.81 1037.32 l 1,0,0
 776.15 681.34 l 1,0,0
 1128.15 332 l 1,0,0
 951.67 153.85 l 1,0,0
 600 508.18 l 1,0,0
EndSplineSet
EndChar

StartChar: Oslash
Encoding: 216 216 153
Width: 1593
GlyphClass: 2
Flags: W
LayerCount: 2
Fore
SplineSet
1512.29 711 m 0,0,0
 1512.29 489.67 1512.29 489.67 1423.465 325.17 c 0,0,0
 1334.64 160.67 1334.64 160.67 1172.985 70.335 c 0,0,0
 1011.33 -20 1011.33 -20 792.34 -20 c 0,0,0
 593.22 -20 593.22 -20 450.16 45.45 c 1,0,0
 368.73 -78.27 l 1,0,0
 172.08 -79.6 l 1,0,0
 310.9 130.81 l 1,0,0
 79.71 328.13 79.71 328.13 79.71 711 c 0,0,0
 79.71 937 79.71 937 164.54 1098.165 c 0,0,0
 249.37 1259.33 249.37 1259.33 409.86 1344.665 c 0,0,0
 570.35 1430 570.35 1430 794.34 1430 c 0,0,0
 974.84 1430 974.84 1430 1128.54 1367.88 c 1,0,0
 1197.67 1475.31 l 1,0,0
 1391 1475.31 l 1,0,0
 1268.47 1285.18 l 1,0,0
 1389.05 1191.51 1389.05 1191.51 1450.67 1044.39 c 0,0,0
 1512.29 897.27 1512.29 897.27 1512.29 711 c 0,0,0
410.7 711 m 0,0,0
 410.7 515.25 410.7 515.25 489.09 394.18 c 1,0,0
 972.65 1134.13 l 1,0,0
 892.54 1172.92 892.54 1172.92 794.34 1172.92 c 0,0,0
 610.86 1172.92 610.86 1172.92 510.78 1050.855 c 0,0,0
 410.7 928.79 410.7 928.79 410.7 711 c 0,0,0
1176.31 711 m 0,0,0
 1176.31 906.07 1176.31 906.07 1094.27 1024.47 c 1,0,0
 608.71 279.2 l 1,0,0
 689.81 236.08 689.81 236.08 792.34 236.08 c 0,0,0
 976.49 236.08 976.49 236.08 1076.4 359.98 c 0,0,0
 1176.31 483.88 1176.31 483.88 1176.31 711 c 0,0,0
EndSplineSet
EndChar

StartChar: Thorn
Encoding: 222 222 159
Width: 1366
GlyphClass: 2
Flags: W
LayerCount: 2
Fore
SplineSet
1308.54 737.66 m 0,0,0
 1308.54 602.68 1308.54 602.68 1245.385 499.025 c 0,0,0
 1182.23 395.37 1182.23 395.37 1065.25 336.875 c 0,0,0
 948.27 278.38 948.27 278.38 784.97 278.38 c 2,0,0
 456.09 278.38 l 1,0,0
 456.09 0 l 1,0,0
 126.77 0 l 1,0,0
 126.77 1409 l 1,0,0
 456.09 1409 l 1,0,0
 456.09 1182.27 l 1,0,0
 772.97 1182.27 l 2,0,0
 1031.92 1182.27 1031.92 1182.27 1170.23 1067.945 c 0,0,0
 1308.54 953.62 1308.54 953.62 1308.54 737.66 c 0,0,0
976.89 733.66 m 0,0,0
 976.89 835.74 976.89 835.74 916.835 893.615 c 0,0,0
 856.78 951.49 856.78 951.49 736.67 951.49 c 2,0,0
 456.09 951.49 l 1,0,0
 456.09 509.82 l 1,0,0
 744.67 509.82 l 2,0,0
 855.11 509.82 855.11 509.82 916 568.7 c 0,0,0
 976.89 627.58 976.89 627.58 976.89 733.66 c 0,0,0
EndSplineSet
EndChar

StartChar: germandbls
Encoding: 223 223 160
Width: 1251
GlyphClass: 2
Flags: W
LayerCount: 2
Fore
SplineSet
1201.58 317.61 m 0,0,0
 1201.58 151.65 1201.58 151.65 1098.935 65.825 c 0,0,0
 996.29 -20 996.29 -20 805.01 -20 c 0,0,0
 664.93 -20 664.93 -20 549.94 21.02 c 1,0,0
 550.6 240.88 l 1,0,0
 599.94 219.86 599.94 219.86 663.315 202.52 c 0,0,0
 726.69 185.18 726.69 185.18 766.43 185.18 c 0,0,0
 843.8 185.18 843.8 185.18 876.84 216.875 c 0,0,0
 909.88 248.57 909.88 248.57 909.88 298.31 c 0,0,0
 909.88 346.35 909.88 346.35 873.365 388.705 c 0,0,0
 836.85 431.06 836.85 431.06 745.17 493.05 c 0,0,0
 662.48 548.38 662.48 548.38 621.635 613.715 c 0,0,0
 580.79 679.05 580.79 679.05 580.79 751.75 c 0,0,0
 580.79 803.44 580.79 803.44 607.96 849.45 c 0,0,0
 635.13 895.46 635.13 895.46 693.12 947.11 c 0,0,0
 755.11 1003.09 755.11 1003.09 779.615 1043.095 c 0,0,0
 804.12 1083.1 804.12 1083.1 804.12 1126.45 c 0,0,0
 804.12 1187.49 804.12 1187.49 764.385 1224.015 c 0,0,0
 724.65 1260.54 724.65 1260.54 643.58 1260.54 c 0,0,0
 555.43 1260.54 555.43 1260.54 506.545 1202.485 c 0,0,0
 457.66 1144.43 457.66 1144.43 457.66 1010.36 c 2,0,0
 457.66 0 l 1,0,0
 143.33 0 l 1,0,0
 143.33 1000.4 l 2,0,0
 143.33 1236.71 143.33 1236.71 274.13 1360.355 c 0,0,0
 404.93 1484 404.93 1484 647.57 1484 c 0,0,0
 858.85 1484 858.85 1484 979.995 1390.865 c 0,0,0
 1101.14 1297.73 1101.14 1297.73 1101.14 1136.46 c 0,0,0
 1101.14 1050.83 1101.14 1050.83 1065.325 997.31 c 0,0,0
 1029.51 943.79 1029.51 943.79 989.47 906.42 c 0,0,0
 975.37 893.33 975.37 893.33 947.88 871.155 c 0,0,0
 920.39 848.98 920.39 848.98 898.43 824.17 c 0,0,0
 876.47 799.36 876.47 799.36 876.47 779.03 c 0,0,0
 876.47 769.3 876.47 769.3 875.705 761.41 c 0,0,0
 874.94 753.52 874.94 753.52 907.63 725.185 c 0,0,0
 940.32 696.85 940.32 696.85 1038.86 622.29 c 0,0,0
 1201.58 498.29 1201.58 498.29 1201.58 317.61 c 0,0,0
EndSplineSet
EndChar

StartChar: ae
Encoding: 230 230 167
Width: 1821
GlyphClass: 2
Flags: W
LayerCount: 2
Fore
SplineSet
1726.27 286.54 m 1,0,0
 1605.33 -20 1605.33 -20 1250.69 -20 c 0,0,0
 944.32 -20 944.32 -20 813.06 199.76 c 1,0,0
 750.02 93.01 750.02 93.01 647.68 36.505 c 0,0,0
 545.34 -20 545.34 -20 407.32 -20 c 0,0,0
 248.3 -20 248.3 -20 157.15 66 c 0,0,0
 66 152 66 152 66 307.32 c 0,0,0
 66 638.36 66 638.36 492.8 650.68 c 2,0,0
 732.8 654.68 l 1,0,0
 732.8 708.36 l 2,0,0
 732.8 807.45 732.8 807.45 697.915 856.3 c 0,0,0
 663.03 905.15 663.03 905.15 585.92 905.15 c 0,0,0
 514.45 905.15 514.45 905.15 482.555 869.14 c 0,0,0
 450.66 833.13 450.66 833.13 442.98 758.42 c 1,0,0
 115.33 771.43 l 1,0,0
 142.32 932.06 142.32 932.06 263.295 1017.03 c 0,0,0
 384.27 1102 384.27 1102 595.24 1102 c 0,0,0
 801.35 1102 801.35 1102 922.96 1005.56 c 1,0,0
 1058.25 1102 1058.25 1102 1258.32 1102 c 0,0,0
 1489.34 1102 1489.34 1102 1613.66 944.035 c 0,0,0
 1737.98 786.07 1737.98 786.07 1737.98 484.44 c 2,0,0
 1737.98 467.09 l 1,0,0
 1066.42 467.09 l 1,0,0
 1066.42 336.93 1066.42 336.93 1119.81 261.21 c 0,0,0
 1173.2 185.49 1173.2 185.49 1269.31 185.49 c 0,0,0
 1329.12 185.49 1329.12 185.49 1369.03 213.205 c 0,0,0
 1408.94 240.92 1408.94 240.92 1425.96 302.28 c 1,0,0
 1726.27 286.54 l 1,0,0
1437.6 670.26 m 1,0,0
 1431.91 788.06 1431.91 788.06 1382.52 849.27 c 0,0,0
 1333.13 910.48 1333.13 910.48 1253.99 910.48 c 0,0,0
 1164.23 910.48 1164.23 910.48 1117.33 846.925 c 0,0,0
 1070.43 783.37 1070.43 783.37 1068.42 670.26 c 1,0,0
 1437.6 670.26 l 1,0,0
394.64 337.57 m 0,0,0
 394.64 263.87 394.64 263.87 428.015 230 c 0,0,0
 461.39 196.13 461.39 196.13 513.16 196.13 c 0,0,0
 570.94 196.13 570.94 196.13 623 233.15 c 0,0,0
 674.73 270.5 674.73 270.5 703.765 331.375 c 0,0,0
 732.8 392.25 732.8 392.25 732.8 459.63 c 2,0,0
 732.8 490.11 l 1,0,0
 594.99 488.77 l 2,0,0
 501.23 484.44 501.23 484.44 466.47 470.41 c 0,0,0
 432.38 455.38 432.38 455.38 413.51 424.165 c 0,0,0
 394.64 392.95 394.64 392.95 394.64 337.57 c 0,0,0
EndSplineSet
EndChar

StartChar: eth
Encoding: 240 240 177
Width: 1287
GlyphClass: 2
Flags: W
LayerCount: 2
Fore
SplineSet
641.81 -17.34 m 0,0,0
 384.54 -17.34 384.54 -17.34 231.28 116.98 c 0,0,0
 78.02 251.3 78.02 251.3 78.02 478.34 c 0,0,0
 78.02 706.38 78.02 706.38 229.285 838.7 c 0,0,0
 380.55 971.02 380.55 971.02 644.82 971.02 c 0,0,0
 738.26 971.02 738.26 971.02 785.38 947.93 c 1,0,0
 736.23 1055.87 736.23 1055.87 663.1 1151.25 c 1,0,0
 374.07 1032.88 l 1,0,0
 374.07 1239.98 l 1,0,0
 522.91 1302.06 l 1,0,0
 482.54 1334.09 482.54 1334.09 416.555 1380.24 c 0,0,0
 350.57 1426.39 350.57 1426.39 259.63 1484 c 1,0,0
 580.35 1484 l 1,0,0
 682.63 1432.37 682.63 1432.37 737.05 1392.64 c 1,0,0
 992.51 1499.37 l 1,0,0
 992.84 1286.29 l 1,0,0
 901.54 1251.48 l 1,0,0
 1055.25 1090.16 1055.25 1090.16 1130.945 916.42 c 0,0,0
 1206.64 742.68 1206.64 742.68 1206.64 549.25 c 0,0,0
 1206.64 285.58 1206.64 285.58 1055.54 134.12 c 0,0,0
 904.44 -17.34 904.44 -17.34 641.81 -17.34 c 0,0,0
877.99 475.68 m 0,0,0
 877.99 625.12 877.99 625.12 817.465 691.67 c 0,0,0
 756.94 758.22 756.94 758.22 648.82 758.22 c 0,0,0
 530.39 758.22 530.39 758.22 469.195 686.515 c 0,0,0
 408 614.81 408 614.81 408 475.68 c 0,0,0
 408 341.54 408 341.54 466.7 266.505 c 0,0,0
 525.4 191.47 525.4 191.47 635.82 191.47 c 0,0,0
 748.94 191.47 748.94 191.47 813.465 258.355 c 0,0,0
 877.99 325.24 877.99 325.24 877.99 475.68 c 0,0,0
EndSplineSet
EndChar

StartChar: divide
Encoding: 247 247 184
Width: 1124
GlyphClass: 2
Flags: W
LayerCount: 2
Fore
SplineSet
691.22 1211.49 m 1,0,0
 691.22 961.99 l 1,0,0
 430.12 961.99 l 1,0,0
 430.12 1211.49 l 1,0,0
 691.22 1211.49 l 1,0,0
1081.28 805.87 m 1,0,0
 1081.28 556.13 l 1,0,0
 43.72 556.13 l 1,0,0
 43.72 805.87 l 1,0,0
 1081.28 805.87 l 1,0,0
691.22 402.01 m 1,0,0
 691.22 152.51 l 1,0,0
 430.12 152.51 l 1,0,0
 430.12 402.01 l 1,0,0
 691.22 402.01 l 1,0,0
EndSplineSet
EndChar

StartChar: oslash
Encoding: 248 248 185
Width: 1251
GlyphClass: 2
Flags: W
LayerCount: 2
Fore
SplineSet
1190.47 542 m 0,0,0
 1190.47 285.93 1190.47 285.93 1037.54 132.965 c 0,0,0
 884.61 -20 884.61 -20 620.01 -20 c 0,0,0
 430 -20 430 -20 292.38 66.03 c 1,0,0
 175.09 -60.61 l 1,0,0
 -13.19 -60.61 l 1,0,0
 188.1 154.72 l 1,0,0
 58.55 301.7 58.55 301.7 58.55 542 c 0,0,0
 58.55 796.73 58.55 796.73 209.975 949.365 c 0,0,0
 361.4 1102 361.4 1102 626.01 1102 c 0,0,0
 824.35 1102 824.35 1102 960.63 1021.64 c 1,0,0
 1064.93 1138.61 l 1,0,0
 1254.54 1138.61 l 1,0,0
 1066.91 930.96 l 1,0,0
 1190.47 784.66 1190.47 784.66 1190.47 542 c 0,0,0
388.53 542 m 0,0,0
 388.53 464.87 388.53 464.87 403.22 396.16 c 1,0,0
 785.47 824.16 l 1,0,0
 727.78 889.2 727.78 889.2 630.34 889.2 c 0,0,0
 512.24 889.2 512.24 889.2 450.385 801.66 c 0,0,0
 388.53 714.12 388.53 714.12 388.53 542 c 0,0,0
861.82 542 m 0,0,0
 861.82 629.1 861.82 629.1 848.13 684.53 c 1,0,0
 466.21 258.19 l 1,0,0
 526.56 191.47 526.56 191.47 616.68 191.47 c 0,0,0
 736.12 191.47 736.12 191.47 798.97 280.175 c 0,0,0
 861.82 368.88 861.82 368.88 861.82 542 c 0,0,0
EndSplineSet
EndChar

StartChar: thorn
Encoding: 254 254 191
Width: 1287
GlyphClass: 2
Flags: W
LayerCount: 2
Fore
SplineSet
458.98 -12.64 m 2,0,0
 458.98 -425 l 1,0,0
 144.65 -425 l 1,0,0
 144.65 1484 l 1,0,0
 458.98 1484 l 1,0,0
 458.98 1009.13 l 2,0,0
 458.98 963.83 458.98 963.83 457.315 920.675 c 0,0,0
 455.65 877.52 455.65 877.52 454.98 836.18 c 1,0,0
 458.32 836.18 l 1,0,0
 504.99 936.18 504.99 936.18 594.63 986.67 c 0,0,0
 684.27 1037.16 684.27 1037.16 807.95 1037.16 c 0,0,0
 995.98 1037.16 995.98 1037.16 1100.3 894.515 c 0,0,0
 1204.62 751.87 1204.62 751.87 1204.62 511.42 c 0,0,0
 1204.62 263 1204.62 263 1093.15 121.5 c 0,0,0
 981.68 -20 981.68 -20 784.01 -20 c 0,0,0
 553.96 -20 553.96 -20 458.65 173.32 c 1,0,0
 452.32 173.32 l 1,0,0
 458.98 135.73 458.98 135.73 458.98 -12.64 c 2,0,0
877.3 512.74 m 0,0,0
 877.3 666.92 877.3 666.92 823.615 745.3 c 0,0,0
 769.93 823.68 769.93 823.68 664.86 823.68 c 0,0,0
 564.4 823.68 564.4 823.68 509.03 735.81 c 0,0,0
 453.66 647.94 453.66 647.94 453.66 506.72 c 0,0,0
 453.66 360.22 453.66 360.22 510.355 275.845 c 0,0,0
 567.05 191.47 567.05 191.47 662.86 191.47 c 0,0,0
 768.93 191.47 768.93 191.47 823.115 274.675 c 0,0,0
 877.3 357.88 877.3 357.88 877.3 512.74 c 0,0,0
EndSplineSet
EndChar

StartChar: dcroat
Encoding: 273 273 210
Width: 1287
GlyphClass: 2
Flags: W
LayerCount: 2
Fore
SplineSet
828.98 1347.64 m 1,0,0
 828.98 1484 l 1,0,0
 1144.64 1484 l 1,0,0
 1144.64 1347.64 l 1,0,0
 1276.64 1347.64 l 1,0,0
 1276.64 1164.77 l 1,0,0
 1144.64 1164.77 l 1,0,0
 1144.64 240.29 l 2,0,0
 1144.64 201.84 1144.64 201.84 1146.805 141.685 c 0,0,0
 1148.97 81.53 1148.97 81.53 1153.3 0 c 1,0,0
 848.3 0 l 1,0,0
 846.3 9.67 846.3 9.67 841.805 42.165 c 0,0,0
 837.31 74.66 837.31 74.66 834.48 112.99 c 0,0,0
 831.65 151.32 831.65 151.32 831.65 176.66 c 1,0,0
 827.65 176.66 l 1,0,0
 782.97 80.64 782.97 80.64 695.15 30.32 c 0,0,0
 607.33 -20 607.33 -20 477.35 -20 c 0,0,0
 294.96 -20 294.96 -20 189.15 122.655 c 0,0,0
 83.34 265.31 83.34 265.31 83.34 516.05 c 0,0,0
 83.34 768.46 83.34 768.46 194.145 908.63 c 0,0,0
 304.95 1048.8 304.95 1048.8 505.28 1048.8 c 0,0,0
 617.64 1048.8 617.64 1048.8 701.635 999.81 c 0,0,0
 785.63 950.82 785.63 950.82 828.98 856.81 c 1,0,0
 830.98 856.81 l 1,0,0
 828.98 1053.62 l 1,0,0
 828.98 1164.77 l 1,0,0
 547.6 1164.77 l 1,0,0
 547.6 1347.64 l 1,0,0
 828.98 1347.64 l 1,0,0
410.66 515.4 m 0,0,0
 410.66 357.56 410.66 357.56 464.675 273.525 c 0,0,0
 518.69 189.49 518.69 189.49 620.44 189.49 c 0,0,0
 720.24 189.49 720.24 189.49 777.27 278.865 c 0,0,0
 834.3 368.24 834.3 368.24 834.3 520.75 c 0,0,0
 834.3 671.91 834.3 671.91 779.93 757.28 c 0,0,0
 725.56 842.65 725.56 842.65 622.44 842.65 c 0,0,0
 517.03 842.65 517.03 842.65 463.845 762.765 c 0,0,0
 410.66 682.88 410.66 682.88 410.66 515.4 c 0,0,0
EndSplineSet
EndChar

StartChar: Hbar
Encoding: 294 294 231
Width: 1479
GlyphClass: 2
Flags: W
LayerCount: 2
Fore
SplineSet
456.09 587.83 m 1,0,0
 456.09 0 l 1,0,0
 126.77 0 l 1,0,0
 126.77 1051.6 l 1,0,0
 14 1051.6 l 1,0,0
 14 1226.88 l 1,0,0
 126.77 1226.88 l 1,0,0
 126.77 1409 l 1,0,0
 456.09 1409 l 1,0,0
 456.09 1226.88 l 1,0,0
 1034.23 1226.88 l 1,0,0
 1034.23 1409 l 1,0,0
 1350.57 1409 l 1,0,0
 1350.57 1226.88 l 1,0,0
 1465 1226.88 l 1,0,0
 1465 1051.6 l 1,0,0
 1350.57 1051.6 l 1,0,0
 1350.57 0 l 1,0,0
 1034.23 0 l 1,0,0
 1034.23 587.83 l 1,0,0
 456.09 587.83 l 1,0,0
456.09 859.55 m 1,0,0
 1034.23 859.55 l 1,0,0
 1034.23 1051.6 l 1,0,0
 456.09 1051.6 l 1,0,0
 456.09 859.55 l 1,0,0
EndSplineSet
EndChar

StartChar: hbar
Encoding: 295 295 232
Width: 1287
GlyphClass: 2
Flags: W
LayerCount: 2
Fore
SplineSet
453.99 815.77 m 1,0,0
 510.66 945.71 510.66 945.71 598.145 1003.855 c 0,0,0
 685.63 1062 685.63 1062 802.65 1062 c 0,0,0
 973.33 1062 973.33 1062 1068.135 952.04 c 0,0,0
 1162.94 842.08 1162.94 842.08 1162.94 634.45 c 2,0,0
 1162.94 0 l 1,0,0
 850.27 0 l 1,0,0
 850.27 539.6 l 2,0,0
 850.27 681.94 850.27 681.94 802.105 754.59 c 0,0,0
 753.94 827.24 753.94 827.24 667.17 827.24 c 0,0,0
 573.42 827.24 573.42 827.24 515.54 739.905 c 0,0,0
 457.66 652.57 457.66 652.57 457.66 519.53 c 2,0,0
 457.66 0 l 1,0,0
 143.33 0 l 1,0,0
 143.33 1164.77 l 1,0,0
 10 1164.77 l 1,0,0
 10 1347.64 l 1,0,0
 143.33 1347.64 l 1,0,0
 143.33 1484 l 1,0,0
 457.66 1484 l 1,0,0
 457.66 1347.64 l 1,0,0
 765.64 1347.64 l 1,0,0
 765.64 1164.77 l 1,0,0
 457.66 1164.77 l 1,0,0
 457.66 1032.73 l 2,0,0
 457.66 998.05 457.66 998.05 456.99 964.855 c 0,0,0
 456.32 931.66 456.32 931.66 454.82 895.835 c 0,0,0
 453.32 860.01 453.32 860.01 449.66 815.77 c 1,0,0
 453.99 815.77 l 1,0,0
EndSplineSet
EndChar

StartChar: dotlessi
Encoding: 305 305 242
Width: 569
GlyphClass: 2
Flags: W
LayerCount: 2
Fore
SplineSet
443.16 1082 m 1,0,0
 443.16 0 l 1,0,0
 128.83 0 l 1,0,0
 128.83 1082 l 1,0,0
 443.16 1082 l 1,0,0
EndSplineSet
EndChar

StartChar: jcircumflex
Encoding: 309 309 246
Width: 606
GlyphClass: 2
Flags: W
LayerCount: 2
Fore
SplineSet
296.84 1376.65 m 1,0,0
 92.77 1177.06 l 1,0,0
 -85.71 1177.06 l 1,0,0
 -85.71 1207.7 l 1,0,0
 180.21 1541.54 l 1,0,0
 417.46 1541.54 l 1,0,0
 676.04 1207.7 l 1,0,0
 676.04 1177.06 l 1,0,0
 499.22 1177.06 l 1,0,0
 301.5 1376.65 l 1,0,0
 296.84 1376.65 l 1,0,0
158.13 -425 m 0,0,0
 52.2 -425 52.2 -425 -26.06 -416 c 1,0,0
 -26.06 -198.53 l 1,0,0
 21.31 -201.87 l 1,0,0
 94.3 -201.87 94.3 -201.87 120.305 -171.855 c 0,0,0
 146.31 -141.84 146.31 -141.84 146.31 -44.49 c 2,0,0
 146.31 1082 l 1,0,0
 460.64 1082 l 1,0,0
 460.64 -126.02 l 2,0,0
 460.64 -265.72 460.64 -265.72 384.015 -345.36 c 0,0,0
 307.39 -425 307.39 -425 158.13 -425 c 0,0,0
EndSplineSet
EndChar

StartChar: kgreenlandic
Encoding: 312 312 249
Width: 1176
GlyphClass: 2
Flags: W
LayerCount: 2
Fore
SplineSet
458.98 412.6 m 1,0,0
 458.98 0 l 1,0,0
 144.65 0 l 1,0,0
 144.65 1082 l 1,0,0
 458.98 1082 l 1,0,0
 458.98 659.41 l 1,0,0
 815.61 1082 l 1,0,0
 1147.64 1082 l 1,0,0
 787.11 674.19 l 1,0,0
 1178.62 0 l 1,0,0
 839.94 0 l 1,0,0
 576.35 488.68 l 1,0,0
 458.98 412.6 l 1,0,0
EndSplineSet
EndChar

StartChar: Lslash
Encoding: 321 321 258
Width: 1287
GlyphClass: 2
Flags: W
LayerCount: 2
Fore
SplineSet
125.44 0 m 1,0,0
 126.77 464.85 l 1,0,0
 -6.6 406.45 l 1,0,0
 -6.6 653.56 l 1,0,0
 126.77 713.29 l 1,0,0
 126.77 1409 l 1,0,0
 456.09 1409 l 1,0,0
 456.09 864.52 l 1,0,0
 779.59 1011.19 l 1,0,0
 779.59 766.41 l 1,0,0
 456.09 620.07 l 1,0,0
 456.09 255.75 l 1,0,0
 1226.61 255.75 l 1,0,0
 1226.61 0 l 1,0,0
 125.44 0 l 1,0,0
EndSplineSet
EndChar

StartChar: lslash
Encoding: 322 322 259
Width: 606
GlyphClass: 2
Flags: W
LayerCount: 2
Fore
SplineSet
144.65 0 m 1,0,0
 144.65 567.27 l 1,0,0
 18.66 497.94 l 1,0,0
 18.66 731.75 l 1,0,0
 144.65 801.08 l 1,0,0
 144.65 1484 l 1,0,0
 458.98 1484 l 1,0,0
 458.98 974.24 l 1,0,0
 589.63 1048.9 l 1,0,0
 589.63 818.08 l 1,0,0
 458.98 740.43 l 1,0,0
 458.98 0 l 1,0,0
 144.65 0 l 1,0,0
EndSplineSet
EndChar

StartChar: eng
Encoding: 331 331 267
Width: 1287
GlyphClass: 2
Flags: W
LayerCount: 2
Fore
SplineSet
859.44 -425 m 0,0,0
 753.18 -425 753.18 -425 675.25 -416 c 1,0,0
 675.25 -198.53 l 1,0,0
 722.62 -201.87 l 1,0,0
 798.27 -201.87 798.27 -201.87 823.61 -170.525 c 0,0,0
 848.95 -139.18 848.95 -139.18 848.95 -44.49 c 2,0,0
 848.95 580.93 l 2,0,0
 848.95 722.94 848.95 722.94 799.96 795.755 c 0,0,0
 750.97 868.57 750.97 868.57 665.85 868.57 c 0,0,0
 573.09 868.57 573.09 868.57 514.715 781.565 c 0,0,0
 456.34 694.56 456.34 694.56 456.34 564.49 c 2,0,0
 456.34 0 l 1,0,0
 142.01 0 l 1,0,0
 142.01 836.37 l 2,0,0
 142.01 920.73 142.01 920.73 139.18 975.57 c 0,0,0
 136.35 1030.41 136.35 1030.41 133.35 1082 c 1,0,0
 433.69 1082 l 1,0,0
 436.02 1067.03 436.02 1067.03 439.68 1014.28 c 0,0,0
 443.34 961.53 443.34 961.53 446.005 912.72 c 0,0,0
 448.67 863.91 448.67 863.91 448.34 857.1 c 1,0,0
 452.67 857.1 l 1,0,0
 508.02 985.06 508.02 985.06 595.505 1044.195 c 0,0,0
 682.99 1103.33 682.99 1103.33 801.33 1103.33 c 0,0,0
 971.35 1103.33 971.35 1103.33 1066.485 991.555 c 0,0,0
 1161.62 879.78 1161.62 879.78 1161.62 675.78 c 2,0,0
 1161.62 -126.02 l 2,0,0
 1161.62 -266.38 1161.62 -266.38 1084.995 -345.69 c 0,0,0
 1008.37 -425 1008.37 -425 859.44 -425 c 0,0,0
EndSplineSet
EndChar

StartChar: OE
Encoding: 338 338 274
Width: 2048
GlyphClass: 2
Flags: W
LayerCount: 2
Fore
SplineSet
989.69 0 m 1,0,0
 950.37 -1.01 950.37 -1.01 895.875 -5.505 c 0,0,0
 841.38 -10 841.38 -10 794.32 -10 c 0,0,0
 570.01 -10 570.01 -10 409.855 76.335 c 0,0,0
 249.7 162.67 249.7 162.67 164.705 323.34 c 0,0,0
 79.71 484.01 79.71 484.01 79.71 711 c 0,0,0
 79.71 938.32 79.71 938.32 164.705 1096.155 c 0,0,0
 249.7 1253.99 249.7 1253.99 409.855 1336.995 c 0,0,0
 570.01 1420 570.01 1420 796.32 1420 c 0,0,0
 825.38 1420 825.38 1420 875.555 1417 c 0,0,0
 925.73 1414 925.73 1414 996.35 1409 c 1,0,0
 1930.3 1409 l 1,0,0
 1930.3 1158.57 l 1,0,0
 1308.18 1158.57 l 1,0,0
 1308.18 835.58 l 1,0,0
 1868.97 835.58 l 1,0,0
 1868.97 592.47 l 1,0,0
 1308.18 592.47 l 1,0,0
 1308.18 250.43 l 1,0,0
 1971.3 250.43 l 1,0,0
 1971.3 0 l 1,0,0
 989.69 0 l 1,0,0
976.2 1138.97 m 1,0,0
 944.5 1150.95 944.5 1150.95 900.52 1156.935 c 0,0,0
 856.54 1162.92 856.54 1162.92 796.32 1162.92 c 0,0,0
 611.17 1162.92 611.17 1162.92 510.935 1044.525 c 0,0,0
 410.7 926.13 410.7 926.13 410.7 711 c 0,0,0
 410.7 494.87 410.7 494.87 512.94 371.14 c 0,0,0
 615.18 247.41 615.18 247.41 794.32 247.41 c 0,0,0
 857.93 247.41 857.93 247.41 903.4 253.73 c 0,0,0
 948.87 260.05 948.87 260.05 976.2 272.69 c 1,0,0
 976.2 1138.97 l 1,0,0
EndSplineSet
EndChar

StartChar: oe
Encoding: 339 339 275
Width: 1933
GlyphClass: 2
Flags: W
LayerCount: 2
Fore
SplineSet
1206.99 467.09 m 1,0,0
 1206.99 334.29 1206.99 334.29 1260.05 259.89 c 0,0,0
 1313.11 185.49 1313.11 185.49 1406.58 185.49 c 0,0,0
 1466.39 185.49 1466.39 185.49 1506.3 213.205 c 0,0,0
 1546.21 240.92 1546.21 240.92 1563.23 302.28 c 1,0,0
 1863.54 286.54 l 1,0,0
 1742.6 -20 1742.6 -20 1387.96 -20 c 0,0,0
 1161.84 -20 1161.84 -20 1027.87 131.08 c 1,0,0
 877.27 -20 877.27 -20 636.18 -20 c 0,0,0
 378.23 -20 378.23 -20 228.125 131.815 c 0,0,0
 78.02 283.63 78.02 283.63 78.02 542 c 0,0,0
 78.02 797.06 78.02 797.06 227.795 949.53 c 0,0,0
 377.57 1102 377.57 1102 642.18 1102 c 0,0,0
 889.93 1102 889.93 1102 1034.86 956.92 c 1,0,0
 1171.5 1102 1171.5 1102 1395.59 1102 c 0,0,0
 1626.61 1102 1626.61 1102 1750.93 944.035 c 0,0,0
 1875.25 786.07 1875.25 786.07 1875.25 484.44 c 2,0,0
 1875.25 467.09 l 1,0,0
 1206.99 467.09 l 1,0,0
875.68 542 m 0,0,0
 875.68 726.42 875.68 726.42 814.66 807.81 c 0,0,0
 753.64 889.2 753.64 889.2 646.51 889.2 c 0,0,0
 529.73 889.2 529.73 889.2 468.865 802.65 c 0,0,0
 408 716.1 408 716.1 408 542 c 0,0,0
 408 371.89 408 371.89 466.54 281.68 c 0,0,0
 525.08 191.47 525.08 191.47 632.85 191.47 c 0,0,0
 751.63 191.47 751.63 191.47 813.655 280.175 c 0,0,0
 875.68 368.88 875.68 368.88 875.68 542 c 0,0,0
1391.26 910.48 m 0,0,0
 1302.82 910.48 1302.82 910.48 1256.91 847.585 c 0,0,0
 1211 784.69 1211 784.69 1208.99 670.26 c 1,0,0
 1574.87 670.26 l 1,0,0
 1569.18 788.06 1569.18 788.06 1519.79 849.27 c 0,0,0
 1470.4 910.48 1470.4 910.48 1391.26 910.48 c 0,0,0
EndSplineSet
EndChar

StartChar: Tbar
Encoding: 358 358 294
Width: 1251
GlyphClass: 2
Flags: W
LayerCount: 2
Fore
SplineSet
790.49 619.07 m 1,0,0
 790.49 0 l 1,0,0
 460.84 0 l 1,0,0
 460.84 619.07 l 1,0,0
 251 619.07 l 1,0,0
 251 820.95 l 1,0,0
 460.84 820.95 l 1,0,0
 460.84 1157.24 l 1,0,0
 15.41 1157.24 l 1,0,0
 15.41 1409 l 1,0,0
 1237.25 1409 l 1,0,0
 1237.25 1157.24 l 1,0,0
 790.49 1157.24 l 1,0,0
 790.49 820.95 l 1,0,0
 1001 820.95 l 1,0,0
 1001 619.07 l 1,0,0
 790.49 619.07 l 1,0,0
EndSplineSet
EndChar

StartChar: tbar
Encoding: 359 359 295
Width: 719
GlyphClass: 2
Flags: W
LayerCount: 2
Fore
SplineSet
435.84 -18.66 m 0,0,0
 306.56 -18.66 306.56 -18.66 235.27 50.82 c 0,0,0
 163.98 120.3 163.98 120.3 163.98 262.25 c 2,0,0
 163.98 458.81 l 1,0,0
 36.32 458.81 l 1,0,0
 36.32 668.28 l 1,0,0
 163.98 668.28 l 1,0,0
 163.98 872.53 l 1,0,0
 23.02 872.53 l 1,0,0
 23.02 1082 l 1,0,0
 180.29 1082 l 1,0,0
 279.84 1339.96 l 1,0,0
 474.32 1339.96 l 1,0,0
 474.32 1082 l 1,0,0
 680.97 1082 l 1,0,0
 680.97 872.53 l 1,0,0
 474.32 872.53 l 1,0,0
 474.32 668.28 l 1,0,0
 654.37 668.28 l 1,0,0
 654.37 458.81 l 1,0,0
 474.32 458.81 l 1,0,0
 474.32 350.46 l 2,0,0
 474.32 271.13 474.32 271.13 505.805 231.65 c 0,0,0
 537.29 192.17 537.29 192.17 600.29 192.17 c 0,0,0
 628.97 192.17 628.97 192.17 690.99 206.17 c 1,0,0
 690.99 18.64 l 1,0,0
 584.37 -18.66 584.37 -18.66 435.84 -18.66 c 0,0,0
EndSplineSet
EndChar

StartChar: longs
Encoding: 383 383 319
Width: 606
GlyphClass: 2
Flags: W
LayerCount: 2
Fore
SplineSet
456.32 1163.04 m 2,0,0
 456.32 0 l 1,0,0
 143.32 0 l 1,0,0
 143.32 1192.03 l 2,0,0
 143.32 1338.7 143.32 1338.7 225.61 1411.68 c 0,0,0
 307.9 1484.66 307.9 1484.66 475.15 1484.66 c 0,0,0
 559.46 1484.66 559.46 1484.66 669.98 1467.34 c 1,0,0
 669.98 1271.82 l 1,0,0
 632.62 1281.15 632.62 1281.15 587.32 1281.15 c 0,0,0
 514.33 1281.15 514.33 1281.15 485.325 1254.795 c 0,0,0
 456.32 1228.44 456.32 1228.44 456.32 1163.04 c 2,0,0
EndSplineSet
EndChar

StartChar: uni0180
Encoding: 384 384 320
Width: 1287
GlyphClass: 2
Flags: W
LayerCount: 2
Fore
SplineSet
1204.62 518.07 m 0,0,0
 1204.62 260.34 1204.62 260.34 1095.81 120.17 c 0,0,0
 987 -20 987 -20 784.01 -20 c 0,0,0
 670.32 -20 670.32 -20 584.83 32.48 c 0,0,0
 499.34 84.96 499.34 84.96 458.98 175.98 c 1,0,0
 456.98 175.98 l 1,0,0
 456.98 151.99 456.98 151.99 454.98 115.32 c 0,0,0
 452.98 78.65 452.98 78.65 449.65 46.15 c 0,0,0
 446.32 13.65 446.32 13.65 441.66 0 c 1,0,0
 135.99 0 l 1,0,0
 140.32 53.6 140.32 53.6 142.485 117.08 c 0,0,0
 144.65 180.56 144.65 180.56 144.65 254.92 c 2,0,0
 144.65 1164.77 l 1,0,0
 9.67 1164.77 l 1,0,0
 9.67 1347.64 l 1,0,0
 144.65 1347.64 l 1,0,0
 144.65 1484 l 1,0,0
 458.98 1484 l 1,0,0
 458.98 1347.64 l 1,0,0
 770.63 1347.64 l 1,0,0
 770.63 1164.77 l 1,0,0
 458.98 1164.77 l 1,0,0
 458.98 1019.77 l 2,0,0
 458.98 971.81 458.98 971.81 457.315 925.995 c 0,0,0
 455.65 880.18 455.65 880.18 454.98 836.18 c 1,0,0
 458.98 836.18 l 1,0,0
 504.99 940.18 504.99 940.18 593.475 994.49 c 0,0,0
 681.96 1048.8 681.96 1048.8 807.95 1048.8 c 0,0,0
 998.32 1048.8 998.32 1048.8 1101.47 911.465 c 0,0,0
 1204.62 774.13 1204.62 774.13 1204.62 518.07 c 0,0,0
877.3 520.05 m 0,0,0
 877.3 681.88 877.3 681.88 826.61 758.6 c 0,0,0
 775.92 835.32 775.92 835.32 667.52 835.32 c 0,0,0
 558.08 835.32 558.08 835.32 505.87 750.605 c 0,0,0
 453.66 665.89 453.66 665.89 453.66 511.71 c 0,0,0
 453.66 359.89 453.66 359.89 505.035 275.68 c 0,0,0
 556.41 191.47 556.41 191.47 665.52 191.47 c 0,0,0
 774.92 191.47 774.92 191.47 826.11 272.685 c 0,0,0
 877.3 353.9 877.3 353.9 877.3 520.05 c 0,0,0
EndSplineSet
EndChar

StartChar: uni0181
Encoding: 385 385 321
Width: 1765
GlyphClass: 2
Flags: W
LayerCount: 2
Fore
SplineSet
1684.71 403.65 m 0,0,0
 1684.71 210.33 1684.71 210.33 1538.4 105.165 c 0,0,0
 1392.09 0 1392.09 0 1132.13 0 c 2,0,0
 383.24 0 l 1,0,0
 383.24 1173.22 l 1,0,0
 355.57 1173.22 l 2,0,0
 291.87 1173.22 291.87 1173.22 258.87 1147.865 c 0,0,0
 225.87 1122.51 225.87 1122.51 225.87 1072.79 c 0,0,0
 225.87 1018.47 225.87 1018.47 261.16 929.22 c 1,0,0
 27.69 912.22 l 1,0,0
 -6.6 1026.79 -6.6 1026.79 -6.6 1135 c 0,0,0
 -6.6 1261.01 -6.6 1261.01 86.715 1335.005 c 0,0,0
 180.03 1409 180.03 1409 330.04 1409 c 2,0,0
 1072.13 1409 l 2,0,0
 1604.04 1409 1604.04 1409 1604.04 1051.04 c 0,0,0
 1604.04 932.69 1604.04 932.69 1538.695 851.015 c 0,0,0
 1473.35 769.34 1473.35 769.34 1334.71 740.34 c 1,0,0
 1506.7 720.34 1506.7 720.34 1595.705 634.49 c 0,0,0
 1684.71 548.64 1684.71 548.64 1684.71 403.65 c 0,0,0
1272.39 1005.43 m 0,0,0
 1272.39 1094.16 1272.39 1094.16 1217 1131.19 c 0,0,0
 1161.61 1168.22 1161.61 1168.22 1053.51 1168.22 c 2,0,0
 712.56 1168.22 l 1,0,0
 712.56 851.23 l 1,0,0
 1056.17 851.23 l 2,0,0
 1171.93 851.23 1171.93 851.23 1222.16 890.11 c 0,0,0
 1272.39 928.99 1272.39 928.99 1272.39 1005.43 c 0,0,0
1354.72 429.29 m 0,0,0
 1354.72 610.46 1354.72 610.46 1092.5 610.46 c 2,0,0
 712.56 610.46 l 1,0,0
 712.56 240.78 l 1,0,0
 1102.18 240.78 l 2,0,0
 1231.96 240.78 1231.96 240.78 1293.34 287.825 c 0,0,0
 1354.72 334.87 1354.72 334.87 1354.72 429.29 c 0,0,0
EndSplineSet
EndChar

StartChar: uni0182
Encoding: 386 386 322
Width: 1514
GlyphClass: 2
Flags: W
LayerCount: 2
Fore
SplineSet
1431.91 436.94 m 0,0,0
 1431.91 308.95 1431.91 308.95 1367.26 209.965 c 0,0,0
 1302.61 110.98 1302.61 110.98 1182.805 55.49 c 0,0,0
 1063 0 1063 0 899.03 0 c 2,0,0
 126.77 0 l 1,0,0
 126.77 1409 l 1,0,0
 1224.07 1409 l 1,0,0
 1224.07 1158.57 l 1,0,0
 456.09 1158.57 l 1,0,0
 456.09 850.24 l 1,0,0
 945.55 850.24 l 2,0,0
 1182.88 850.24 1182.88 850.24 1307.395 741.915 c 0,0,0
 1431.91 633.59 1431.91 633.59 1431.91 436.94 c 0,0,0
1097.6 429.62 m 0,0,0
 1097.6 513.38 1097.6 513.38 1032.89 561.92 c 0,0,0
 968.18 610.46 968.18 610.46 838.76 610.46 c 2,0,0
 456.09 610.46 l 1,0,0
 456.09 241.44 l 1,0,0
 844.1 241.44 l 2,0,0
 969.53 241.44 969.53 241.44 1033.565 287.495 c 0,0,0
 1097.6 333.55 1097.6 333.55 1097.6 429.62 c 0,0,0
EndSplineSet
EndChar

StartChar: uni0183
Encoding: 387 387 323
Width: 1287
GlyphClass: 2
Flags: W
LayerCount: 2
Fore
SplineSet
1204.62 518.07 m 0,0,0
 1204.62 268.32 1204.62 268.32 1091.82 124.16 c 0,0,0
 979.02 -20 979.02 -20 784.01 -20 c 0,0,0
 670.32 -20 670.32 -20 584.83 32.48 c 0,0,0
 499.34 84.96 499.34 84.96 458.98 175.98 c 1,0,0
 456.98 175.98 l 1,0,0
 456.98 151.99 456.98 151.99 454.98 115.32 c 0,0,0
 452.98 78.65 452.98 78.65 449.65 46.15 c 0,0,0
 446.32 13.65 446.32 13.65 441.66 0 c 1,0,0
 135.99 0 l 1,0,0
 140.32 53.6 140.32 53.6 142.485 117.08 c 0,0,0
 144.65 180.56 144.65 180.56 144.65 254.92 c 2,0,0
 144.65 1484 l 1,0,0
 885.99 1484 l 1,0,0
 885.99 1253.18 l 1,0,0
 458.98 1253.18 l 1,0,0
 458.98 1019.77 l 2,0,0
 458.98 971.81 458.98 971.81 457.315 925.995 c 0,0,0
 455.65 880.18 455.65 880.18 454.98 836.18 c 1,0,0
 458.98 836.18 l 1,0,0
 504.99 940.18 504.99 940.18 593.475 994.49 c 0,0,0
 681.96 1048.8 681.96 1048.8 807.95 1048.8 c 0,0,0
 990.34 1048.8 990.34 1048.8 1097.48 907.475 c 0,0,0
 1204.62 766.15 1204.62 766.15 1204.62 518.07 c 0,0,0
877.3 520.05 m 0,0,0
 877.3 672.57 877.3 672.57 823.285 753.945 c 0,0,0
 769.27 835.32 769.27 835.32 667.52 835.32 c 0,0,0
 570.05 835.32 570.05 835.32 511.855 749.275 c 0,0,0
 453.66 663.23 453.66 663.23 453.66 511.71 c 0,0,0
 453.66 365.21 453.66 365.21 510.355 278.34 c 0,0,0
 567.05 191.47 567.05 191.47 665.52 191.47 c 0,0,0
 769.6 191.47 769.6 191.47 823.45 276.01 c 0,0,0
 877.3 360.55 877.3 360.55 877.3 520.05 c 0,0,0
EndSplineSet
EndChar

StartChar: uni0184
Encoding: 388 388 324
Width: 1514
GlyphClass: 2
Flags: W
LayerCount: 2
Fore
SplineSet
1431.91 435.29 m 0,0,0
 1431.91 305.97 1431.91 305.97 1369.92 207.98 c 0,0,0
 1307.93 110.32 1307.93 110.32 1185.96 55.16 c 0,0,0
 1063.99 0 1063.99 0 899.03 0 c 2,0,0
 126.77 0 l 1,0,0
 126.77 1000.36 l 1,0,0
 -3.3 1136.1 l 1,0,0
 -3.3 1173.09 l 1,0,0
 374.82 1409 l 1,0,0
 456.09 1409 l 1,0,0
 456.09 846.94 l 1,0,0
 945.55 846.94 l 2,0,0
 1182.55 846.94 1182.55 846.94 1307.23 739.44 c 0,0,0
 1431.91 631.94 1431.91 631.94 1431.91 435.29 c 0,0,0
1097.6 427.97 m 0,0,0
 1097.6 512.06 1097.6 512.06 1033.055 559.61 c 0,0,0
 968.51 607.16 968.51 607.16 838.76 607.16 c 2,0,0
 456.09 607.16 l 1,0,0
 456.09 241.44 l 1,0,0
 844.1 241.44 l 2,0,0
 969.53 241.44 969.53 241.44 1033.565 286.67 c 0,0,0
 1097.6 331.9 1097.6 331.9 1097.6 427.97 c 0,0,0
EndSplineSet
EndChar

StartChar: uni0185
Encoding: 389 389 325
Width: 1287
GlyphClass: 2
Flags: W
LayerCount: 2
Fore
SplineSet
1204.62 544.67 m 0,0,0
 1204.62 281.62 1204.62 281.62 1094.48 130.81 c 0,0,0
 984.34 -20 984.34 -20 784.01 -20 c 0,0,0
 670.32 -20 670.32 -20 584.83 32.48 c 0,0,0
 499.34 84.96 499.34 84.96 458.98 175.98 c 1,0,0
 456.98 175.98 l 1,0,0
 456.98 151.99 456.98 151.99 454.98 115.32 c 0,0,0
 452.98 78.65 452.98 78.65 449.65 46.15 c 0,0,0
 446.32 13.65 446.32 13.65 441.66 0 c 1,0,0
 135.99 0 l 1,0,0
 140.32 53.6 140.32 53.6 142.485 117.08 c 0,0,0
 144.65 180.56 144.65 180.56 144.65 254.92 c 2,0,0
 144.65 1100.63 l 1,0,0
 -3.3 1231.42 l 1,0,0
 -3.3 1268.41 l 1,0,0
 376.06 1484 l 1,0,0
 458.98 1484 l 1,0,0
 458.98 1072.97 l 2,0,0
 458.98 1025.01 458.98 1025.01 457.98 979.195 c 0,0,0
 456.98 933.38 456.98 933.38 454.98 889.38 c 1,0,0
 458.98 889.38 l 1,0,0
 504.99 993.38 504.99 993.38 593.475 1047.69 c 0,0,0
 681.96 1102 681.96 1102 807.95 1102 c 0,0,0
 995.66 1102 995.66 1102 1100.14 954.025 c 0,0,0
 1204.62 806.05 1204.62 806.05 1204.62 544.67 c 0,0,0
877.3 546.65 m 0,0,0
 877.3 716.46 877.3 716.46 825.28 802.49 c 0,0,0
 773.26 888.52 773.26 888.52 667.52 888.52 c 0,0,0
 566.06 888.52 566.06 888.52 509.86 795.825 c 0,0,0
 453.66 703.13 453.66 703.13 453.66 538.31 c 0,0,0
 453.66 379.84 453.66 379.84 509.025 285.655 c 0,0,0
 564.39 191.47 564.39 191.47 665.52 191.47 c 0,0,0
 769.6 191.47 769.6 191.47 823.45 281.995 c 0,0,0
 877.3 372.52 877.3 372.52 877.3 546.65 c 0,0,0
EndSplineSet
EndChar

StartChar: uni0186
Encoding: 390 390 326
Width: 1479
GlyphClass: 2
Flags: W
LayerCount: 2
Fore
SplineSet
689.02 237.08 m 0,0,0
 878.13 237.08 878.13 237.08 973.215 352.83 c 0,0,0
 1068.3 468.58 1068.3 468.58 1068.3 699 c 0,0,0
 1068.3 857.04 1068.3 857.04 1025.255 962.765 c 0,0,0
 982.21 1068.49 982.21 1068.49 895.98 1120.87 c 0,0,0
 809.75 1173.25 809.75 1173.25 682.35 1173.25 c 0,0,0
 421.61 1173.25 421.61 1173.25 334.78 913.5 c 1,0,0
 44.45 1016.77 l 1,0,0
 125.8 1228.03 125.8 1228.03 287.95 1329.015 c 0,0,0
 450.1 1430 450.1 1430 679.38 1430 c 0,0,0
 910.34 1430 910.34 1430 1070.655 1344.16 c 0,0,0
 1230.97 1258.32 1230.97 1258.32 1315.13 1094.985 c 0,0,0
 1399.29 931.65 1399.29 931.65 1399.29 699 c 0,0,0
 1399.29 465.02 1399.29 465.02 1319.785 305.185 c 0,0,0
 1240.28 145.35 1240.28 145.35 1083.955 62.675 c 0,0,0
 927.63 -20 927.63 -20 696.34 -20 c 0,0,0
 441.08 -20 441.08 -20 282.77 83.625 c 0,0,0
 124.46 187.25 124.46 187.25 64.1 386.19 c 1,0,0
 350.17 460.82 l 1,0,0
 379.21 359.44 379.21 359.44 471.915 298.26 c 0,0,0
 564.62 237.08 564.62 237.08 689.02 237.08 c 0,0,0
EndSplineSet
EndChar

StartChar: uni0187
Encoding: 391 391 327
Width: 1479
GlyphClass: 2
Flags: W
LayerCount: 2
Fore
SplineSet
1124.54 949.18 m 1,0,0
 1096.82 1049.57 1096.82 1049.57 1004.28 1111.245 c 0,0,0
 911.74 1172.92 911.74 1172.92 786.68 1172.92 c 0,0,0
 597.9 1172.92 597.9 1172.92 503.145 1057.665 c 0,0,0
 408.39 942.41 408.39 942.41 408.39 711 c 0,0,0
 408.39 552.3 408.39 552.3 451.27 447.405 c 0,0,0
 494.15 342.51 494.15 342.51 580.05 289.63 c 0,0,0
 665.95 236.75 665.95 236.75 793.35 236.75 c 0,0,0
 913.42 236.75 913.42 236.75 1000.315 296.285 c 0,0,0
 1087.21 355.82 1087.21 355.82 1139.93 496.5 c 1,0,0
 1430.26 393.23 l 1,0,0
 1351.24 184.63 1351.24 184.63 1189.085 82.315 c 0,0,0
 1026.93 -20 1026.93 -20 796.32 -20 c 0,0,0
 566.36 -20 566.36 -20 405.71 65.675 c 0,0,0
 245.06 151.35 245.06 151.35 161.23 315.185 c 0,0,0
 77.4 479.02 77.4 479.02 77.4 711 c 0,0,0
 77.4 945.31 77.4 945.31 156.74 1104.98 c 0,0,0
 236.08 1264.65 236.08 1264.65 392.74 1347.325 c 0,0,0
 549.4 1430 549.4 1430 779.36 1430 c 0,0,0
 970.24 1430 970.24 1430 1108.97 1376.8 c 1,0,0
 1108.97 1449.01 l 2,0,0
 1108.97 1592.33 1108.97 1592.33 1196.755 1664.68 c 0,0,0
 1284.54 1737.03 1284.54 1737.03 1441.12 1737.03 c 0,0,0
 1520.39 1737.03 1520.39 1737.03 1603.68 1719.37 c 1,0,0
 1603.68 1499.86 l 1,0,0
 1544.69 1509.88 1544.69 1509.88 1515.68 1509.88 c 0,0,0
 1460.64 1509.88 1460.64 1509.88 1435.625 1475.71 c 0,0,0
 1410.61 1441.54 1410.61 1441.54 1410.61 1371.19 c 2,0,0
 1410.61 1023.81 l 1,0,0
 1124.54 949.18 l 1,0,0
EndSplineSet
EndChar

StartChar: uni0188
Encoding: 392 392 328
Width: 1176
GlyphClass: 2
Flags: W
LayerCount: 2
Fore
SplineSet
790.97 714.46 m 1,0,0
 779.63 795.15 779.63 795.15 734.6 843.495 c 0,0,0
 689.57 891.84 689.57 891.84 607.18 891.84 c 0,0,0
 509.4 891.84 509.4 891.84 458.7 802.825 c 0,0,0
 408 713.81 408 713.81 408 546 c 0,0,0
 408 368.57 408 368.57 459.375 278.535 c 0,0,0
 510.75 188.5 510.75 188.5 611.84 188.5 c 0,0,0
 686.56 188.5 686.56 188.5 737.095 238.505 c 0,0,0
 787.63 288.51 787.63 288.51 799.97 385.87 c 1,0,0
 1114.97 372.54 l 1,0,0
 1099.64 259.23 1099.64 259.23 1032.835 170.925 c 0,0,0
 966.03 82.62 966.03 82.62 856.915 31.31 c 0,0,0
 747.8 -20 747.8 -20 607.53 -20 c 0,0,0
 355.26 -20 355.26 -20 216.475 127.49 c 0,0,0
 77.69 274.98 77.69 274.98 77.69 532.69 c 0,0,0
 77.69 799.04 77.69 799.04 217.64 950.52 c 0,0,0
 357.59 1102 357.59 1102 613.51 1102 c 0,0,0
 716.96 1102 716.96 1102 813.65 1075.22 c 1,0,0
 821.32 1209.52 821.32 1209.52 904.11 1276.185 c 0,0,0
 986.9 1342.85 986.9 1342.85 1136.82 1342.85 c 0,0,0
 1218.4 1342.85 1218.4 1342.85 1306.31 1324.2 c 1,0,0
 1306.31 1106.37 l 1,0,0
 1240.72 1117.05 1240.72 1117.05 1215.34 1117.05 c 0,0,0
 1158.65 1117.05 1158.65 1117.05 1132.48 1082.88 c 0,0,0
 1106.31 1048.71 1106.31 1048.71 1106.31 978.36 c 2,0,0
 1106.31 728.46 l 1,0,0
 790.97 714.46 l 1,0,0
EndSplineSet
EndChar

StartChar: uni018A
Encoding: 394 394 330
Width: 1733
GlyphClass: 2
Flags: W
LayerCount: 2
Fore
SplineSet
1653.43 713.68 m 0,0,0
 1653.43 494.35 1653.43 494.35 1568.43 334.01 c 0,0,0
 1483.43 171.01 1483.43 171.01 1326.1 85.505 c 0,0,0
 1168.77 0 1168.77 0 967.43 0 c 2,0,0
 383.24 0 l 1,0,0
 383.24 1173.22 l 1,0,0
 355.57 1173.22 l 2,0,0
 291.87 1173.22 291.87 1173.22 258.87 1147.865 c 0,0,0
 225.87 1122.51 225.87 1122.51 225.87 1072.79 c 0,0,0
 225.87 1018.47 225.87 1018.47 261.16 929.22 c 1,0,0
 27.69 912.22 l 1,0,0
 -6.6 1026.79 -6.6 1026.79 -6.6 1135 c 0,0,0
 -6.6 1261.01 -6.6 1261.01 86.715 1335.005 c 0,0,0
 180.03 1409 180.03 1409 330.04 1409 c 2,0,0
 907.76 1409 l 2,0,0
 1263.1 1409 1263.1 1409 1458.265 1228.17 c 0,0,0
 1653.43 1047.34 1653.43 1047.34 1653.43 713.68 c 0,0,0
1321.78 713.68 m 0,0,0
 1321.78 929.13 1321.78 929.13 1212.195 1042.69 c 0,0,0
 1102.61 1156.25 1102.61 1156.25 901.1 1156.25 c 2,0,0
 712.56 1156.25 l 1,0,0
 712.56 252.75 l 1,0,0
 941.44 252.75 l 2,0,0
 1059.2 252.75 1059.2 252.75 1143.945 309.115 c 0,0,0
 1228.69 365.48 1228.69 365.48 1275.235 468.54 c 0,0,0
 1321.78 571.6 1321.78 571.6 1321.78 713.68 c 0,0,0
EndSplineSet
EndChar

StartChar: uni018B
Encoding: 395 395 331
Width: 1514
GlyphClass: 2
Flags: W
LayerCount: 2
Fore
SplineSet
90.31 436.94 m 0,0,0
 90.31 633.59 90.31 633.59 215.49 741.915 c 0,0,0
 340.67 850.24 340.67 850.24 576.67 850.24 c 2,0,0
 1066.13 850.24 l 1,0,0
 1066.13 1158.57 l 1,0,0
 298.15 1158.57 l 1,0,0
 298.15 1409 l 1,0,0
 1395.45 1409 l 1,0,0
 1395.45 0 l 1,0,0
 623.19 0 l 2,0,0
 379.9 0 379.9 0 235.105 116.99 c 0,0,0
 90.31 233.98 90.31 233.98 90.31 436.94 c 0,0,0
424.62 429.62 m 0,0,0
 424.62 333.55 424.62 333.55 488.655 287.495 c 0,0,0
 552.69 241.44 552.69 241.44 678.12 241.44 c 2,0,0
 1066.13 241.44 l 1,0,0
 1066.13 610.46 l 1,0,0
 683.46 610.46 l 2,0,0
 554.04 610.46 554.04 610.46 489.33 561.92 c 0,0,0
 424.62 513.38 424.62 513.38 424.62 429.62 c 0,0,0
EndSplineSet
EndChar

StartChar: uni018C
Encoding: 396 396 332
Width: 1287
GlyphClass: 2
Flags: W
LayerCount: 2
Fore
SplineSet
84.66 518.07 m 0,0,0
 84.66 764.82 84.66 764.82 191.8 906.81 c 0,0,0
 298.94 1048.8 298.94 1048.8 481.33 1048.8 c 0,0,0
 607.32 1048.8 607.32 1048.8 695.805 994.49 c 0,0,0
 784.29 940.18 784.29 940.18 830.3 836.18 c 1,0,0
 834.3 836.18 l 1,0,0
 833.63 880.18 833.63 880.18 831.965 925.995 c 0,0,0
 830.3 971.81 830.3 971.81 830.3 1019.77 c 2,0,0
 830.3 1253.18 l 1,0,0
 403.29 1253.18 l 1,0,0
 403.29 1484 l 1,0,0
 1144.63 1484 l 1,0,0
 1144.63 254.92 l 2,0,0
 1144.63 180.56 1144.63 180.56 1146.795 117.08 c 0,0,0
 1148.96 53.6 1148.96 53.6 1153.29 0 c 1,0,0
 847.62 0 l 1,0,0
 843.96 12.65 843.96 12.65 840.13 44.985 c 0,0,0
 836.3 77.32 836.3 77.32 834.3 113.99 c 0,0,0
 832.3 150.66 832.3 150.66 832.3 175.98 c 1,0,0
 830.3 175.98 l 1,0,0
 785.95 82.3 785.95 82.3 701.79 31.15 c 0,0,0
 617.63 -20 617.63 -20 505.27 -20 c 0,0,0
 311.59 -20 311.59 -20 198.125 124.16 c 0,0,0
 84.66 268.32 84.66 268.32 84.66 518.07 c 0,0,0
411.98 520.05 m 0,0,0
 411.98 360.22 411.98 360.22 465.83 275.845 c 0,0,0
 519.68 191.47 519.68 191.47 623.76 191.47 c 0,0,0
 722.89 191.47 722.89 191.47 779.255 279.17 c 0,0,0
 835.62 366.87 835.62 366.87 835.62 511.71 c 0,0,0
 835.62 662.56 835.62 662.56 777.925 748.94 c 0,0,0
 720.23 835.32 720.23 835.32 621.76 835.32 c 0,0,0
 520.01 835.32 520.01 835.32 465.995 754.11 c 0,0,0
 411.98 672.9 411.98 672.9 411.98 520.05 c 0,0,0
EndSplineSet
EndChar

StartChar: uni018D
Encoding: 397 397 333
Width: 1275
GlyphClass: 2
Flags: W
LayerCount: 2
Fore
SplineSet
1209.94 550.35 m 0,0,0
 1209.94 341.88 1209.94 341.88 1098.275 197.23 c 0,0,0
 986.61 52.58 986.61 52.58 785.89 10.32 c 1,0,0
 1129.92 -227.83 l 1,0,0
 1129.92 -423.67 l 1,0,0
 158.41 -423.67 l 1,0,0
 158.41 -201.53 l 1,0,0
 701.35 -201.53 l 1,0,0
 290.31 80.31 l 2,0,0
 197.61 143.37 197.61 143.37 137.815 262.195 c 0,0,0
 78.02 381.02 78.02 381.02 78.02 550.35 c 0,0,0
 78.02 711.08 78.02 711.08 147.98 835.57 c 0,0,0
 217.94 960.06 217.94 960.06 345.225 1031.03 c 0,0,0
 472.51 1102 472.51 1102 645.48 1102 c 0,0,0
 913.77 1102 913.77 1102 1061.855 957.035 c 0,0,0
 1209.94 812.07 1209.94 812.07 1209.94 550.35 c 0,0,0
881.29 550.35 m 0,0,0
 881.29 715.82 881.29 715.82 820.945 802.51 c 0,0,0
 760.6 889.2 760.6 889.2 649.81 889.2 c 0,0,0
 532.7 889.2 532.7 889.2 470.35 803.17 c 0,0,0
 408 717.14 408 717.14 408 550.35 c 0,0,0
 408 386.23 408 386.23 469.85 298.19 c 0,0,0
 531.7 210.15 531.7 210.15 636.15 210.15 c 0,0,0
 753.94 210.15 753.94 210.15 817.615 294.87 c 0,0,0
 881.29 379.59 881.29 379.59 881.29 550.35 c 0,0,0
EndSplineSet
EndChar

StartChar: uni018E
Encoding: 398 398 334
Width: 1366
GlyphClass: 2
Flags: W
LayerCount: 2
Fore
SplineSet
1238.9 1409 m 1,0,0
 1238.9 0 l 1,0,0
 77.03 0 l 1,0,0
 77.03 251.76 l 1,0,0
 909.58 251.76 l 1,0,0
 909.58 583.16 l 1,0,0
 179.36 583.16 l 1,0,0
 179.36 835.58 l 1,0,0
 909.58 835.58 l 1,0,0
 909.58 1157.24 l 1,0,0
 118.03 1157.24 l 1,0,0
 118.03 1409 l 1,0,0
 1238.9 1409 l 1,0,0
EndSplineSet
EndChar

StartChar: uni018F
Encoding: 399 399 335
Width: 1469
GlyphClass: 2
Flags: W
LayerCount: 2
Fore
SplineSet
1037.21 860.54 m 1,0,0
 1020.19 1012.04 1020.19 1012.04 945.39 1097.135 c 0,0,0
 870.59 1182.23 870.59 1182.23 731.44 1182.23 c 0,0,0
 620.33 1182.23 620.33 1182.23 555.06 1136.345 c 0,0,0
 489.79 1090.46 489.79 1090.46 450.08 989.41 c 1,0,0
 159.02 1067.69 l 1,0,0
 219.73 1251.65 219.73 1251.65 362.59 1340.825 c 0,0,0
 505.45 1430 505.45 1430 732.77 1430 c 0,0,0
 979.01 1430 979.01 1430 1141.98 1308.42 c 0,0,0
 1260.73 1218.76 1260.73 1218.76 1324.605 1067.895 c 0,0,0
 1388.48 917.03 1388.48 917.03 1388.48 711 c 0,0,0
 1388.48 489.67 1388.48 489.67 1309.14 323.34 c 0,0,0
 1229.8 157.34 1229.8 157.34 1080.79 68.67 c 0,0,0
 931.78 -20 931.78 -20 730.77 -20 c 0,0,0
 526.76 -20 526.76 -20 380.74 67.67 c 0,0,0
 236.05 154.01 236.05 154.01 158.375 319.18 c 0,0,0
 80.7 484.35 80.7 484.35 80.7 711 c 0,0,0
 80.7 755.27 80.7 755.27 83.53 792.405 c 0,0,0
 86.36 829.54 86.36 829.54 91.02 860.54 c 1,0,0
 1037.21 860.54 l 1,0,0
730.77 232.4 m 0,0,0
 869.99 232.4 869.99 232.4 949.605 326.01 c 0,0,0
 1029.22 419.62 1029.22 419.62 1041.55 600.13 c 1,0,0
 422.3 600.13 l 1,0,0
 432.65 422.29 432.65 422.29 514.77 327.345 c 0,0,0
 596.89 232.4 596.89 232.4 730.77 232.4 c 0,0,0
EndSplineSet
EndChar

StartChar: uni0190
Encoding: 400 400 336
Width: 1298
GlyphClass: 2
Flags: W
LayerCount: 2
Fore
SplineSet
643.91 -20 m 0,0,0
 469.3 -20 469.3 -20 346.48 30.34 c 0,0,0
 223.66 80.68 223.66 80.68 159.82 175.675 c 0,0,0
 95.98 270.67 95.98 270.67 95.98 402.97 c 0,0,0
 95.98 531.67 95.98 531.67 180.64 616.515 c 0,0,0
 265.3 701.36 265.3 701.36 410 722.7 c 1,0,0
 130 797.65 130 797.65 130 1049.67 c 0,0,0
 130 1161.01 130 1161.01 194.985 1246.675 c 0,0,0
 259.97 1332.34 259.97 1332.34 378.105 1380.67 c 0,0,0
 496.24 1429 496.24 1429 654.86 1429 c 0,0,0
 879.13 1429 879.13 1429 1017.615 1329.04 c 0,0,0
 1156.1 1229.08 1156.1 1229.08 1223.44 1018.84 c 1,0,0
 925.74 957.84 l 1,0,0
 893.03 1073.54 893.03 1073.54 826.48 1132.54 c 0,0,0
 759.93 1191.54 759.93 1191.54 659.2 1191.54 c 0,0,0
 558.46 1191.54 558.46 1191.54 502.24 1146.84 c 0,0,0
 446.02 1102.14 446.02 1102.14 446.02 1014.44 c 0,0,0
 446.02 837.91 446.02 837.91 721.55 837.91 c 2,0,0
 776.59 837.91 l 1,0,0
 776.59 584.84 l 1,0,0
 721.55 584.84 l 2,0,0
 563.44 584.84 563.44 584.84 489.385 545.125 c 0,0,0
 415.33 505.41 415.33 505.41 415.33 414.97 c 0,0,0
 415.33 328.2 415.33 328.2 474.905 280.475 c 0,0,0
 534.48 232.75 534.48 232.75 654.9 232.75 c 0,0,0
 883.32 232.75 883.32 232.75 965.08 479.48 c 1,0,0
 1261.75 381.2 l 1,0,0
 1199.36 180.57 1199.36 180.57 1045.745 80.285 c 0,0,0
 892.13 -20 892.13 -20 643.91 -20 c 0,0,0
EndSplineSet
EndChar

StartChar: uni0191
Encoding: 401 401 337
Width: 1251
GlyphClass: 2
Flags: W
LayerCount: 2
Fore
SplineSet
456.09 0.34 m 2,0,0
 456.09 -213.15 456.09 -213.15 365.97 -319.075 c 0,0,0
 275.85 -425 275.85 -425 90.32 -425 c 0,0,0
 15.03 -425 15.03 -425 -81.94 -405 c 1,0,0
 -93.49 -163.88 l 1,0,0
 -24.53 -175.56 -24.53 -175.56 4.15 -175.56 c 0,0,0
 73.44 -175.56 73.44 -175.56 100.105 -137.225 c 0,0,0
 126.77 -98.89 126.77 -98.89 126.77 -19.89 c 2,0,0
 126.77 1409 l 1,0,0
 1178.31 1409 l 1,0,0
 1178.31 1157.24 l 1,0,0
 456.09 1157.24 l 1,0,0
 456.09 750.28 l 1,0,0
 1155.64 750.28 l 1,0,0
 1155.64 499.18 l 1,0,0
 456.09 499.18 l 1,0,0
 456.09 0.34 l 2,0,0
EndSplineSet
EndChar

StartChar: florin
Encoding: 402 402 338
Width: 1139
GlyphClass: 2
Flags: W
LayerCount: 2
Fore
SplineSet
895.23 1265.45 m 1,0,0
 871.58 1273.11 871.58 1273.11 839.25 1278.11 c 0,0,0
 806.92 1283.11 806.92 1283.11 791.21 1283.11 c 0,0,0
 737.52 1283.11 737.52 1283.11 713.505 1259.905 c 0,0,0
 689.49 1236.7 689.49 1236.7 689.49 1169.64 c 2,0,0
 689.49 1101.8 l 1,0,0
 903.15 1101.8 l 1,0,0
 903.15 892.33 l 1,0,0
 690.15 892.33 l 1,0,0
 690.15 -414.77 l 1,0,0
 377.15 -414.77 l 1,0,0
 377.15 892.33 l 1,0,0
 217.17 892.33 l 1,0,0
 217.17 1101.8 l 1,0,0
 376.82 1101.8 l 1,0,0
 376.82 1208.53 l 2,0,0
 376.82 1355.23 376.82 1355.23 457.115 1424.565 c 0,0,0
 537.41 1493.9 537.41 1493.9 702.33 1493.9 c 0,0,0
 756.95 1493.9 756.95 1493.9 809.255 1486.24 c 0,0,0
 861.56 1478.58 861.56 1478.58 895.23 1464.59 c 1,0,0
 895.23 1265.45 l 1,0,0
EndSplineSet
EndChar

StartChar: uni0193
Encoding: 403 403 339
Width: 1593
GlyphClass: 2
Flags: W
LayerCount: 2
Fore
SplineSet
1143.21 960.21 m 1,0,0
 1104.49 1062.92 1104.49 1062.92 1014.285 1117.92 c 0,0,0
 924.08 1172.92 924.08 1172.92 806.98 1172.92 c 0,0,0
 610.86 1172.92 610.86 1172.92 509.79 1054.015 c 0,0,0
 408.72 935.11 408.72 935.11 408.72 711 c 0,0,0
 408.72 481.24 408.72 481.24 511.805 358.66 c 0,0,0
 614.89 236.08 614.89 236.08 803.69 236.08 c 0,0,0
 911.1 236.08 911.1 236.08 1015.305 266.775 c 0,0,0
 1119.51 297.47 1119.51 297.47 1173.56 342.87 c 1,0,0
 1173.56 518.4 l 1,0,0
 854.97 518.4 l 1,0,0
 854.97 755.54 l 1,0,0
 1474.58 755.54 l 1,0,0
 1474.58 226.98 l 1,0,0
 1362.58 111.65 1362.58 111.65 1177.47 45.825 c 0,0,0
 992.36 -20 992.36 -20 793.05 -20 c 0,0,0
 561.08 -20 561.08 -20 401.415 64.345 c 0,0,0
 241.75 148.69 241.75 148.69 159.74 311.86 c 0,0,0
 77.73 475.03 77.73 475.03 77.73 711 c 0,0,0
 77.73 1060.65 77.73 1060.65 264.39 1245.325 c 0,0,0
 451.05 1430 451.05 1430 805.33 1430 c 0,0,0
 998.24 1430 998.24 1430 1143.27 1374.83 c 1,0,0
 1143.27 1443.4 l 2,0,0
 1143.27 1586.72 1143.27 1586.72 1231.055 1659.07 c 0,0,0
 1318.84 1731.42 1318.84 1731.42 1475.42 1731.42 c 0,0,0
 1554.69 1731.42 1554.69 1731.42 1637.98 1713.76 c 1,0,0
 1637.98 1494.25 l 1,0,0
 1578.99 1504.27 1578.99 1504.27 1549.98 1504.27 c 0,0,0
 1494.94 1504.27 1494.94 1504.27 1469.925 1470.1 c 0,0,0
 1444.91 1435.93 1444.91 1435.93 1444.91 1365.58 c 2,0,0
 1444.91 1051.45 l 1,0,0
 1143.21 960.21 l 1,0,0
EndSplineSet
EndChar

StartChar: uni0194
Encoding: 404 404 340
Width: 1312
GlyphClass: 2
Flags: W
LayerCount: 2
Fore
SplineSet
15.32 1409 m 1,0,0
 358.63 1409 l 1,0,0
 661.28 587.55 l 1,0,0
 960.6 1409 l 1,0,0
 1299.92 1409 l 1,0,0
 825.78 277.59 l 1,0,0
 879.09 181.96 879.09 181.96 914.245 110.98 c 0,0,0
 949.4 40 949.4 40 965.4 -3.67 c 0,0,0
 997.73 -94 997.73 -94 997.73 -148.03 c 0,0,0
 997.73 -284.99 997.73 -284.99 909.95 -354.995 c 0,0,0
 822.17 -425 822.17 -425 660.95 -425 c 0,0,0
 502.06 -425 502.06 -425 413.615 -352.17 c 0,0,0
 325.17 -279.34 325.17 -279.34 325.17 -146.7 c 0,0,0
 325.17 -85.35 325.17 -85.35 353.19 -6.3 c 0,0,0
 366.53 35.04 366.53 35.04 402.01 106.345 c 0,0,0
 437.49 177.65 437.49 177.65 493.45 277.59 c 1,0,0
 15.32 1409 l 1,0,0
736.31 -107.14 m 0,0,0
 736.31 -76.74 736.31 -76.74 722.28 -33.475 c 0,0,0
 708.25 9.79 708.25 9.79 660.95 83.45 c 1,0,0
 622.96 21.76 622.96 21.76 604.94 -24.33 c 0,0,0
 586.92 -70.42 586.92 -70.42 586.92 -105.81 c 0,0,0
 586.92 -152.16 586.92 -152.16 607.925 -172.35 c 0,0,0
 628.93 -192.54 628.93 -192.54 660.95 -192.54 c 0,0,0
 692.97 -192.54 692.97 -192.54 714.64 -172.85 c 0,0,0
 736.31 -153.16 736.31 -153.16 736.31 -107.14 c 0,0,0
EndSplineSet
EndChar

StartChar: uni0195
Encoding: 405 405 341
Width: 1939
GlyphClass: 2
Flags: W
LayerCount: 2
Fore
SplineSet
1333.14 -20 m 0,0,0
 1079.61 -20 1079.61 -20 961.64 101.78 c 0,0,0
 843.67 223.56 843.67 223.56 843.67 487.35 c 2,0,0
 843.67 579.6 l 2,0,0
 843.67 719.3 843.67 719.3 798.805 793.27 c 0,0,0
 753.94 867.24 753.94 867.24 667.17 867.24 c 0,0,0
 573.42 867.24 573.42 867.24 515.54 779.905 c 0,0,0
 457.66 692.57 457.66 692.57 457.66 559.53 c 2,0,0
 457.66 0 l 1,0,0
 143.33 0 l 1,0,0
 143.33 1484 l 1,0,0
 457.66 1484 l 1,0,0
 457.66 1072.73 l 2,0,0
 457.66 1038.05 457.66 1038.05 456.99 1004.855 c 0,0,0
 456.32 971.66 456.32 971.66 454.82 935.835 c 0,0,0
 453.32 900.01 453.32 900.01 449.66 855.77 c 1,0,0
 453.99 855.77 l 1,0,0
 513.3 986.7 513.3 986.7 599.3 1044.35 c 0,0,0
 685.3 1102 685.3 1102 802.65 1102 c 0,0,0
 971.02 1102 971.02 1102 1063.68 991.71 c 0,0,0
 1156.34 881.42 1156.34 881.42 1156.34 674.45 c 2,0,0
 1156.34 465.82 l 2,0,0
 1156.34 341.74 1156.34 341.74 1201.365 278.58 c 0,0,0
 1246.39 215.42 1246.39 215.42 1332.81 215.42 c 0,0,0
 1418.9 215.42 1418.9 215.42 1464.92 281.24 c 0,0,0
 1510.94 347.06 1510.94 347.06 1510.94 465.82 c 2,0,0
 1510.94 1082 l 1,0,0
 1823.61 1082 l 1,0,0
 1823.61 486.03 l 2,0,0
 1823.61 228.89 1823.61 228.89 1702.48 104.445 c 0,0,0
 1581.35 -20 1581.35 -20 1333.14 -20 c 0,0,0
EndSplineSet
EndChar

StartChar: uni0196
Encoding: 406 406 342
Width: 606
GlyphClass: 2
Flags: W
LayerCount: 2
Fore
SplineSet
199 0 m 1,0,0
 170 31 170 31 153.5 98 c 0,0,0
 137 165 137 165 137 236 c 2,0,0
 137 1484 l 1,0,0
 452.66 1484 l 1,0,0
 452.66 227 l 2,0,0
 452.66 162 452.66 162 474.66 100 c 0,0,0
 496.66 38 496.66 38 532.66 0 c 1,0,0
 199 0 l 1,0,0
EndSplineSet
EndChar

StartChar: uni0197
Encoding: 407 407 343
Width: 569
GlyphClass: 2
Flags: W
LayerCount: 2
Fore
SplineSet
125.51 0 m 1,0,0
 125.51 574.91 l 1,0,0
 3.4 574.91 l 1,0,0
 3.4 831.62 l 1,0,0
 125.51 831.62 l 1,0,0
 125.51 1484 l 1,0,0
 439.84 1484 l 1,0,0
 439.84 831.62 l 1,0,0
 563.62 831.62 l 1,0,0
 563.62 574.91 l 1,0,0
 439.84 574.91 l 1,0,0
 439.84 0 l 1,0,0
 125.51 0 l 1,0,0
EndSplineSet
EndChar

StartChar: uni0198
Encoding: 408 408 344
Width: 1516
GlyphClass: 2
Flags: W
LayerCount: 2
Fore
SplineSet
456.09 505.42 m 1,0,0
 456.09 0 l 1,0,0
 126.77 0 l 1,0,0
 126.77 1409 l 1,0,0
 456.09 1409 l 1,0,0
 456.09 792.11 l 1,0,0
 906.22 1245.28 l 2,0,0
 979.15 1317.55 979.15 1317.55 1036.63 1358.065 c 0,0,0
 1094.11 1398.58 1094.11 1398.58 1152.77 1415.115 c 0,0,0
 1211.43 1431.65 1211.43 1431.65 1284.08 1431.65 c 0,0,0
 1331.7 1431.65 1331.7 1431.65 1369.51 1424.825 c 0,0,0
 1407.32 1418 1407.32 1418 1435.67 1410 c 1,0,0
 1435.67 1171.85 l 1,0,0
 1409.34 1175.53 1409.34 1175.53 1385.495 1179.365 c 0,0,0
 1361.65 1183.2 1361.65 1183.2 1339.65 1183.2 c 0,0,0
 1291.95 1183.2 1291.95 1183.2 1244.95 1167.145 c 0,0,0
 1197.95 1151.09 1197.95 1151.09 1151.56 1106.69 c 2,0,0
 857.18 818.28 l 1,0,0
 1498.61 0 l 1,0,0
 1113.98 0 l 1,0,0
 626.79 636.11 l 1,0,0
 456.09 505.42 l 1,0,0
EndSplineSet
EndChar

StartChar: uni0199
Encoding: 409 409 345
Width: 1176
GlyphClass: 2
Flags: W
LayerCount: 2
Fore
SplineSet
839.94 0 m 1,0,0
 576.35 488.68 l 1,0,0
 458.98 412.93 l 1,0,0
 458.98 0 l 1,0,0
 144.65 0 l 1,0,0
 144.65 1203.33 l 2,0,0
 144.65 1339.68 144.65 1339.68 235.945 1415.515 c 0,0,0
 327.24 1491.35 327.24 1491.35 485.86 1491.35 c 0,0,0
 589.1 1491.35 589.1 1491.35 684.36 1473.69 c 1,0,0
 684.36 1260.81 l 1,0,0
 668.67 1264.49 668.67 1264.49 628.365 1267.66 c 0,0,0
 588.06 1270.83 588.06 1270.83 571.02 1270.83 c 0,0,0
 458.98 1270.83 458.98 1270.83 458.98 1132.14 c 2,0,0
 458.98 659.41 l 1,0,0
 815.61 1082 l 1,0,0
 1147.64 1082 l 1,0,0
 787.11 674.19 l 1,0,0
 1178.62 0 l 1,0,0
 839.94 0 l 1,0,0
EndSplineSet
EndChar

StartChar: uni019A
Encoding: 410 410 346
Width: 606
GlyphClass: 2
Flags: W
LayerCount: 2
Fore
SplineSet
146.63 0 m 1,0,0
 146.63 628.11 l 1,0,0
 20 628.11 l 1,0,0
 20 830.29 l 1,0,0
 146.63 830.29 l 1,0,0
 146.63 1484 l 1,0,0
 460.96 1484 l 1,0,0
 460.96 830.29 l 1,0,0
 591.24 830.29 l 1,0,0
 591.24 628.11 l 1,0,0
 460.96 628.11 l 1,0,0
 460.96 0 l 1,0,0
 146.63 0 l 1,0,0
EndSplineSet
EndChar

StartChar: uni019B
Encoding: 411 411 347
Width: 1176
GlyphClass: 2
Flags: W
LayerCount: 2
Fore
SplineSet
17.37 1142.17 m 1,0,0
 333.05 1280.33 l 1,0,0
 248.08 1484 l 1,0,0
 586.01 1484 l 1,0,0
 617.4 1404.83 l 1,0,0
 806.32 1489.76 l 1,0,0
 889.56 1298.94 l 1,0,0
 693.32 1211.68 l 1,0,0
 1168.26 0 l 1,0,0
 839.94 0 l 1,0,0
 578.57 800.96 l 1,0,0
 349.96 0 l 1,0,0
 16.66 0 l 1,0,0
 411.13 1104.33 l 1,0,0
 413.62 1088.51 l 1,0,0
 100.61 951.02 l 1,0,0
 17.37 1142.17 l 1,0,0
EndSplineSet
EndChar

StartChar: uni019C
Encoding: 412 412 348
Width: 2099
GlyphClass: 2
Flags: W
LayerCount: 2
Fore
SplineSet
1216.79 1409 m 1,0,0
 1216.79 482.6 l 2,0,0
 1216.79 339.55 1216.79 339.55 1265.46 274.515 c 0,0,0
 1314.13 209.48 1314.13 209.48 1409.19 209.48 c 0,0,0
 1514.57 209.48 1514.57 209.48 1578.565 299.125 c 0,0,0
 1642.56 388.77 1642.56 388.77 1642.56 517.85 c 2,0,0
 1642.56 1409 l 1,0,0
 1972.87 1409 l 1,0,0
 1972.87 0 l 1,0,0
 1650.55 0 l 1,0,0
 1635.91 183.19 l 1,0,0
 1630.92 183.19 l 1,0,0
 1567.98 71.96 1567.98 71.96 1472.545 25.98 c 0,0,0
 1377.11 -20 1377.11 -20 1258.84 -20 c 0,0,0
 990.99 -20 990.99 -20 913.62 192.22 c 1,0,0
 838.99 73.31 838.99 73.31 743.36 26.655 c 0,0,0
 647.73 -20 647.73 -20 497.85 -20 c 0,0,0
 325.1 -20 325.1 -20 227.585 82.385 c 0,0,0
 130.07 184.77 130.07 184.77 130.07 370.92 c 2,0,0
 130.07 1409 l 1,0,0
 460.38 1409 l 1,0,0
 460.38 472.04 l 2,0,0
 460.38 333.93 460.38 333.93 509.72 271.705 c 0,0,0
 559.06 209.48 559.06 209.48 648.83 209.48 c 0,0,0
 750.54 209.48 750.54 209.48 818.51 294.46 c 0,0,0
 886.48 379.44 886.48 379.44 886.48 506.5 c 2,0,0
 886.48 1409 l 1,0,0
 1216.79 1409 l 1,0,0
EndSplineSet
EndChar

StartChar: uni019D
Encoding: 413 413 349
Width: 1479
GlyphClass: 2
Flags: W
LayerCount: 2
Fore
SplineSet
419.13 -26.26 m 2,0,0
 419.13 -243.41 419.13 -243.41 346.31 -334.205 c 0,0,0
 273.49 -425 273.49 -425 94.28 -425 c 0,0,0
 22.62 -425 22.62 -425 -85.24 -402.03 c 1,0,0
 -85.24 -149.59 l 1,0,0
 -13.64 -162.26 -13.64 -162.26 8.11 -162.26 c 0,0,0
 75.42 -162.26 75.42 -162.26 101.26 -123.925 c 0,0,0
 127.1 -85.59 127.1 -85.59 127.1 -6.59 c 2,0,0
 126.77 1409 l 1,0,0
 501.72 1409 l 1,0,0
 1078.85 352.62 l 1,0,0
 1058.87 489.77 1058.87 489.77 1058.87 624.65 c 2,0,0
 1058.87 1409 l 1,0,0
 1350.57 1409 l 1,0,0
 1350.57 0 l 1,0,0
 966.29 0 l 1,0,0
 398.49 1047.05 l 1,0,0
 409.8 963.76 409.8 963.76 414.465 901.085 c 0,0,0
 419.13 838.41 419.13 838.41 419.13 796.35 c 2,0,0
 419.13 -26.26 l 2,0,0
EndSplineSet
EndChar

StartChar: uni019E
Encoding: 414 414 350
Width: 1287
GlyphClass: 2
Flags: W
LayerCount: 2
Fore
SplineSet
1162.94 675.78 m 2,0,0
 1162.94 -423.34 l 1,0,0
 850.27 -423.34 l 1,0,0
 850.27 580.93 l 2,0,0
 850.27 721.95 850.27 721.95 801.28 795.26 c 0,0,0
 752.29 868.57 752.29 868.57 667.17 868.57 c 0,0,0
 574.41 868.57 574.41 868.57 516.035 781.565 c 0,0,0
 457.66 694.56 457.66 694.56 457.66 564.49 c 2,0,0
 457.66 0 l 1,0,0
 143.33 0 l 1,0,0
 143.33 836.37 l 2,0,0
 143.33 896.79 143.33 896.79 141.165 958.28 c 0,0,0
 139 1019.77 139 1019.77 134.67 1082 c 1,0,0
 435.01 1082 l 1,0,0
 437.34 1067.03 437.34 1067.03 441 1014.28 c 0,0,0
 444.66 961.53 444.66 961.53 447.325 912.72 c 0,0,0
 449.99 863.91 449.99 863.91 449.66 857.1 c 1,0,0
 453.99 857.1 l 1,0,0
 509.34 985.06 509.34 985.06 596.825 1044.195 c 0,0,0
 684.31 1103.33 684.31 1103.33 802.65 1103.33 c 0,0,0
 972.67 1103.33 972.67 1103.33 1067.805 991.555 c 0,0,0
 1162.94 879.78 1162.94 879.78 1162.94 675.78 c 2,0,0
EndSplineSet
EndChar

StartChar: Ohorn
Encoding: 416 416 352
Width: 1744
GlyphClass: 2
Flags: W
LayerCount: 2
Fore
SplineSet
1510.96 711 m 0,0,0
 1510.96 491 1510.96 491 1422.97 324 c 0,0,0
 1335.31 156.67 1335.31 156.67 1171.99 68.335 c 0,0,0
 1008.67 -20 1008.67 -20 792.34 -20 c 0,0,0
 569.69 -20 569.69 -20 409.865 67.84 c 0,0,0
 250.04 155.68 250.04 155.68 164.875 319.68 c 0,0,0
 79.71 483.68 79.71 483.68 79.71 711 c 0,0,0
 79.71 937 79.71 937 164.54 1098.165 c 0,0,0
 249.37 1259.33 249.37 1259.33 409.86 1344.665 c 0,0,0
 570.35 1430 570.35 1430 794.34 1430 c 0,0,0
 1076.91 1430 1076.91 1430 1261.53 1291.245 c 0,0,0
 1446.15 1152.49 1446.15 1152.49 1495.54 896.64 c 1,0,0
 1548.96 924.68 1548.96 924.68 1578.14 981.005 c 0,0,0
 1607.32 1037.33 1607.32 1037.33 1607.32 1118.31 c 1,0,0
 1470.11 1118.31 l 1,0,0
 1470.11 1409 l 1,0,0
 1755.55 1409 l 1,0,0
 1755.55 1164.68 l 2,0,0
 1755.55 992.47 1755.55 992.47 1694.725 887.005 c 0,0,0
 1633.9 781.54 1633.9 781.54 1514.22 743.15 c 1,0,0
 1511.26 734.04 1511.26 734.04 1511.11 726.085 c 0,0,0
 1510.96 718.13 1510.96 718.13 1510.96 711 c 0,0,0
1174.98 711 m 0,0,0
 1174.98 927.45 1174.98 927.45 1074.735 1050.185 c 0,0,0
 974.49 1172.92 974.49 1172.92 794.34 1172.92 c 0,0,0
 610.86 1172.92 610.86 1172.92 510.78 1050.855 c 0,0,0
 410.7 928.79 410.7 928.79 410.7 711 c 0,0,0
 410.7 564.26 410.7 564.26 457.4 458.035 c 0,0,0
 504.1 351.81 504.1 351.81 589.835 294.61 c 0,0,0
 675.57 237.41 675.57 237.41 792.34 237.41 c 0,0,0
 975.16 237.41 975.16 237.41 1075.07 360.645 c 0,0,0
 1174.98 483.88 1174.98 483.88 1174.98 711 c 0,0,0
EndSplineSet
EndChar

StartChar: ohorn
Encoding: 417 417 353
Width: 1493
GlyphClass: 2
Flags: W
LayerCount: 2
Fore
SplineSet
1203.95 401.53 m 1,0,0
 1181.36 278.26 1181.36 278.26 1106.74 183.15 c 0,0,0
 1032.12 88.04 1032.12 88.04 913.305 34.02 c 0,0,0
 794.49 -20 794.49 -20 639.48 -20 c 0,0,0
 381.2 -20 381.2 -20 229.61 131.815 c 0,0,0
 78.02 283.63 78.02 283.63 78.02 542 c 0,0,0
 78.02 796.73 78.02 796.73 229.445 949.365 c 0,0,0
 380.87 1102 380.87 1102 645.48 1102 c 0,0,0
 914.34 1102 914.34 1102 1060.76 958.775 c 0,0,0
 1207.18 815.55 1207.18 815.55 1212.24 549.05 c 1,0,0
 1364.86 600.75 1364.86 600.75 1364.86 789.33 c 1,0,0
 1227.65 789.33 l 1,0,0
 1227.65 1080.02 l 1,0,0
 1513.09 1080.02 l 1,0,0
 1513.09 835.7 l 2,0,0
 1513.09 650.84 1513.09 650.84 1439.79 543.535 c 0,0,0
 1366.49 436.23 1366.49 436.23 1203.95 401.53 c 1,0,0
881.29 542 m 0,0,0
 881.29 724.77 881.29 724.77 819.445 806.985 c 0,0,0
 757.6 889.2 757.6 889.2 649.81 889.2 c 0,0,0
 531.71 889.2 531.71 889.2 469.855 801.66 c 0,0,0
 408 714.12 408 714.12 408 542 c 0,0,0
 408 371.89 408 371.89 468.19 281.68 c 0,0,0
 528.38 191.47 528.38 191.47 636.15 191.47 c 0,0,0
 758.25 191.47 758.25 191.47 819.77 278.845 c 0,0,0
 881.29 366.22 881.29 366.22 881.29 542 c 0,0,0
EndSplineSet
EndChar

StartChar: uni01A2
Encoding: 418 418 354
Width: 1828
GlyphClass: 2
Flags: W
LayerCount: 2
Fore
SplineSet
1368.16 -425.33 m 1,0,0
 1368.16 1167.8 l 1,0,0
 1187.38 1167.14 l 1,0,0
 1187.38 82.34 l 1,0,0
 1130.25 40.98 1130.25 40.98 1006.82 10.49 c 0,0,0
 883.39 -20 883.39 -20 773.7 -20 c 0,0,0
 548.73 -20 548.73 -20 393.73 65.84 c 0,0,0
 238.73 151.68 238.73 151.68 159.22 314.35 c 0,0,0
 79.71 477.02 79.71 477.02 79.71 711 c 0,0,0
 79.71 946.63 79.71 946.63 159.05 1106.3 c 0,0,0
 238.39 1265.97 238.39 1265.97 394.885 1347.985 c 0,0,0
 551.38 1430 551.38 1430 779.69 1430 c 0,0,0
 988.24 1430 988.24 1430 1144.36 1343.04 c 1,0,0
 1600.92 1425.66 l 1,0,0
 1683.82 1425.66 l 1,0,0
 1683.82 -425.33 l 1,0,0
 1368.16 -425.33 l 1,0,0
871.72 1174.8 m 1,0,0
 824.59 1179.57 824.59 1179.57 787.67 1179.57 c 0,0,0
 600.88 1179.57 600.88 1179.57 505.79 1061.49 c 0,0,0
 410.7 943.41 410.7 943.41 410.7 711 c 0,0,0
 410.7 553.62 410.7 553.62 454.075 446.73 c 0,0,0
 497.45 339.84 497.45 339.84 583.845 285.3 c 0,0,0
 670.24 230.76 670.24 230.76 797.64 230.76 c 0,0,0
 832.57 230.76 832.57 230.76 871.72 234.2 c 1,0,0
 871.72 1174.8 l 1,0,0
EndSplineSet
EndChar

StartChar: uni01A3
Encoding: 419 419 355
Width: 1574
GlyphClass: 2
Flags: W
LayerCount: 2
Fore
SplineSet
1431.47 1104.97 m 1,0,0
 1431.47 -425 l 1,0,0
 1152.73 -425 l 1,0,0
 1152.73 863.47 l 1,0,0
 991.66 863.47 l 1,0,0
 991.66 68.32 l 1,0,0
 925.35 25.33 925.35 25.33 829.565 2.665 c 0,0,0
 733.78 -20 733.78 -20 626.18 -20 c 0,0,0
 373.22 -20 373.22 -20 225.62 129.82 c 0,0,0
 78.02 279.64 78.02 279.64 78.02 542 c 0,0,0
 78.02 800.72 78.02 800.72 223.46 951.36 c 0,0,0
 368.9 1102 368.9 1102 632.18 1102 c 0,0,0
 731.47 1102 731.47 1102 815.28 1079.835 c 0,0,0
 899.09 1057.67 899.09 1057.67 975.36 1009.38 c 1,0,0
 1343.25 1104.97 l 1,0,0
 1431.47 1104.97 l 1,0,0
705.61 200.17 m 1,0,0
 705.94 882.5 l 1,0,0
 679.87 889.2 679.87 889.2 640.5 889.2 c 0,0,0
 521.07 889.2 521.07 889.2 465.2 804.985 c 0,0,0
 409.33 720.77 409.33 720.77 409.33 542 c 0,0,0
 409.33 370.56 409.33 370.56 465.53 281.015 c 0,0,0
 521.73 191.47 521.73 191.47 626.84 191.47 c 0,0,0
 667.57 191.47 667.57 191.47 705.61 200.17 c 1,0,0
EndSplineSet
EndChar

StartChar: uni01A4
Encoding: 420 420 356
Width: 1619
GlyphClass: 2
Flags: W
LayerCount: 2
Fore
SplineSet
1031.75 1409 m 2,0,0
 1290.03 1409 1290.03 1409 1428.675 1290.685 c 0,0,0
 1567.32 1172.37 1567.32 1172.37 1567.32 955.74 c 0,0,0
 1567.32 816.09 1567.32 816.09 1503 708.78 c 0,0,0
 1438.68 601.47 1438.68 601.47 1321.535 539.99 c 0,0,0
 1204.39 478.51 1204.39 478.51 1043.75 478.51 c 2,0,0
 714.87 478.51 l 1,0,0
 714.87 0 l 1,0,0
 385.55 0 l 1,0,0
 385.55 1173.22 l 1,0,0
 355.57 1173.22 l 2,0,0
 291.87 1173.22 291.87 1173.22 258.87 1147.865 c 0,0,0
 225.87 1122.51 225.87 1122.51 225.87 1072.79 c 0,0,0
 225.87 1018.47 225.87 1018.47 261.16 929.22 c 1,0,0
 27.69 912.22 l 1,0,0
 -6.6 1026.79 -6.6 1026.79 -6.6 1135 c 0,0,0
 -6.6 1261.01 -6.6 1261.01 86.715 1335.005 c 0,0,0
 180.03 1409 180.03 1409 330.04 1409 c 2,0,0
 1031.75 1409 l 2,0,0
1235.67 949.75 m 0,0,0
 1235.67 1154.92 1235.67 1154.92 995.45 1154.92 c 2,0,0
 714.87 1154.92 l 1,0,0
 714.87 730.59 l 1,0,0
 1003.45 730.59 l 2,0,0
 1112.91 730.59 1112.91 730.59 1174.29 787.79 c 0,0,0
 1235.67 844.99 1235.67 844.99 1235.67 949.75 c 0,0,0
EndSplineSet
EndChar

StartChar: uni01A5
Encoding: 421 421 357
Width: 1287
GlyphClass: 2
Flags: W
LayerCount: 2
Fore
SplineSet
1204.62 546 m 0,0,0
 1204.62 278.96 1204.62 278.96 1093.15 129.48 c 0,0,0
 981.68 -20 981.68 -20 784.01 -20 c 0,0,0
 670.98 -20 670.98 -20 584.985 32.32 c 0,0,0
 498.99 84.64 498.99 84.64 458.65 173.32 c 1,0,0
 452.32 173.32 l 1,0,0
 458.98 135.73 458.98 135.73 458.98 -12.64 c 2,0,0
 458.98 -425 l 1,0,0
 144.65 -425 l 1,0,0
 144.65 1203.33 l 2,0,0
 144.65 1337.69 144.65 1337.69 236.935 1414.52 c 0,0,0
 329.22 1491.35 329.22 1491.35 489.51 1491.35 c 0,0,0
 545.77 1491.35 545.77 1491.35 617.66 1484.195 c 0,0,0
 689.55 1477.04 689.55 1477.04 704.63 1474.02 c 1,0,0
 704.63 1248.17 l 1,0,0
 689.93 1251.52 689.93 1251.52 649.625 1254.525 c 0,0,0
 609.32 1257.53 609.32 1257.53 591.29 1257.53 c 0,0,0
 454.32 1257.53 454.32 1257.53 454.32 1129.48 c 2,0,0
 454.32 901.35 l 1,0,0
 458.32 901.35 l 1,0,0
 504.99 1001.35 504.99 1001.35 594.63 1051.84 c 0,0,0
 684.27 1102.33 684.27 1102.33 807.95 1102.33 c 0,0,0
 991.99 1102.33 991.99 1102.33 1098.305 954.365 c 0,0,0
 1204.62 806.4 1204.62 806.4 1204.62 546 c 0,0,0
877.3 547.32 m 0,0,0
 877.3 714.8 877.3 714.8 823.615 803.82 c 0,0,0
 769.93 892.84 769.93 892.84 664.86 892.84 c 0,0,0
 566.06 892.84 566.06 892.84 509.86 796.325 c 0,0,0
 453.66 699.81 453.66 699.81 453.66 541.3 c 0,0,0
 453.66 378.84 453.66 378.84 509.69 285.155 c 0,0,0
 565.72 191.47 565.72 191.47 662.86 191.47 c 0,0,0
 768.93 191.47 768.93 191.47 823.115 283.32 c 0,0,0
 877.3 375.17 877.3 375.17 877.3 547.32 c 0,0,0
EndSplineSet
EndChar

StartChar: uni01A6
Encoding: 422 422 358
Width: 1366
GlyphClass: 2
Flags: W
LayerCount: 2
Fore
SplineSet
968.56 403.79 m 1,0,0
 1336.36 -333.63 l 1,0,0
 984.69 -333.63 l 1,0,0
 673.5 335.24 l 1,0,0
 456.09 335.24 l 1,0,0
 456.09 0 l 1,0,0
 126.77 0 l 1,0,0
 126.77 1409 l 1,0,0
 457.41 1409 l 1,0,0
 457.41 1225.74 l 1,0,0
 733.1 1225.74 l 2,0,0
 989.72 1225.74 989.72 1225.74 1129.195 1116.58 c 0,0,0
 1268.67 1007.42 1268.67 1007.42 1268.67 800.13 c 0,0,0
 1268.67 655.1 1268.67 655.1 1187.145 547.435 c 0,0,0
 1105.62 439.77 1105.62 439.77 968.56 403.79 c 1,0,0
937.02 784.83 m 0,0,0
 937.02 878.57 937.02 878.57 878.125 925.115 c 0,0,0
 819.23 971.66 819.23 971.66 698.14 971.66 c 2,0,0
 456.09 971.66 l 1,0,0
 456.09 589.98 l 1,0,0
 706.14 589.98 l 2,0,0
 821.23 589.98 821.23 589.98 879.125 641.195 c 0,0,0
 937.02 692.41 937.02 692.41 937.02 784.83 c 0,0,0
EndSplineSet
EndChar

StartChar: uni01A7
Encoding: 423 423 359
Width: 1366
GlyphClass: 2
Flags: W
LayerCount: 2
Fore
SplineSet
74.06 413.92 m 0,0,0
 74.06 547.81 74.06 547.81 125.675 625.29 c 0,0,0
 177.29 702.77 177.29 702.77 258.57 745.46 c 0,0,0
 341.18 788.48 341.18 788.48 435.515 809.355 c 0,0,0
 529.85 830.23 529.85 830.23 610.04 849.92 c 0,0,0
 786.67 888.9 786.67 888.9 834.07 910.92 c 0,0,0
 883.14 932.61 883.14 932.61 907.845 965.14 c 0,0,0
 932.55 997.67 932.55 997.67 932.55 1049.7 c 0,0,0
 932.55 1199.55 932.55 1199.55 688.31 1199.55 c 0,0,0
 571.88 1199.55 571.88 1199.55 511.64 1158.005 c 0,0,0
 451.4 1116.46 451.4 1116.46 432.37 1038 c 1,0,0
 114.03 1078.98 l 1,0,0
 147.74 1265.99 147.74 1265.99 283.55 1347.995 c 0,0,0
 419.36 1430 419.36 1430 690.3 1430 c 0,0,0
 965.59 1430 965.59 1430 1109.235 1329.34 c 0,0,0
 1252.88 1228.68 1252.88 1228.68 1252.88 1030.39 c 0,0,0
 1252.88 952.06 1252.88 952.06 1234.53 894.89 c 0,0,0
 1216.18 837.72 1216.18 837.72 1183.81 795.72 c 0,0,0
 1143.52 745.79 1143.52 745.79 1086.915 711.495 c 0,0,0
 1030.31 677.2 1030.31 677.2 958.72 652.22 c 0,0,0
 929.69 643.2 929.69 643.2 880.645 629.355 c 0,0,0
 831.6 615.51 831.6 615.51 762.54 599.5 c 0,0,0
 745.68 595.46 745.68 595.46 720.74 590.59 c 0,0,0
 695.8 585.72 695.8 585.72 661.12 581.02 c 0,0,0
 525.59 555.99 525.59 555.99 459.495 510.475 c 0,0,0
 393.4 464.96 393.4 464.96 393.4 394.61 c 0,0,0
 393.4 224.76 393.4 224.76 680.95 224.76 c 0,0,0
 776 224.76 776 224.76 841.05 244.78 c 0,0,0
 906.1 264.8 906.1 264.8 944.98 304.21 c 0,0,0
 983.86 343.62 983.86 343.62 999.23 401.79 c 1,0,0
 1317.23 351.49 l 1,0,0
 1277.2 169.38 1277.2 169.38 1116.56 74.69 c 0,0,0
 955.92 -20 955.92 -20 678.64 -20 c 0,0,0
 377.7 -20 377.7 -20 225.88 90.815 c 0,0,0
 74.06 201.63 74.06 201.63 74.06 413.92 c 0,0,0
EndSplineSet
EndChar

StartChar: uni01A8
Encoding: 424 424 360
Width: 1176
GlyphClass: 2
Flags: W
LayerCount: 2
Fore
SplineSet
85.65 321.61 m 0,0,0
 85.65 430.85 85.65 430.85 136.42 500.475 c 0,0,0
 187.19 570.1 187.19 570.1 284.07 612.43 c 0,0,0
 324.76 626.83 324.76 626.83 403.49 647.86 c 0,0,0
 482.22 668.89 482.22 668.89 618.47 695.88 c 0,0,0
 702.21 711.24 702.21 711.24 736.415 735.61 c 0,0,0
 770.62 759.98 770.62 759.98 770.62 802.03 c 0,0,0
 770.62 857.41 770.62 857.41 721.775 878.95 c 0,0,0
 672.93 900.49 672.93 900.49 575.24 900.49 c 0,0,0
 476.21 900.49 476.21 900.49 435.15 870.79 c 0,0,0
 394.09 841.09 394.09 841.09 384.73 786.32 c 1,0,0
 107.02 814.3 l 1,0,0
 135.36 952 135.36 952 259.645 1028.16 c 0,0,0
 383.93 1104.32 383.93 1104.32 582.89 1104.32 c 0,0,0
 811.11 1104.32 811.11 1104.32 933.56 1016.345 c 0,0,0
 1056.01 928.37 1056.01 928.37 1056.01 768.07 c 0,0,0
 1056.01 667.12 1056.01 667.12 1007.38 598.655 c 0,0,0
 958.75 530.19 958.75 530.19 866.14 490.19 c 0,0,0
 839.78 479.83 839.78 479.83 800.89 467.645 c 0,0,0
 762 455.46 762 455.46 704.645 441.785 c 0,0,0
 647.29 428.11 647.29 428.11 563.37 413.11 c 0,0,0
 459.36 395.41 459.36 395.41 415.2 367.385 c 0,0,0
 371.04 339.36 371.04 339.36 371.04 291.65 c 0,0,0
 371.04 232.92 371.04 232.92 423.395 207.545 c 0,0,0
 475.75 182.17 475.75 182.17 591.1 182.17 c 0,0,0
 719.09 182.17 719.09 182.17 763.005 206.905 c 0,0,0
 806.92 231.64 806.92 231.64 825.28 301.06 c 1,0,0
 1101.32 262.08 l 1,0,0
 1063.32 117.05 1063.32 117.05 942.165 48.525 c 0,0,0
 821.01 -20 821.01 -20 585.78 -20 c 0,0,0
 351.88 -20 351.88 -20 218.765 70.15 c 0,0,0
 85.65 160.3 85.65 160.3 85.65 321.61 c 0,0,0
EndSplineSet
EndChar

StartChar: uni01AA
Encoding: 426 426 362
Width: 723
GlyphClass: 2
Flags: W
LayerCount: 2
Fore
SplineSet
9.81 1280.72 m 0,0,0
 9.81 1376.04 9.81 1376.04 75.285 1432.525 c 0,0,0
 140.76 1489.01 140.76 1489.01 252.05 1489.01 c 0,0,0
 429.94 1489.01 429.94 1489.01 519.215 1385.08 c 0,0,0
 608.49 1281.15 608.49 1281.15 608.49 1073.66 c 2,0,0
 608.49 -49.52 l 2,0,0
 608.49 -189.86 608.49 -189.86 728.15 -189.86 c 0,0,0
 744.51 -189.86 744.51 -189.86 786.97 -186.195 c 0,0,0
 829.43 -182.53 829.43 -182.53 844.79 -178.19 c 1,0,0
 844.79 -406.68 l 1,0,0
 773.47 -425 773.47 -425 646.95 -425 c 0,0,0
 471.07 -425 471.07 -425 384.61 -340.52 c 0,0,0
 298.15 -256.04 298.15 -256.04 298.15 -85.11 c 2,0,0
 298.15 1090.81 l 1,0,0
 273.84 1079.81 273.84 1079.81 251.985 1075.465 c 0,0,0
 230.13 1071.12 230.13 1071.12 204.46 1071.12 c 0,0,0
 113.81 1071.12 113.81 1071.12 61.81 1128.605 c 0,0,0
 9.81 1186.09 9.81 1186.09 9.81 1280.72 c 0,0,0
144 1279.07 m 0,0,0
 144 1242.04 144 1242.04 168.015 1220.685 c 0,0,0
 192.03 1199.33 192.03 1199.33 224.07 1199.33 c 0,0,0
 255.78 1199.33 255.78 1199.33 279.13 1220.685 c 0,0,0
 302.48 1242.04 302.48 1242.04 302.48 1279.07 c 0,0,0
 302.48 1316.43 302.48 1316.43 278.965 1337.785 c 0,0,0
 255.45 1359.14 255.45 1359.14 224.07 1359.14 c 0,0,0
 192.03 1359.14 192.03 1359.14 168.015 1337.785 c 0,0,0
 144 1316.43 144 1316.43 144 1279.07 c 0,0,0
EndSplineSet
EndChar

StartChar: uni01AB
Encoding: 427 427 363
Width: 719
GlyphClass: 2
Flags: W
LayerCount: 2
Fore
SplineSet
690.99 -115.07 m 2,0,0
 690.99 -258.73 690.99 -258.73 610.7 -341.865 c 0,0,0
 530.41 -425 530.41 -425 364.84 -425 c 0,0,0
 289.2 -425 289.2 -425 187.28 -404.01 c 1,0,0
 187.28 -189.48 l 1,0,0
 264.56 -203.49 264.56 -203.49 298.6 -203.49 c 0,0,0
 417.92 -203.49 417.92 -203.49 417.92 -61.17 c 2,0,0
 417.92 -18.66 l 1,0,0
 301.56 -14.34 301.56 -14.34 232.77 54.975 c 0,0,0
 163.98 124.29 163.98 124.29 163.98 262.25 c 2,0,0
 163.98 872.53 l 1,0,0
 23.02 872.53 l 1,0,0
 23.02 1082 l 1,0,0
 180.29 1082 l 1,0,0
 279.84 1339.96 l 1,0,0
 474.32 1339.96 l 1,0,0
 474.32 1082 l 1,0,0
 680.97 1082 l 1,0,0
 680.97 872.53 l 1,0,0
 474.32 872.53 l 1,0,0
 474.32 350.46 l 2,0,0
 474.32 271.13 474.32 271.13 505.805 231.65 c 0,0,0
 537.29 192.17 537.29 192.17 600.29 192.17 c 0,0,0
 628.97 192.17 628.97 192.17 690.99 206.17 c 1,0,0
 690.99 -115.07 l 2,0,0
EndSplineSet
EndChar

StartChar: uni01AC
Encoding: 428 428 364
Width: 1251
GlyphClass: 2
Flags: W
LayerCount: 2
Fore
SplineSet
790.49 1157.24 m 1,0,0
 790.49 0 l 1,0,0
 460.84 0 l 1,0,0
 460.84 1157.24 l 1,0,0
 355.57 1157.24 l 2,0,0
 291.87 1157.24 291.87 1157.24 258.87 1135.22 c 0,0,0
 225.87 1113.2 225.87 1113.2 225.87 1072.79 c 0,0,0
 225.87 1018.47 225.87 1018.47 261.16 929.22 c 1,0,0
 27.69 912.22 l 1,0,0
 -6.6 1026.79 -6.6 1026.79 -6.6 1135 c 0,0,0
 -6.6 1258.36 -6.6 1258.36 78.88 1333.68 c 0,0,0
 164.36 1409 164.36 1409 311.37 1409 c 2,0,0
 1237.25 1409 l 1,0,0
 1237.25 1157.24 l 1,0,0
 790.49 1157.24 l 1,0,0
EndSplineSet
EndChar

StartChar: uni01AD
Encoding: 429 429 365
Width: 719
GlyphClass: 2
Flags: W
LayerCount: 2
Fore
SplineSet
690.99 18.64 m 1,0,0
 584.37 -18.66 584.37 -18.66 435.84 -18.66 c 0,0,0
 306.56 -18.66 306.56 -18.66 235.27 50.82 c 0,0,0
 163.98 120.3 163.98 120.3 163.98 262.25 c 2,0,0
 163.98 872.53 l 1,0,0
 23.02 872.53 l 1,0,0
 23.02 1082 l 1,0,0
 157.68 1082 l 1,0,0
 157.68 1206.63 l 2,0,0
 157.68 1340.01 157.68 1340.01 250.955 1415.68 c 0,0,0
 344.23 1491.35 344.23 1491.35 504.83 1491.35 c 0,0,0
 608.73 1491.35 608.73 1491.35 707.29 1473.36 c 1,0,0
 707.29 1261.47 l 1,0,0
 692.59 1264.82 692.59 1264.82 651.13 1267.825 c 0,0,0
 609.67 1270.83 609.67 1270.83 589.33 1270.83 c 0,0,0
 528.99 1270.83 528.99 1270.83 501.655 1236.325 c 0,0,0
 474.32 1201.82 474.32 1201.82 474.32 1132.14 c 2,0,0
 474.32 1082 l 1,0,0
 680.97 1082 l 1,0,0
 680.97 872.53 l 1,0,0
 474.32 872.53 l 1,0,0
 474.32 350.46 l 2,0,0
 474.32 271.13 474.32 271.13 505.805 231.65 c 0,0,0
 537.29 192.17 537.29 192.17 600.29 192.17 c 0,0,0
 628.97 192.17 628.97 192.17 690.99 206.17 c 1,0,0
 690.99 18.64 l 1,0,0
EndSplineSet
EndChar

StartChar: uni01AE
Encoding: 430 430 366
Width: 1251
GlyphClass: 2
Flags: W
LayerCount: 2
Fore
SplineSet
1004.48 -404.01 m 1,0,0
 903.55 -425 903.55 -425 828.59 -425 c 0,0,0
 641.07 -425 641.07 -425 550.955 -324.4 c 0,0,0
 460.84 -223.8 460.84 -223.8 460.84 -1.35 c 2,0,0
 460.84 1157.24 l 1,0,0
 15.41 1157.24 l 1,0,0
 15.41 1409 l 1,0,0
 1237.25 1409 l 1,0,0
 1237.25 1157.24 l 1,0,0
 790.49 1157.24 l 1,0,0
 790.49 -19.89 l 2,0,0
 790.49 -98.23 790.49 -98.23 818.48 -136.895 c 0,0,0
 846.47 -175.56 846.47 -175.56 914.43 -175.56 c 0,0,0
 933.87 -175.56 933.87 -175.56 1004.48 -163.55 c 1,0,0
 1004.48 -404.01 l 1,0,0
EndSplineSet
EndChar

StartChar: Uhorn
Encoding: 431 431 367
Width: 1682
GlyphClass: 2
Flags: W
LayerCount: 2
Fore
SplineSet
709.72 -20 m 0,0,0
 511.12 -20 511.12 -20 378.13 42.005 c 0,0,0
 245.14 104.01 245.14 104.01 178.295 227.665 c 0,0,0
 111.45 351.32 111.45 351.32 111.45 533.28 c 2,0,0
 111.45 1409 l 1,0,0
 440.77 1409 l 1,0,0
 440.77 558.59 l 2,0,0
 440.77 396.18 440.77 396.18 510.175 316.13 c 0,0,0
 579.58 236.08 579.58 236.08 720.69 236.08 c 0,0,0
 866.8 236.08 866.8 236.08 941.045 322.29 c 0,0,0
 1015.29 408.5 1015.29 408.5 1015.29 567.6 c 2,0,0
 1015.29 1409 l 1,0,0
 1344.94 1409 l 1,0,0
 1344.94 861.03 l 1,0,0
 1447.32 871.4 1447.32 871.4 1504.82 939.375 c 0,0,0
 1562.32 1007.35 1562.32 1007.35 1562.32 1118.31 c 1,0,0
 1425.11 1118.31 l 1,0,0
 1425.11 1409 l 1,0,0
 1710.55 1409 l 1,0,0
 1710.55 1164.68 l 2,0,0
 1710.55 968.1 1710.55 968.1 1624.055 854.135 c 0,0,0
 1537.56 740.17 1537.56 740.17 1344.94 710.18 c 1,0,0
 1344.94 547.29 l 2,0,0
 1344.94 365.65 1344.94 365.65 1271.11 238.66 c 0,0,0
 1197.28 111.67 1197.28 111.67 1056.135 45.835 c 0,0,0
 914.99 -20 914.99 -20 709.72 -20 c 0,0,0
EndSplineSet
EndChar

StartChar: uhorn
Encoding: 432 432 368
Width: 1519
GlyphClass: 2
Flags: W
LayerCount: 2
Fore
SplineSet
833.97 224.9 m 1,0,0
 783.94 104.92 783.94 104.92 695.125 42.46 c 0,0,0
 606.31 -20 606.31 -20 485.31 -20 c 0,0,0
 315.29 -20 315.29 -20 220.155 91.775 c 0,0,0
 125.02 203.55 125.02 203.55 125.02 406.22 c 2,0,0
 125.02 1082 l 1,0,0
 439.02 1082 l 1,0,0
 439.02 501.07 l 2,0,0
 439.02 359.07 439.02 359.07 488.01 286.25 c 0,0,0
 537 213.43 537 213.43 620.79 213.43 c 0,0,0
 713.55 213.43 713.55 213.43 771.925 300.435 c 0,0,0
 830.3 387.44 830.3 387.44 830.3 517.51 c 2,0,0
 830.3 1082 l 1,0,0
 1144.63 1082 l 1,0,0
 1144.63 525.69 l 1,0,0
 1252.98 530.1 1252.98 530.1 1322.75 604.22 c 0,0,0
 1392.52 678.34 1392.52 678.34 1392.52 791.31 c 1,0,0
 1255.31 791.31 l 1,0,0
 1255.31 1082 l 1,0,0
 1540.75 1082 l 1,0,0
 1540.75 837.68 l 2,0,0
 1540.75 629.47 1540.75 629.47 1440.82 516.345 c 0,0,0
 1340.89 403.22 1340.89 403.22 1144.63 384.15 c 1,0,0
 1144.63 245.63 l 2,0,0
 1144.63 160.94 1144.63 160.94 1147.46 106.265 c 0,0,0
 1150.29 51.59 1150.29 51.59 1153.29 0 c 1,0,0
 852.95 0 l 1,0,0
 850.29 21.29 850.29 21.29 846.795 67.555 c 0,0,0
 843.3 113.82 843.3 113.82 841.8 159.97 c 0,0,0
 840.3 206.12 840.3 206.12 839.63 224.9 c 1,0,0
 833.97 224.9 l 1,0,0
EndSplineSet
EndChar

StartChar: uni01B1
Encoding: 433 433 369
Width: 1678
GlyphClass: 2
Flags: W
LayerCount: 2
Fore
SplineSet
839.48 -22.33 m 0,0,0
 630.83 -22.33 630.83 -22.33 472.695 53.17 c 0,0,0
 314.56 128.67 314.56 128.67 226.75 265.015 c 0,0,0
 138.94 401.36 138.94 401.36 138.94 582.73 c 0,0,0
 138.94 786.39 138.94 786.39 242.45 927.13 c 0,0,0
 345.96 1067.87 345.96 1067.87 570.92 1166.91 c 1,0,0
 511.21 1161.91 511.21 1161.91 465.86 1158.91 c 0,0,0
 420.51 1155.91 420.51 1155.91 389.52 1155.91 c 2,0,0
 110.94 1155.91 l 1,0,0
 110.94 1407.67 l 1,0,0
 781.07 1407.67 l 1,0,0
 781.07 1070.62 l 1,0,0
 623.35 995.57 623.35 995.57 545.145 892.97 c 0,0,0
 466.94 790.37 466.94 790.37 466.94 638.29 c 0,0,0
 466.94 448.85 466.94 448.85 567.32 341.8 c 0,0,0
 667.7 234.75 667.7 234.75 841.14 234.75 c 0,0,0
 1013.92 234.75 1013.92 234.75 1114.965 341.8 c 0,0,0
 1216.01 448.85 1216.01 448.85 1216.01 638.29 c 0,0,0
 1216.01 788.04 1216.01 788.04 1139.635 891.97 c 0,0,0
 1063.26 995.9 1063.26 995.9 905.87 1070.62 c 1,0,0
 905.87 1407.67 l 1,0,0
 1568.02 1407.67 l 1,0,0
 1568.02 1155.91 l 1,0,0
 1292.1 1155.91 l 2,0,0
 1262.44 1155.91 1262.44 1155.91 1217.755 1158.91 c 0,0,0
 1173.07 1161.91 1173.07 1161.91 1113.36 1166.91 c 1,0,0
 1333.33 1067.21 1333.33 1067.21 1436.675 927.3 c 0,0,0
 1540.02 787.39 1540.02 787.39 1540.02 584.06 c 0,0,0
 1540.02 405.35 1540.02 405.35 1452.21 268.34 c 0,0,0
 1364.4 131.33 1364.4 131.33 1206.265 54.5 c 0,0,0
 1048.13 -22.33 1048.13 -22.33 839.48 -22.33 c 0,0,0
EndSplineSet
EndChar

StartChar: uni01B2
Encoding: 434 434 370
Width: 1479
GlyphClass: 2
Flags: W
LayerCount: 2
Fore
SplineSet
676.4 -20 m 0,0,0
 398.14 -20 398.14 -20 254.795 117.855 c 0,0,0
 111.45 255.71 111.45 255.71 111.45 523.38 c 2,0,0
 111.45 1409 l 1,0,0
 440.77 1409 l 1,0,0
 440.77 548.69 l 2,0,0
 440.77 395.24 440.77 395.24 497.37 315.66 c 0,0,0
 553.97 236.08 553.97 236.08 671.12 236.08 c 0,0,0
 807.78 236.08 807.78 236.08 886.145 303.635 c 0,0,0
 964.51 371.19 964.51 371.19 997.045 524.26 c 0,0,0
 1029.58 677.33 1029.58 677.33 1029.58 933.04 c 0,0,0
 1029.58 1055.49 1029.58 1055.49 984.595 1118.18 c 0,0,0
 939.61 1180.87 939.61 1180.87 847.28 1180.87 c 0,0,0
 806.23 1180.87 806.23 1180.87 735.29 1166.88 c 1,0,0
 737.6 1407.67 l 1,0,0
 837.52 1430.31 837.52 1430.31 998.31 1430.31 c 0,0,0
 1172.61 1430.31 1172.61 1430.31 1265.255 1305.675 c 0,0,0
 1357.9 1181.04 1357.9 1181.04 1357.9 942.76 c 0,0,0
 1357.9 430.1 1357.9 430.1 1160.56 172.56 c 0,0,0
 981.34 -20 981.34 -20 676.4 -20 c 0,0,0
EndSplineSet
EndChar

StartChar: uni01B3
Encoding: 435 435 371
Width: 1575
GlyphClass: 2
Flags: W
LayerCount: 2
Fore
SplineSet
680.35 837.75 m 1,0,0
 888.68 1230.75 l 2,0,0
 945.01 1335.37 945.01 1335.37 1008.335 1384.17 c 0,0,0
 1071.66 1432.97 1071.66 1432.97 1158.64 1432.97 c 0,0,0
 1243.91 1432.97 1243.91 1432.97 1321.05 1397.835 c 0,0,0
 1398.19 1362.7 1398.19 1362.7 1471.82 1293.08 c 1,0,0
 1354.57 1091.91 l 1,0,0
 1316.6 1125.22 1316.6 1125.22 1289.55 1138.41 c 0,0,0
 1262.5 1151.6 1262.5 1151.6 1236.14 1151.6 c 0,0,0
 1198.81 1151.6 1198.81 1151.6 1172.98 1129.785 c 0,0,0
 1147.15 1107.97 1147.15 1107.97 1121.8 1065.29 c 2,0,0
 848.82 576.02 l 1,0,0
 848.82 0 l 1,0,0
 520.5 0 l 1,0,0
 520.5 576.02 l 1,0,0
 31.7 1409 l 1,0,0
 372.05 1409 l 1,0,0
 680.35 837.75 l 1,0,0
EndSplineSet
EndChar

StartChar: uni01B4
Encoding: 436 436 372
Width: 1176
GlyphClass: 2
Flags: W
LayerCount: 2
Fore
SplineSet
313.36 -425 m 0,0,0
 200.13 -425 200.13 -425 118.87 -411.34 c 1,0,0
 118.87 -189.89 l 1,0,0
 180.81 -198.55 180.81 -198.55 220.16 -198.55 c 0,0,0
 309.48 -198.55 309.48 -198.55 352.705 -163.65 c 0,0,0
 395.93 -128.75 395.93 -128.75 428.97 -36.67 c 2,0,0
 447.3 12.98 l 1,0,0
 19.63 1082 l 1,0,0
 351.28 1082 l 1,0,0
 502.14 605.03 l 2,0,0
 508.8 585.72 508.8 585.72 522.635 539.065 c 0,0,0
 536.47 492.41 536.47 492.41 552.64 436.09 c 0,0,0
 568.81 379.77 568.81 379.77 582.81 330.125 c 0,0,0
 596.81 280.48 596.81 280.48 604.13 255.85 c 1,0,0
 700.73 629.74 l 1,0,0
 881.69 1221.07 l 2,0,0
 926.35 1367.01 926.35 1367.01 1004.645 1430.17 c 0,0,0
 1082.94 1493.33 1082.94 1493.33 1181.33 1493.33 c 0,0,0
 1304.68 1493.33 1304.68 1493.33 1429.97 1425.6 c 1,0,0
 1330.68 1207.16 l 1,0,0
 1279.97 1234.58 1279.97 1234.58 1230.58 1234.58 c 0,0,0
 1188.23 1234.58 1188.23 1234.58 1166.36 1206.73 c 0,0,0
 1144.49 1178.88 1144.49 1178.88 1131.79 1138.81 c 2,0,0
 731.68 -75.81 l 2,0,0
 689.63 -206.88 689.63 -206.88 631.955 -283.255 c 0,0,0
 574.28 -359.63 574.28 -359.63 495.635 -392.315 c 0,0,0
 416.99 -425 416.99 -425 313.36 -425 c 0,0,0
EndSplineSet
EndChar

StartChar: uni01B5
Encoding: 437 437 373
Width: 1251
GlyphClass: 2
Flags: W
LayerCount: 2
Fore
SplineSet
1193.65 255.75 m 1,0,0
 1193.65 0 l 1,0,0
 59.68 0 l 1,0,0
 59.68 230.78 l 1,0,0
 370.61 623.81 l 1,0,0
 48.7 623.81 l 1,0,0
 48.7 841.93 l 1,0,0
 542.77 841.93 l 1,0,0
 790 1153.25 l 1,0,0
 136.67 1153.25 l 1,0,0
 136.67 1409 l 1,0,0
 1154.63 1409 l 1,0,0
 1154.63 1182.22 l 1,0,0
 886.09 841.93 l 1,0,0
 1146.77 841.93 l 1,0,0
 1146.77 623.81 l 1,0,0
 713.93 623.81 l 1,0,0
 424.31 255.75 l 1,0,0
 1193.65 255.75 l 1,0,0
EndSplineSet
EndChar

StartChar: uni01B6
Encoding: 438 438 374
Width: 1024
GlyphClass: 2
Flags: W
LayerCount: 2
Fore
SplineSet
972.61 226.78 m 1,0,0
 972.61 0 l 1,0,0
 74.27 0 l 1,0,0
 74.27 219.46 l 1,0,0
 265.17 446.76 l 1,0,0
 69.61 446.76 l 1,0,0
 69.61 638.28 l 1,0,0
 402.1 638.28 l 1,0,0
 574.34 857.88 l 1,0,0
 115.6 857.88 l 1,0,0
 115.6 1082 l 1,0,0
 919.65 1082 l 1,0,0
 919.65 859.88 l 1,0,0
 738.76 638.28 l 1,0,0
 925.73 638.28 l 1,0,0
 925.73 446.76 l 1,0,0
 595.18 446.76 l 1,0,0
 423.9 226.78 l 1,0,0
 972.61 226.78 l 1,0,0
EndSplineSet
EndChar

StartChar: uni01B7
Encoding: 439 439 375
Width: 1251
GlyphClass: 2
Flags: W
LayerCount: 2
Fore
SplineSet
586.4 -436.64 m 0,0,0
 369.09 -436.64 369.09 -436.64 230.59 -343 c 0,0,0
 92.09 -249.36 92.09 -249.36 19.73 -52.73 c 1,0,0
 309.41 57.84 l 1,0,0
 361.76 -71.51 361.76 -71.51 423.855 -124.38 c 0,0,0
 485.95 -177.25 485.95 -177.25 576.74 -177.25 c 0,0,0
 712.52 -177.25 712.52 -177.25 784.265 -87.015 c 0,0,0
 856.01 3.22 856.01 3.22 856.01 176.32 c 0,0,0
 856.01 331.47 856.01 331.47 763.75 412.225 c 0,0,0
 671.49 492.98 671.49 492.98 486.34 492.98 c 2,0,0
 339.53 492.98 l 1,0,0
 339.53 753.68 l 1,0,0
 729.14 1153.25 l 1,0,0
 77.09 1153.25 l 1,0,0
 77.09 1409 l 1,0,0
 1137.65 1409 l 1,0,0
 1137.65 1189.48 l 1,0,0
 673.88 730.07 l 1,0,0
 909.3 720.05 909.3 720.05 1043.82 575.87 c 0,0,0
 1178.34 431.69 1178.34 431.69 1178.34 190.95 c 0,0,0
 1178.34 0.66 1178.34 0.66 1107.34 -142.99 c 0,0,0
 1035.34 -285.64 1035.34 -285.64 900.35 -361.14 c 0,0,0
 765.36 -436.64 765.36 -436.64 586.4 -436.64 c 0,0,0
EndSplineSet
EndChar

StartChar: uni01B8
Encoding: 440 440 376
Width: 1251
GlyphClass: 2
Flags: W
LayerCount: 2
Fore
SplineSet
664.6 -436.64 m 0,0,0
 479.3 -436.64 479.3 -436.64 346.48 -362.81 c 0,0,0
 213.66 -288.98 213.66 -288.98 143.16 -153.65 c 0,0,0
 72.66 -18.32 72.66 -18.32 72.66 168.34 c 0,0,0
 72.66 336.34 72.66 336.34 136.665 461.505 c 0,0,0
 200.67 586.67 200.67 586.67 314.53 656.85 c 0,0,0
 428.39 727.03 428.39 727.03 577.12 730.07 c 1,0,0
 113.35 1189.48 l 1,0,0
 113.35 1409 l 1,0,0
 1173.91 1409 l 1,0,0
 1173.91 1153.25 l 1,0,0
 521.86 1153.25 l 1,0,0
 911.47 753.68 l 1,0,0
 911.47 492.98 l 1,0,0
 764.66 492.98 l 2,0,0
 577.85 492.98 577.85 492.98 486.42 412.06 c 0,0,0
 394.99 331.14 394.99 331.14 394.99 176.32 c 0,0,0
 394.99 59.93 394.99 59.93 425.87 -18.625 c 0,0,0
 456.75 -97.18 456.75 -97.18 518.98 -137.215 c 0,0,0
 581.21 -177.25 581.21 -177.25 674.26 -177.25 c 0,0,0
 765.05 -177.25 765.05 -177.25 827.81 -123.715 c 0,0,0
 890.57 -70.18 890.57 -70.18 941.59 57.84 c 1,0,0
 1231.27 -52.73 l 1,0,0
 1158.91 -249.36 1158.91 -249.36 1020.575 -343 c 0,0,0
 882.24 -436.64 882.24 -436.64 664.6 -436.64 c 0,0,0
EndSplineSet
EndChar

StartChar: uni01B9
Encoding: 441 441 377
Width: 1065
GlyphClass: 2
Flags: W
LayerCount: 2
Fore
SplineSet
567.68 -226.15 m 0,0,0
 637.52 -226.15 637.52 -226.15 688.915 -182.775 c 0,0,0
 740.31 -139.4 740.31 -139.4 747.67 -41.32 c 1,0,0
 1057.34 -54.65 l 1,0,0
 1033.01 -235 1033.01 -235 902.85 -335.655 c 0,0,0
 772.69 -436.31 772.69 -436.31 567 -436.31 c 0,0,0
 401.7 -436.31 401.7 -436.31 279.075 -378.955 c 0,0,0
 156.45 -321.6 156.45 -321.6 89.48 -213.755 c 0,0,0
 22.51 -105.91 22.51 -105.91 22.51 45.06 c 0,0,0
 22.51 247.37 22.51 247.37 134.5 366.555 c 0,0,0
 246.49 485.74 246.49 485.74 452.78 504.09 c 1,0,0
 90.43 881.06 l 1,0,0
 90.43 1081.67 l 1,0,0
 998.7 1081.67 l 1,0,0
 998.7 858.21 l 1,0,0
 475.94 858.21 l 1,0,0
 796.43 512.44 l 1,0,0
 796.43 308.59 l 1,0,0
 687.83 308.59 l 2,0,0
 495.92 308.59 495.92 308.59 419.54 242.525 c 0,0,0
 343.16 176.46 343.16 176.46 343.16 20.47 c 0,0,0
 343.16 -70.2 343.16 -70.2 367.025 -124.77 c 0,0,0
 390.89 -179.34 390.89 -179.34 440.6 -202.745 c 0,0,0
 490.31 -226.15 490.31 -226.15 567.68 -226.15 c 0,0,0
EndSplineSet
EndChar

StartChar: uni01BA
Encoding: 442 442 378
Width: 1065
GlyphClass: 2
Flags: W
LayerCount: 2
Fore
SplineSet
1033.72 -98.34 m 1,0,0
 1001.7 -254.67 1001.7 -254.67 856.56 -345.655 c 0,0,0
 711.42 -436.64 711.42 -436.64 492.11 -436.64 c 0,0,0
 429.76 -436.64 429.76 -436.64 374.57 -426.645 c 0,0,0
 319.38 -416.65 319.38 -416.65 269.04 -397.65 c 0,0,0
 167.69 -359.65 167.69 -359.65 107.55 -287.655 c 0,0,0
 47.41 -215.66 47.41 -215.66 47.41 -113.02 c 0,0,0
 47.41 -23.38 47.41 -23.38 97.39 43.59 c 0,0,0
 130.38 87.24 130.38 87.24 182.02 118.9 c 0,0,0
 233.66 150.56 233.66 150.56 316.625 177.06 c 0,0,0
 399.59 203.56 399.59 203.56 527.55 231.56 c 0,0,0
 618.09 249.29 618.09 249.29 667.77 277.32 c 0,0,0
 716.79 304.35 716.79 304.35 716.79 343.4 c 0,0,0
 716.79 429.37 716.79 429.37 612.14 444.74 c 0,0,0
 573.36 449.13 573.36 449.13 400.4 448.14 c 2,0,0
 280.91 447.81 l 1,0,0
 280.91 593.46 l 1,0,0
 566.42 858.21 l 1,0,0
 57.46 858.21 l 1,0,0
 57.46 1082 l 1,0,0
 970.68 1082 l 1,0,0
 970.68 904.48 l 1,0,0
 641.18 618.39 l 1,0,0
 859.08 616.03 859.08 616.03 949.415 549.855 c 0,0,0
 1039.75 483.68 1039.75 483.68 1039.75 338.08 c 0,0,0
 1039.75 257.41 1039.75 257.41 993.6 196.095 c 0,0,0
 947.45 134.78 947.45 134.78 853.18 90.8 c 0,0,0
 754.26 45.16 754.26 45.16 541.68 -5.49 c 0,0,0
 431.61 -31.18 431.61 -31.18 379.29 -65.15 c 0,0,0
 362.21 -78.84 362.21 -78.84 353.5 -92.055 c 0,0,0
 344.79 -105.27 344.79 -105.27 344.79 -116.03 c 0,0,0
 344.79 -166.42 344.79 -166.42 394.84 -196.78 c 0,0,0
 444.89 -227.14 444.89 -227.14 533.01 -227.14 c 0,0,0
 618.14 -227.14 618.14 -227.14 671.22 -182.625 c 0,0,0
 724.3 -138.11 724.3 -138.11 728.04 -54.07 c 1,0,0
 1033.72 -98.34 l 1,0,0
EndSplineSet
EndChar

StartChar: uni01BB
Encoding: 443 443 379
Width: 1139
GlyphClass: 2
Flags: W
LayerCount: 2
Fore
SplineSet
1063.93 256.74 m 1,0,0
 1063.93 0 l 1,0,0
 60.44 0 l 1,0,0
 60.44 217.44 l 1,0,0
 95.78 293.14 95.78 293.14 152.77 371.46 c 0,0,0
 174.14 401.51 174.14 401.51 201.505 433.71 c 0,0,0
 228.87 465.91 228.87 465.91 259.275 498.63 c 0,0,0
 289.68 531.35 289.68 531.35 318.51 559.47 c 1,0,0
 84.68 559.47 l 1,0,0
 84.68 768.62 l 1,0,0
 560.97 768.62 l 1,0,0
 723.93 910.94 723.93 910.94 723.93 1016.72 c 0,0,0
 723.93 1100.8 723.93 1100.8 684.525 1140.86 c 0,0,0
 645.12 1180.92 645.12 1180.92 562.69 1180.92 c 0,0,0
 480.94 1180.92 480.94 1180.92 442.35 1137.04 c 0,0,0
 403.76 1093.16 403.76 1093.16 389.43 1001.44 c 1,0,0
 73.76 1017.11 l 1,0,0
 99.08 1222.02 99.08 1222.02 221.25 1326.01 c 0,0,0
 343.42 1430 343.42 1430 560.03 1430 c 0,0,0
 792.98 1430 792.98 1430 917.455 1324.845 c 0,0,0
 1041.93 1219.69 1041.93 1219.69 1041.93 1030.7 c 0,0,0
 1041.93 893.68 1041.93 893.68 946.86 768.62 c 1,0,0
 1046.63 768.62 l 1,0,0
 1046.63 559.47 l 1,0,0
 736.05 559.47 l 1,0,0
 657.16 495.22 657.16 495.22 623.62 468.35 c 0,0,0
 590.08 441.48 590.08 441.48 581.645 434.23 c 0,0,0
 573.21 426.98 573.21 426.98 567.14 419.92 c 0,0,0
 514.78 371.9 514.78 371.9 482.735 331.19 c 0,0,0
 450.69 290.48 450.69 290.48 436.66 256.74 c 1,0,0
 1063.93 256.74 l 1,0,0
EndSplineSet
EndChar

StartChar: uni01BC
Encoding: 444 444 380
Width: 1139
GlyphClass: 2
Flags: W
LayerCount: 2
Fore
SplineSet
47.56 1409 m 1,0,0
 1074.43 1409 l 1,0,0
 1074.43 1157.24 l 1,0,0
 528.58 1157.24 l 1,0,0
 528.58 940.69 l 1,0,0
 550.72 940.69 l 2,0,0
 816.3 940.69 816.3 940.69 949.125 827.99 c 0,0,0
 1081.95 715.29 1081.95 715.29 1081.95 488.31 c 0,0,0
 1081.95 235.02 1081.95 235.02 950.115 107.51 c 0,0,0
 818.28 -20 818.28 -20 552.69 -20 c 0,0,0
 339.08 -20 339.08 -20 206.435 82.32 c 0,0,0
 73.79 184.64 73.79 184.64 51.76 370.27 c 1,0,0
 367.75 380.63 l 1,0,0
 382.8 306.5 382.8 306.5 431.365 267.95 c 0,0,0
 479.93 229.4 479.93 229.4 562.34 229.4 c 0,0,0
 673.1 229.4 673.1 229.4 716.86 284.155 c 0,0,0
 760.62 338.91 760.62 338.91 760.62 457.71 c 0,0,0
 760.62 571.16 760.62 571.16 709.365 625.225 c 0,0,0
 658.11 679.29 658.11 679.29 525.7 679.29 c 2,0,0
 222.22 679.29 l 1,0,0
 222.22 1157.24 l 1,0,0
 47.56 1157.24 l 1,0,0
 47.56 1409 l 1,0,0
EndSplineSet
EndChar

StartChar: uni01BD
Encoding: 445 445 381
Width: 1044
GlyphClass: 2
Flags: W
LayerCount: 2
Fore
SplineSet
23.4 1082 m 1,0,0
 899.16 1082 l 1,0,0
 899.16 858.21 l 1,0,0
 451.83 858.21 l 1,0,0
 451.83 697.31 l 1,0,0
 500.51 697.31 l 2,0,0
 739.42 697.31 739.42 697.31 855.74 607.805 c 0,0,0
 972.06 518.3 972.06 518.3 972.06 332.36 c 0,0,0
 972.06 164.68 972.06 164.68 847.61 72.34 c 0,0,0
 723.16 -20 723.16 -20 491.27 -20 c 0,0,0
 302.3 -20 302.3 -20 174.525 68.48 c 0,0,0
 46.75 156.96 46.75 156.96 7.43 314.99 c 1,0,0
 310.44 334.97 l 1,0,0
 330.09 255.27 330.09 255.27 376.635 223.37 c 0,0,0
 423.18 191.47 423.18 191.47 509.86 191.47 c 0,0,0
 672.69 191.47 672.69 191.47 672.69 333.02 c 0,0,0
 672.69 423.72 672.69 423.72 625.79 460.26 c 0,0,0
 578.89 496.8 578.89 496.8 466.14 496.8 c 2,0,0
 178.11 496.8 l 1,0,0
 178.11 858.21 l 1,0,0
 23.4 858.21 l 1,0,0
 23.4 1082 l 1,0,0
EndSplineSet
EndChar

StartChar: uni01BE
Encoding: 446 446 382
Width: 1248
GlyphClass: 2
Flags: W
LayerCount: 2
Fore
SplineSet
168.33 872.53 m 1,0,0
 29.35 872.53 l 1,0,0
 29.35 1082 l 1,0,0
 186.62 1082 l 1,0,0
 303.66 1305.31 l 1,0,0
 478.67 1279.57 l 1,0,0
 478.67 1082 l 1,0,0
 690.27 1082 l 1,0,0
 690.27 872.53 l 1,0,0
 478.67 872.53 l 1,0,0
 478.67 805.43 l 2,0,0
 478.67 737.72 478.67 737.72 579.46 703.39 c 0,0,0
 600.45 702.64 600.45 702.64 647.6 693.44 c 0,0,0
 694.75 684.24 694.75 684.24 762.77 668.9 c 0,0,0
 810.87 658.87 810.87 658.87 857.045 646.36 c 0,0,0
 903.22 633.85 903.22 633.85 941.53 620.68 c 0,0,0
 979.84 607.51 979.84 607.51 1003.84 594.5 c 0,0,0
 1084.44 552.51 1084.44 552.51 1127.905 486.54 c 0,0,0
 1171.37 420.57 1171.37 420.57 1171.37 321.61 c 0,0,0
 1171.37 162.96 1171.37 162.96 1033.465 71.48 c 0,0,0
 895.56 -20 895.56 -20 662.62 -20 c 0,0,0
 432.69 -20 432.69 -20 311.22 51.82 c 0,0,0
 189.75 123.64 189.75 123.64 148.77 275.28 c 1,0,0
 424.81 314.26 l 1,0,0
 445.15 240.56 445.15 240.56 489.885 211.365 c 0,0,0
 534.62 182.17 534.62 182.17 662.62 182.17 c 0,0,0
 775.99 182.17 775.99 182.17 830.985 206.72 c 0,0,0
 885.98 231.27 885.98 231.27 885.98 291.65 c 0,0,0
 885.98 333.42 885.98 333.42 845.12 362.27 c 0,0,0
 804.26 391.12 804.26 391.12 698.94 409.81 c 0,0,0
 562.13 434.79 562.13 434.79 479.825 457.62 c 0,0,0
 397.52 480.45 397.52 480.45 356.51 500.14 c 0,0,0
 267.89 543.81 267.89 543.81 218.11 617.29 c 0,0,0
 168.33 690.77 168.33 690.77 168.33 802.06 c 2,0,0
 168.33 872.53 l 1,0,0
EndSplineSet
EndChar

StartChar: uni01BF
Encoding: 447 447 383
Width: 1287
GlyphClass: 2
Flags: W
LayerCount: 2
Fore
SplineSet
1201.29 682.52 m 0,0,0
 1201.29 548.65 1201.29 548.65 1174.81 435.08 c 0,0,0
 1148.33 321.51 1148.33 321.51 1090.05 224.25 c 0,0,0
 1004.41 77.61 1004.41 77.61 846.085 -37.87 c 0,0,0
 687.76 -153.35 687.76 -153.35 458.98 -249.36 c 1,0,0
 458.98 -424.67 l 1,0,0
 144.65 -424.67 l 1,0,0
 144.65 1082 l 1,0,0
 441.66 1082 l 1,0,0
 445.33 1064.58 445.33 1064.58 448.495 1024.405 c 0,0,0
 451.66 984.23 451.66 984.23 454.32 921.3 c 1,0,0
 458.32 921.3 l 1,0,0
 511.63 1010.32 511.63 1010.32 596.46 1058.32 c 0,0,0
 681.29 1106.32 681.29 1106.32 794.62 1106.32 c 0,0,0
 987.63 1106.32 987.63 1106.32 1094.46 984.485 c 0,0,0
 1201.29 862.65 1201.29 862.65 1201.29 682.52 c 0,0,0
883.61 643.95 m 0,0,0
 883.61 892.84 883.61 892.84 678.15 892.84 c 0,0,0
 576.38 892.84 576.38 892.84 517.68 810.29 c 0,0,0
 458.98 727.74 458.98 727.74 458.98 611.5 c 2,0,0
 458.98 -6.6 l 1,0,0
 648.34 98.99 648.34 98.99 752.37 231.88 c 0,0,0
 883.61 408.21 883.61 408.21 883.61 643.95 c 0,0,0
EndSplineSet
EndChar

StartChar: uni01C0
Encoding: 448 448 384
Width: 586
GlyphClass: 2
Flags: W
LayerCount: 2
Fore
SplineSet
450.43 1484 m 1,0,0
 450.43 0 l 1,0,0
 136.1 0 l 1,0,0
 136.1 1484 l 1,0,0
 450.43 1484 l 1,0,0
EndSplineSet
EndChar

StartChar: uni01C1
Encoding: 449 449 385
Width: 1076
GlyphClass: 2
Flags: W
LayerCount: 2
Fore
SplineSet
437.1 1484 m 1,0,0
 437.1 0 l 1,0,0
 172.35 0 l 1,0,0
 172.35 1484 l 1,0,0
 437.1 1484 l 1,0,0
903.74 1484 m 1,0,0
 903.74 0 l 1,0,0
 638.99 0 l 1,0,0
 638.99 1484 l 1,0,0
 903.74 1484 l 1,0,0
EndSplineSet
EndChar

StartChar: uni01C2
Encoding: 450 450 386
Width: 1197
GlyphClass: 2
Flags: W
LayerCount: 2
Fore
SplineSet
733.21 393.39 m 1,0,0
 733.21 0 l 1,0,0
 464.78 0 l 1,0,0
 464.78 393.39 l 1,0,0
 71.44 393.39 l 1,0,0
 71.44 620.87 l 1,0,0
 464.78 620.87 l 1,0,0
 464.78 873.01 l 1,0,0
 71.44 873.01 l 1,0,0
 71.44 1100.49 l 1,0,0
 464.78 1100.49 l 1,0,0
 464.78 1484 l 1,0,0
 733.21 1484 l 1,0,0
 733.21 1100.49 l 1,0,0
 1125.89 1100.49 l 1,0,0
 1125.89 873.01 l 1,0,0
 733.21 873.01 l 1,0,0
 733.21 620.87 l 1,0,0
 1125.89 620.87 l 1,0,0
 1125.89 393.39 l 1,0,0
 733.21 393.39 l 1,0,0
EndSplineSet
EndChar

StartChar: uni01DD
Encoding: 477 477 413
Width: 1139
GlyphClass: 2
Flags: W
LayerCount: 2
Fore
SplineSet
746.28 600.28 m 1,0,0
 746.28 749.04 746.28 749.04 693.885 822.775 c 0,0,0
 641.49 896.51 641.49 896.51 546.69 896.51 c 0,0,0
 486.88 896.51 486.88 896.51 447.635 869.46 c 0,0,0
 408.39 842.41 408.39 842.41 390.04 779.72 c 1,0,0
 89.73 795.46 l 1,0,0
 212 1102 212 1102 565.31 1102 c 0,0,0
 810.63 1102 810.63 1102 943.445 957.005 c 0,0,0
 1076.26 812.01 1076.26 812.01 1076.26 536.66 c 0,0,0
 1076.26 268.66 1076.26 268.66 940.785 124.33 c 0,0,0
 805.31 -20 805.31 -20 557.68 -20 c 0,0,0
 326.33 -20 326.33 -20 202.175 137.965 c 0,0,0
 78.02 295.93 78.02 295.93 78.02 597.56 c 2,0,0
 78.02 600.28 l 1,0,0
 746.28 600.28 l 1,0,0
378.4 411.74 m 1,0,0
 384.09 293.94 384.09 293.94 433.48 232.73 c 0,0,0
 482.87 171.52 482.87 171.52 562.01 171.52 c 0,0,0
 650.45 171.52 650.45 171.52 696.36 234.415 c 0,0,0
 742.27 297.31 742.27 297.31 744.28 411.74 c 1,0,0
 378.4 411.74 l 1,0,0
EndSplineSet
EndChar

